<svg xmlns="http://www.w3.org/2000/svg" width="100" height="100" fill="none"><g clip-path="url(#a)"><path d="M67.5 30h-35a7.5 7.5 0 0 0-7.5 7.5v25a7.5 7.5 0 0 0 7.5 7.5h35a7.5 7.5 0 0 0 7.5-7.5v-25a7.5 7.5 0 0 0-7.5-7.5Zm-1.025 5-14.7 14.7a2.5 2.5 0 0 1-3.55 0L33.525 35h32.95ZM70 62.5a2.5 2.5 0 0 1-2.5 2.5h-35a2.5 2.5 0 0 1-2.5-2.5V38.525l14.7 14.7a7.5 7.5 0 0 0 10.6 0l14.7-14.7V62.5Z" fill="#31373E"/><path d="M99 1H1v98h98V1Z" stroke="#31373E" stroke-width="2"/></g><defs><clipPath id="a"><path fill="#fff" d="M0 0h100v100H0z"/></clipPath></defs></svg>