<svg width="200" height="200" viewBox="0 0 200 200" fill="none" xmlns="http://www.w3.org/2000/svg">
<path d="M35.1348 0.00227358C29.8112 0.118218 27.5082 1.76858 24.3241 5.40762L5.40535 27.029C1.451 31.5483 0 38.5953 0 45.9477C0 70.496 18.4676 110.354 54.0535 145.947C89.646 181.533 129.504 200 154.052 200C161.405 200 168.452 198.549 172.971 194.595L194.593 175.676C198.231 172.492 199.882 170.189 199.998 164.865C200.083 160.945 197.759 157.221 194.593 154.055L164.863 124.325C161.527 120.989 158.659 118.92 154.052 118.92C149.261 118.92 146.194 121.373 143.242 124.325L132.431 135.136C127.479 139.906 123.78 140.269 118.918 137.839L62.1615 81.0825C59.7307 76.2201 60.0943 72.5215 64.8642 67.5691L75.6749 56.7584C78.6273 53.806 81.0802 50.7393 81.0802 45.9477C81.0802 41.3406 79.0115 38.4737 75.6749 35.137L45.9455 5.40762C42.7788 2.24098 39.0551 -0.0830228 35.1348 0.00227358Z" fill="white"/>
</svg>
