<svg xmlns="http://www.w3.org/2000/svg" width="100" height="100" fill="none"><path d="M40.976 59.56c1.36 1.35 4.09 3.93 6 4.39 1.91.46 3.25-.59 4.71-1.84a4.76 4.76 0 0 1 3-1.75c1.93-.35 7.36 3.26 8.66 4.8 4 4.7.41 10-4.94 10.41-6.62.55-15.45-5.47-21.67-11.7-6.22-6.23-12.26-15-11.7-21.67.45-5.35 5.71-8.9 10.41-4.94 1.54 1.3 5.15 6.73 4.8 8.66a4.76 4.76 0 0 1-1.75 3c-1.25 1.46-2.3 2.84-1.84 4.71.46 1.87 2.96 4.57 4.32 5.93ZM58.905 53.032a1.65 1.65 0 0 1-1.3-1.28 11.66 11.66 0 0 0-9.14-9.37 1.66 1.66 0 0 1-1.24-1.5.94.94 0 0 1 1.24-.93 15 15 0 0 1 11.54 11.91.93.93 0 0 1-1 1.19l-.1-.02Z" fill="#fff"/><path d="M66.317 54.351a1.66 1.66 0 0 1-1.32-1.37c-1.22-9.79-7.1-16.13-17-18.34a1.66 1.66 0 0 1-1.24-1.49.94.94 0 0 1 1.2-.95c11.17 2.47 18.09 9.98 19.51 21.06a.93.93 0 0 1-1.06 1.1l-.09-.01Z" fill="#fff"/><path d="M73.467 55.461a1.651 1.651 0 0 1-1.31-1.31c-2.69-16-10.1-23.98-24.69-26.67a1.65 1.65 0 0 1-1.29-1.45.92.92 0 0 1 1.15-1c15.94 2.93 24.34 12 27.25 29.28a.94.94 0 0 1-1 1.17l-.11-.02Z" fill="#fff"/><path stroke="#fff" stroke-width="2" d="M1 1h98v98H1z"/></svg>