<svg width="100" height="100" viewBox="-25 -25 150 150" preserveAspectRatio="xMidYMid meet" fill="none" xmlns="http://www.w3.org/2000/svg">
<path d="M17.5674 0.00113679C14.9056 0.0591092 13.7541 0.88429 12.162 2.70381L2.70267 13.5145C0.725498 15.7741 0 19.2977 0 22.9739C0 35.248 9.23382 55.177 27.0267 72.9733C44.823 90.7663 64.752 99.9999 77.0262 100C80.7024 100 84.2259 99.2746 86.4856 97.2973L97.2963 87.838C99.1157 86.2458 99.9408 85.0944 99.9989 82.4326C100.041 80.4724 98.8796 78.6107 97.2963 77.0274L82.4316 62.1627C80.7633 60.4944 79.3297 59.4598 77.0262 59.46C74.6304 59.4598 73.0971 60.6864 71.6209 62.1627L66.2155 67.568C63.7394 69.953 61.8901 70.1347 59.4588 68.9193L31.0808 40.5413C29.8654 38.11 30.0471 36.2607 32.4321 33.7846L37.8374 28.3792C39.3137 26.903 40.5401 25.3696 40.5401 22.9739C40.5401 20.6703 39.5057 19.2368 37.8374 17.5685L22.9727 2.70381C21.3894 1.12049 19.5275 -0.0415114 17.5674 0.00113679Z" fill="white"/>
</svg>
