<svg xmlns="http://www.w3.org/2000/svg" width="101" height="101" fill="none"><path d="M91.75 56.36H24.94V20.616c0-4.047 3.29-7.34 7.333-7.34 3.635 0 6.653 2.658 7.232 6.13-5.602.731-9.93 5.185-9.93 10.57a1.5 1.5 0 0 0 1.5 1.5h20.086a1.5 1.5 0 0 0 1.5-1.5c0-5.45-4.43-9.95-10.129-10.599-.615-5.119-4.977-9.102-10.259-9.102-5.698 0-10.334 4.64-10.334 10.34V56.36H8.246a1.5 1.5 0 1 0 0 3h6.426l7.312 29.226a1.5 1.5 0 0 0 1.455 1.136h53.122a1.5 1.5 0 0 0 1.455-1.136l7.312-29.226h6.421a1.5 1.5 0 0 0 .001-2.999ZM49.5 28.476H32.74c.777-3.522 4.24-6.187 8.381-6.187 4.14.001 7.601 2.665 8.378 6.187ZM75.39 86.722h-50.78L17.765 59.36h64.472l-6.846 27.362Z" fill="#E29A01"/></svg>