<svg xmlns="http://www.w3.org/2000/svg" width="101" height="101" fill="none"><path d="m82.256 75.56-8.716-2.145 8.757-13.08a1.5 1.5 0 0 0-2.492-1.67l-9.948 14.86a1.5 1.5 0 0 0 .888 2.291l8.828 2.172-8.714 14.63a1.5 1.5 0 0 0 2.578 1.535l9.75-16.37a1.501 1.501 0 0 0-.931-2.222Z" fill="#fff"/><path d="M50 5.113c-24.892 0-45.143 20.25-45.143 45.141 0 17.687 9.913 37.828 28.941 42.118l2.452.412c.042.007.084.012.127.016 1.327.108 2.543.164 3.66.164 4.353 0 7.183-.843 9.152-2.659 2.125-1.958 3.115-4.97 3.115-9.479v-9.51c10.368-1.154 18.46-9.964 18.46-20.637V37.251a1.5 1.5 0 0 0-1.496-1.5l-7.074-.024V23.468a1.5 1.5 0 1 0-3 0v12.25L40.8 35.654V23.47a1.5 1.5 0 1 0-3 0v12.176l-7.067-.024a1.454 1.454 0 0 0-1.063.438 1.503 1.503 0 0 0-.44 1.062v13.56c0 11.22 8.946 20.367 20.075 20.736v9.41c0 3.612-.683 5.923-2.147 7.273-1.768 1.627-4.999 2.155-10.474 1.716l-2.307-.386c-17.41-3.927-26.52-22.68-26.52-39.175 0-23.236 18.904-42.14 42.142-42.14 23.238 0 42.144 18.903 42.144 42.14a1.5 1.5 0 1 0 3 0c0-24.892-20.25-45.142-45.143-45.142ZM32.23 50.678V38.624l6.922.023c.05.005.098.015.15.015.048 0 .093-.01.14-.014l28.323.096v11.933c0 9.8-7.97 17.772-17.768 17.772-9.797 0-17.768-7.972-17.768-17.77Z" fill="#fff"/></svg>