<svg xmlns="http://www.w3.org/2000/svg" width="101" height="101" fill="none"><path d="M63.43 39.022 46.55 57.93l-8.566-8.565a1.5 1.5 0 1 0-2.12 2.12l9.687 9.689c.281.282.663.439 1.061.439l.042-.001a1.5 1.5 0 0 0 1.077-.5L65.67 41.02a1.5 1.5 0 1 0-2.239-1.998Z" fill="#E29A01"/><path d="M92.076 50c.028-.115.047-.233.047-.356 0-3.998-4.147-6.064-7.807-7.888-2.598-1.294-5.283-2.633-5.998-4.32-.728-1.722.3-4.528 1.292-7.243 1.384-3.783 2.814-7.694.175-10.33-2.588-2.589-6.372-1.713-10.033-.862-2.562.594-5.213 1.207-6.978.461-1.723-.729-3.155-2.989-4.54-5.177-2.01-3.169-4.284-6.762-8.233-6.762-3.956 0-6.188 3.671-8.156 6.911-1.366 2.25-2.78 4.573-4.5 5.301-1.76.745-4.438.07-7.028-.58-3.69-.927-7.505-1.889-10.1.708-2.62 2.62-1.35 6.551-.12 10.354.878 2.713 1.785 5.52 1.05 7.256-.715 1.694-3.281 3.021-5.764 4.305-3.517 1.818-7.504 3.88-7.504 7.868 0 .124.02.243.048.358a1.482 1.482 0 0 0-.047.355c0 3.99 3.987 6.05 7.505 7.868 2.48 1.283 5.048 2.61 5.764 4.304.734 1.737-.173 4.543-1.051 7.257-1.23 3.802-2.5 7.732.12 10.353 2.596 2.597 6.41 1.638 10.1.71 2.59-.65 5.27-1.324 7.029-.58 1.72.727 3.133 3.051 4.499 5.3 1.969 3.238 4.2 6.91 8.156 6.91 3.949 0 6.225-3.594 8.233-6.763 1.386-2.188 2.818-4.448 4.538-5.177 1.772-.748 4.418-.134 6.979.461 3.659.85 7.445 1.73 10.03-.86 2.643-2.638 1.212-6.55-.172-10.332-.993-2.715-2.02-5.52-1.293-7.24.716-1.689 3.4-3.028 5.999-4.322 3.659-1.823 7.807-3.89 7.807-7.888a1.463 1.463 0 0 0-.047-.36Zm-9.097 5.56c-3.085 1.536-6.275 3.126-7.424 5.837-1.187 2.81.046 6.181 1.238 9.44 1.108 3.031 2.156 5.896.869 7.18-1.41 1.412-4.24.755-7.232.061-3.028-.702-6.16-1.429-8.825-.302-2.585 1.094-4.272 3.758-5.904 6.334-1.75 2.76-3.401 5.367-5.7 5.367-2.268 0-3.882-2.656-5.592-5.468-1.613-2.655-3.282-5.4-5.894-6.504-2.685-1.138-5.858-.34-8.93.433-3.01.755-5.853 1.473-7.246.08-1.323-1.323-.383-4.23.612-7.31 1.047-3.235 2.128-6.58.96-9.348-1.138-2.692-4.194-4.272-7.15-5.8-3.024-1.564-5.882-3.04-5.882-5.204 0-.124-.02-.243-.048-.359.028-.114.047-.232.047-.355 0-2.163 2.857-3.64 5.882-5.203 2.956-1.528 6.013-3.108 7.15-5.802 1.168-2.766.087-6.11-.96-9.347-.995-3.079-1.936-5.987-.611-7.31 1.39-1.393 4.233-.677 7.245.08 3.07.771 6.243 1.572 8.929.434 2.612-1.104 4.28-3.85 5.896-6.505 1.709-2.813 3.323-5.469 5.592-5.469 2.298 0 3.95 2.607 5.698 5.368 1.633 2.576 3.32 5.24 5.906 6.335 2.666 1.127 5.797.4 8.825-.303 2.993-.694 5.822-1.35 7.233.062 1.285 1.283.237 4.147-.871 7.18-1.192 3.26-2.425 6.63-1.237 9.441 1.147 2.71 4.338 4.3 7.423 5.837 3.16 1.574 6.145 3.062 6.145 5.202 0 .124.02.243.048.358a1.482 1.482 0 0 0-.047.355c0 2.143-2.985 3.63-6.145 5.204Z" fill="#E29A01"/></svg>