<svg xmlns="http://www.w3.org/2000/svg" width="320" height="320" fill="none"><g clip-path="url(#a)"><path stroke="#000" d="M159.5 320V0M0 63.5h320M0 127.5h320M0 191.5h320M0 255.5h320"/><path d="M16.8 15.66h9.84V29h-.88V16.46h-8.08V29h-.88V15.66Zm13.877 11.88v6.06h-.8V20.84h.8v1.42c.787-1.067 1.854-1.6 3.2-1.6 1.2 0 2.16.4 2.88 1.2.72.787 1.08 1.787 1.08 3 0 1.24-.366 2.28-1.1 3.12-.72.827-1.686 1.24-2.9 1.24-.613 0-1.166-.12-1.66-.36-.493-.253-.833-.48-1.02-.68a4.997 4.997 0 0 1-.48-.64Zm.8-.1c.56.68 1.34 1.02 2.34 1.02 1 0 1.78-.34 2.34-1.02.56-.68.84-1.54.84-2.58 0-1.08-.306-1.92-.92-2.52-.613-.613-1.36-.92-2.24-.92-.866 0-1.62.3-2.26.9-.626.6-.94 1.433-.94 2.5 0 1.053.28 1.927.84 2.62Zm9.413-5.54c.827-.827 1.847-1.24 3.06-1.24s2.227.413 3.04 1.24c.827.813 1.24 1.827 1.24 3.04s-.413 2.233-1.24 3.06c-.813.813-1.827 1.22-3.04 1.22s-2.233-.407-3.06-1.22c-.813-.827-1.22-1.847-1.22-3.06s.407-2.227 1.22-3.04Zm.6 5.54c.667.68 1.487 1.02 2.46 1.02.973 0 1.787-.34 2.44-1.02.667-.68 1-1.513 1-2.5 0-.987-.333-1.82-1-2.5-.653-.68-1.467-1.02-2.44-1.02-.973 0-1.793.34-2.46 1.02-.653.68-.98 1.513-.98 2.5 0 .987.327 1.82.98 2.5ZM50.58 29v-8.16h.8v7.4h4.4v-7.4h.8v7.4h1.2v2.96h-.76V29h-6.44Zm16.187-3.98h-6.98c0 1.013.314 1.84.94 2.48.64.64 1.407.96 2.3.96.64 0 1.207-.167 1.7-.5.494-.347.874-.8 1.14-1.36l.68.4c-.306.587-.753 1.107-1.34 1.56-.586.44-1.333.66-2.24.66-1.24 0-2.22-.4-2.94-1.2-.72-.813-1.08-1.833-1.08-3.06 0-1.347.387-2.4 1.16-3.16.787-.76 1.72-1.14 2.8-1.14 1.107 0 2.027.407 2.76 1.22.734.813 1.1 1.86 1.1 3.14Zm-6.92-.76h6.08c-.106-.827-.44-1.507-1-2.04-.546-.533-1.22-.8-2.02-.8-.813 0-1.5.273-2.06.82-.56.533-.893 1.207-1 2.02ZM69.135 29v-8.16h.8v3.6h4.6v-3.6h.8V29h-.8v-3.8h-4.6V29h-.8Zm10.642 0v-7.4h-2.84v-.76h6.48v.76h-2.84V29h-.8Zm5.237 0v-8.16h.8v3.6h4.6v-3.6h.8V29h-.8v-3.8h-4.6V29h-.8Zm15.722-6.74v-1.42h.8V29h-.8v-1.46c-.733 1.12-1.793 1.68-3.18 1.68-1.106 0-2.046-.393-2.82-1.18-.773-.787-1.16-1.827-1.16-3.12 0-1.267.367-2.293 1.1-3.08.734-.787 1.694-1.18 2.88-1.18 1.36 0 2.42.533 3.18 1.6Zm-3.14-.84c-.866 0-1.613.313-2.24.94-.626.613-.94 1.447-.94 2.5 0 .973.287 1.82.86 2.54.574.707 1.354 1.06 2.34 1.06.974 0 1.74-.347 2.3-1.04.574-.707.86-1.56.86-2.56 0-1.107-.326-1.953-.98-2.54-.653-.6-1.386-.9-2.2-.9ZM103.53 29l2.6-3.56c-.627-.027-1.16-.227-1.6-.6-.454-.4-.68-.94-.68-1.62 0-.787.246-1.387.74-1.8.44-.387 1.086-.58 1.94-.58h2.72V29h-.8v-3.52h-1.4l-2.56 3.52h-.96Zm4.92-4.28V21.6h-1.92c-.56 0-.994.12-1.3.36-.36.307-.54.72-.54 1.24 0 .507.173.893.52 1.16.32.24.76.36 1.32.36h1.92ZM22.98 41.7v1.06c-.773-.893-1.713-1.34-2.82-1.34-.987 0-1.8.34-2.44 1.02-.64.667-.96 1.507-.96 2.52 0 1.093.34 1.953 1.02 2.58.68.613 1.46.92 2.34.92 1.08 0 2.067-.487 2.96-1.46v1.08c-.853.76-1.847 1.14-2.98 1.14-1.227 0-2.233-.4-3.02-1.2-.773-.813-1.16-1.827-1.16-3.04 0-1.24.387-2.267 1.16-3.08.773-.827 1.8-1.24 3.08-1.24 1.053 0 1.993.347 2.82 1.04Zm3.868 7.3v-7.4h-2.84v-.76h6.48v.76h-2.84V49h-.8Zm11.447-6.74v-1.42h.8V49h-.8v-1.46c-.733 1.12-1.794 1.68-3.18 1.68-1.107 0-2.047-.393-2.82-1.18-.774-.787-1.16-1.827-1.16-3.12 0-1.267.366-2.293 1.1-3.08.733-.787 1.693-1.18 2.88-1.18 1.36 0 2.42.533 3.18 1.6Zm-3.14-.84c-.867 0-1.614.313-2.24.94-.627.613-.94 1.447-.94 2.5 0 .973.286 1.82.86 2.54.573.707 1.353 1.06 2.34 1.06.973 0 1.74-.347 2.3-1.04.573-.707.86-1.56.86-2.56 0-1.107-.327-1.953-.98-2.54-.653-.6-1.387-.9-2.2-.9Zm6.812-.58h2.66c.76 0 1.34.16 1.74.48.48.387.72.907.72 1.56 0 .747-.3 1.313-.9 1.7.374.053.707.207 1 .46.467.413.7.96.7 1.64 0 .76-.273 1.347-.82 1.76-.48.373-1.146.56-2 .56h-3.1v-8.16Zm.8 3.56h1.86c.494 0 .88-.113 1.16-.34.334-.267.5-.627.5-1.08 0-.44-.166-.793-.5-1.06-.266-.213-.653-.32-1.16-.32h-1.86v2.8Zm0 3.84h2.3c.614 0 1.08-.12 1.4-.36.387-.293.58-.7.58-1.22 0-.48-.18-.86-.54-1.14-.32-.24-.8-.36-1.44-.36h-2.3v3.08Zm7.482-7.4h.8v3.88l4.12-3.88h1.08l-4.16 3.88 4.48 4.28h-1.16l-3.92-3.74-.44.42V49h-.8v-8.16Zm14.14 1.42v-1.42h.8V49h-.8v-1.46c-.734 1.12-1.794 1.68-3.18 1.68-1.107 0-2.047-.393-2.82-1.18-.774-.787-1.16-1.827-1.16-3.12 0-1.267.366-2.293 1.1-3.08.733-.787 1.693-1.18 2.88-1.18 1.36 0 2.42.533 3.18 1.6Zm-3.14-.84c-.867 0-1.614.313-2.24.94-.627.613-.94 1.447-.94 2.5 0 .973.286 1.82.86 2.54.573.707 1.353 1.06 2.34 1.06.973 0 1.74-.347 2.3-1.04.573-.707.86-1.56.86-2.56 0-1.107-.327-1.953-.98-2.54-.654-.6-1.387-.9-2.2-.9Z" fill="#000"/><path d="m176.16 39 6.08-10.4h-5.56v-2.94h10.94L179.98 39h-3.82Zm7.644 2.98 2.5-6.32h3l-3.44 6.32h-2.06Zm9.061-7.54h3.54c.026.56.206 1.007.54 1.34.32.347.773.52 1.36.52.546 0 1-.193 1.36-.58.266-.307.4-.673.4-1.1 0-.493-.174-.887-.52-1.18-.307-.253-.734-.38-1.28-.38-.227 0-.42.027-.58.08V30.8c.586.08 1.06-.033 1.42-.34.293-.253.44-.567.44-.94 0-.4-.12-.72-.36-.96s-.567-.36-.98-.36c-.414 0-.734.113-.96.34-.307.28-.46.673-.46 1.18h-3.22c.066-1.24.5-2.26 1.3-3.06.826-.867 2-1.3 3.52-1.3 1.413 0 2.52.393 3.32 1.18.72.72 1.08 1.58 1.08 2.58 0 .613-.134 1.16-.4 1.64-.254.467-.594.807-1.02 1.02.653.24 1.18.647 1.58 1.22.373.547.56 1.2.56 1.96 0 1.16-.394 2.133-1.18 2.92-.947.947-2.274 1.42-3.98 1.42-1.56 0-2.834-.46-3.82-1.38-.974-.893-1.527-2.053-1.66-3.48Zm15.712-2.38c-1.173 0-2.1-.353-2.78-1.06-.56-.6-.84-1.32-.84-2.16 0-.92.273-1.673.82-2.26.627-.707 1.56-1.06 2.8-1.06 1.213 0 2.16.353 2.84 1.06.56.587.84 1.32.84 2.2 0 .88-.287 1.62-.86 2.22-.68.707-1.62 1.06-2.82 1.06Zm-.06 6.94 7.72-13.34h1.74L210.237 39h-1.72Zm.1-11.72c-.453 0-.82.153-1.1.46-.267.293-.4.64-.4 1.04 0 .453.173.833.52 1.14.267.24.593.36.98.36.4 0 .753-.14 1.06-.42a1.47 1.47 0 0 0 .44-1.08c0-.44-.16-.813-.48-1.12-.267-.253-.607-.38-1.02-.38Zm9.28 7.1c-.453 0-.82.153-1.1.46-.267.293-.4.64-.4 1.04 0 .453.173.833.52 1.14.267.24.593.36.98.36.4 0 .753-.14 1.06-.42a1.47 1.47 0 0 0 .44-1.08c0-.453-.16-.827-.48-1.12-.267-.253-.607-.38-1.02-.38Zm-.04 4.78c-1.173 0-2.1-.353-2.78-1.06-.56-.6-.84-1.32-.84-2.16 0-.92.273-1.673.82-2.26.627-.707 1.56-1.06 2.8-1.06 1.213 0 2.16.353 2.84 1.06.56.587.84 1.32.84 2.2 0 .88-.287 1.62-.86 2.22-.68.707-1.62 1.06-2.82 1.06Z" fill="#4FAA6E"/><path d="M234.015 32.08a3.129 3.129 0 0 1 1.6 1.32c.387.613.58 1.3.58 2.06 0 1.133-.373 2.047-1.12 2.74-.746.68-1.66 1.02-2.74 1.02-1.08 0-1.993-.34-2.74-1.02-.746-.693-1.12-1.607-1.12-2.74 0-.76.187-1.447.56-2.06a3.237 3.237 0 0 1 1.62-1.32c-1.24-.653-1.86-1.68-1.86-3.08 0-1 .34-1.833 1.02-2.5.68-.68 1.52-1.02 2.52-1.02s1.84.34 2.52 1.02c.68.667 1.02 1.5 1.02 2.5 0 1.4-.62 2.427-1.86 3.08Zm-3.54-1.14c.52.507 1.14.76 1.86.76.72 0 1.334-.253 1.84-.76.52-.52.78-1.167.78-1.94 0-.787-.253-1.433-.76-1.94a2.495 2.495 0 0 0-1.86-.78c-.733 0-1.353.26-1.86.78-.506.507-.76 1.153-.76 1.94 0 .773.254 1.42.76 1.94Zm-.28 6.64c.547.56 1.26.84 2.14.84.88 0 1.587-.28 2.12-.84.547-.573.82-1.28.82-2.12 0-.88-.273-1.6-.82-2.16-.546-.56-1.253-.84-2.12-.84-.866 0-1.573.28-2.12.84-.546.56-.82 1.28-.82 2.16 0 .84.267 1.547.8 2.12Zm8.378 4.16 1.2-4.04.8.24-1.48 4-.52-.2Zm5.31-5.98h.88c.027.52.174.993.44 1.42.254.36.6.66 1.04.9.44.227.88.34 1.32.34.814 0 1.514-.307 2.1-.92.6-.613.9-1.34.9-2.18 0-1.093-.42-1.907-1.26-2.44-.413-.267-.98-.4-1.7-.4v-.8c.72 0 1.32-.207 1.8-.62.654-.547.98-1.273.98-2.18 0-.747-.226-1.367-.68-1.86-.453-.493-1.08-.74-1.88-.74-.826 0-1.466.26-1.92.78-.426.467-.653 1.06-.68 1.78h-.84c.014-.947.34-1.747.98-2.4.627-.64 1.447-.96 2.46-.96 1.067 0 1.914.32 2.54.96.627.64.94 1.433.94 2.38 0 .667-.166 1.3-.5 1.9-.333.587-.866 1.027-1.6 1.32.707.227 1.26.633 1.66 1.22.414.587.62 1.267.62 2.04 0 1.107-.38 2.04-1.14 2.8-.76.747-1.686 1.12-2.78 1.12a3.884 3.884 0 0 1-1.82-.46 3.465 3.465 0 0 1-1.38-1.28 3.218 3.218 0 0 1-.48-1.72Zm10.857-9.48c.494-.493 1.147-.74 1.96-.74.814 0 1.467.247 1.96.74.494.493.74 1.12.74 1.88 0 .76-.246 1.387-.74 1.88-.493.493-1.146.74-1.96.74-.813 0-1.466-.247-1.96-.74-.493-.493-.74-1.12-.74-1.88 0-.76.247-1.387.74-1.88Zm.56 3.2c.334.387.8.58 1.4.58.6 0 1.067-.193 1.4-.58.334-.387.5-.827.5-1.32 0-.493-.166-.933-.5-1.32-.333-.387-.8-.58-1.4-.58-.6 0-1.066.193-1.4.58-.333.387-.5.827-.5 1.32 0 .493.167.933.5 1.32Zm-.14 9.5 7.88-13.62.6.32-7.88 13.62-.6-.32Zm4.98-4.36c.494-.493 1.147-.74 1.96-.74.814 0 1.467.247 1.96.74.494.493.74 1.12.74 1.88 0 .76-.246 1.387-.74 1.88-.493.493-1.146.74-1.96.74-.813 0-1.466-.247-1.96-.74-.493-.493-.74-1.12-.74-1.88 0-.76.247-1.387.74-1.88Zm.56 3.2c.334.387.8.58 1.4.58.6 0 1.067-.193 1.4-.58.334-.387.5-.827.5-1.32 0-.493-.166-.933-.5-1.32-.333-.387-.8-.58-1.4-.58-.6 0-1.066.193-1.4.58-.333.387-.5.827-.5 1.32 0 .493.167.933.5 1.32Z" fill="#000"/><path d="M226.855 34h38.625v1h-38.625v-1ZM23.2 79.66v.8h-5.52v4.84h5.4v.8h-5.4v6.1h5.52v.8h-6.4V79.66h6.4Zm6.277 5.18h.8v3.88l3.68-3.88h1.04l-3.8 3.92 4.12 4.24h-1.08l-3.56-3.72-.4.4V93h-.8v-3.32l-.4-.4-3.56 3.72h-1.08l4.12-4.24-3.8-3.92h1.04l3.68 3.88v-3.88Zm14.517 4.18h-6.98c0 1.013.313 1.84.94 2.48.64.64 1.407.96 2.3.96.64 0 1.207-.167 1.7-.5.493-.347.873-.8 1.14-1.36l.68.4c-.307.587-.753 1.107-1.34 1.56-.587.44-1.333.66-2.24.66-1.24 0-2.22-.4-2.94-1.2-.72-.813-1.08-1.833-1.08-3.06 0-1.347.387-2.4 1.16-3.16.787-.76 1.72-1.14 2.8-1.14 1.107 0 2.027.407 2.76 1.22.733.813 1.1 1.86 1.1 3.14Zm-6.92-.76h6.08c-.107-.827-.44-1.507-1-2.04-.547-.533-1.22-.8-2.02-.8-.813 0-1.5.273-2.06.82-.56.533-.893 1.207-1 2.02ZM45.402 93l1.92-8.66 3.26 7.36 3.26-7.36 1.92 8.66h-.84l-1.32-6.38-3.02 6.88-3.02-6.88-1.32 6.38h-.84Zm19.588-3.98h-6.98c0 1.013.313 1.84.94 2.48.64.64 1.407.96 2.3.96.64 0 1.207-.167 1.7-.5.493-.347.873-.8 1.14-1.36l.68.4c-.307.587-.753 1.107-1.34 1.56-.587.44-1.333.66-2.24.66-1.24 0-2.22-.4-2.94-1.2-.72-.813-1.08-1.833-1.08-3.06 0-1.347.387-2.4 1.16-3.16.787-.76 1.72-1.14 2.8-1.14 1.107 0 2.027.407 2.76 1.22.733.813 1.1 1.86 1.1 3.14Zm-6.92-.76h6.08c-.107-.827-.44-1.507-1-2.04-.547-.533-1.22-.8-2.02-.8-.813 0-1.5.273-2.06.82-.56.533-.893 1.207-1 2.02Zm15.828-2.56v1.06c-.773-.893-1.713-1.34-2.82-1.34-.987 0-1.8.34-2.44 1.02-.64.667-.96 1.507-.96 2.52 0 1.093.34 1.953 1.02 2.58.68.613 1.46.92 2.34.92 1.08 0 2.067-.487 2.96-1.46v1.08c-.853.76-1.847 1.14-2.98 1.14-1.227 0-2.233-.4-3.02-1.2-.773-.813-1.16-1.827-1.16-3.04 0-1.24.387-2.267 1.16-3.08.773-.827 1.8-1.24 3.08-1.24 1.053 0 1.993.347 2.82 1.04Zm1.428 7.3 2.6-3.56c-.627-.027-1.16-.227-1.6-.6-.454-.4-.68-.94-.68-1.62 0-.787.246-1.387.74-1.8.44-.387 1.086-.58 1.94-.58h2.72V93h-.8v-3.52h-1.4L76.286 93h-.96Zm4.92-4.28V85.6h-1.92c-.56 0-.994.12-1.3.36-.36.307-.54.72-.54 1.24 0 .507.173.893.52 1.16.32.24.76.36 1.32.36h1.92ZM88.48 93v-3.38c-.88.133-1.594.2-2.14.2-.867 0-1.507-.147-1.92-.44-.494-.36-.74-1.053-.74-2.08v-2.46h.8v2.46c0 .747.18 1.247.54 1.5.253.173.66.26 1.22.26.626 0 1.373-.067 2.24-.2v-4.02h.8V93h-.8Zm3.682 0v-8.16h.8v3.6h4.6v-3.6h.8V93h-.8v-3.8h-4.6V93h-.8Zm9.082-8.16h.8v3.4h1.94c.933 0 1.626.253 2.08.76.386.427.58.967.58 1.62 0 .733-.24 1.32-.72 1.76-.44.413-1.094.62-1.96.62h-2.72v-8.16Zm.8 7.4h1.92c.56 0 .986-.127 1.28-.38.373-.307.56-.72.56-1.24 0-.547-.194-.967-.58-1.26-.32-.24-.754-.36-1.3-.36h-1.88v3.24Zm5.52-7.4h.8V93h-.8v-8.16Zm3.68 0h.8v6.54l5.8-7V93h-.8v-6.5l-5.8 7v-8.66Zm.92-3.3.68-.34c.106.413.326.76.66 1.04.346.28.766.42 1.26.42.493 0 .906-.14 1.24-.42.346-.28.573-.627.68-1.04l.68.34c-.4 1.253-1.267 1.88-2.6 1.88-1.334 0-2.2-.627-2.6-1.88ZM16.44 113v-8.16h6.08V113h-.8v-7.4h-4.48v7.4h-.8Zm14.685-8.16V113h-.8v-7.4h-3.76v4.72c0 .893-.16 1.553-.48 1.98-.36.493-.88.74-1.56.74-.08 0-.213-.013-.4-.04v-.76c.133.027.233.04.3.04.453 0 .806-.18 1.06-.54.187-.293.28-.767.28-1.42v-5.48h5.36Zm9.514 1.42v-1.42h.8V113h-.8v-1.46c-.734 1.12-1.794 1.68-3.18 1.68-1.107 0-2.047-.393-2.82-1.18-.774-.787-1.16-1.827-1.16-3.12 0-1.267.366-2.293 1.1-3.08.733-.787 1.693-1.18 2.88-1.18 1.36 0 2.42.533 3.18 1.6Zm-3.14-.84c-.867 0-1.614.313-2.24.94-.627.613-.94 1.447-.94 2.5 0 .973.286 1.82.86 2.54.573.707 1.353 1.06 2.34 1.06.973 0 1.74-.347 2.3-1.04.573-.707.86-1.56.86-2.56 0-1.107-.327-1.953-.98-2.54-.654-.6-1.387-.9-2.2-.9ZM45.87 113v-7.4h-2.84v-.76h6.48v.76h-2.84v7.4h-.8Zm12.107-3.98h-6.98c0 1.013.314 1.84.94 2.48.64.64 1.407.96 2.3.96.64 0 1.207-.167 1.7-.5.494-.347.874-.8 1.14-1.36l.68.4c-.306.587-.753 1.107-1.34 1.56-.586.44-1.333.66-2.24.66-1.24 0-2.22-.4-2.94-1.2-.72-.813-1.08-1.833-1.08-3.06 0-1.347.387-2.4 1.16-3.16.787-.76 1.72-1.14 2.8-1.14 1.107 0 2.027.407 2.76 1.22.734.813 1.1 1.86 1.1 3.14Zm-6.92-.76h6.08c-.106-.827-.44-1.507-1-2.04-.546-.533-1.22-.8-2.02-.8-.813 0-1.5.273-2.06.82-.56.533-.893 1.207-1 2.02Zm13.048-3.42h.8v3.88l3.68-3.88h1.04l-3.8 3.92 4.12 4.24h-1.08l-3.56-3.72-.4.4V113h-.8v-3.32l-.4-.4-3.56 3.72h-1.08l4.12-4.24-3.8-3.92h1.04l3.68 3.88v-3.88ZM179.68 103V92.6h-1.9v-2.94h5.36V103h-3.46Zm12.634-10.12c-.307-.28-.66-.42-1.06-.42s-.753.14-1.06.42c-.347.293-.627.787-.84 1.48a6.67 6.67 0 0 0-.32 2c0 .6.1 1.253.3 1.96.213.693.5 1.2.86 1.52.307.28.66.42 1.06.42s.753-.14 1.06-.42c.347-.307.627-.8.84-1.48.213-.693.32-1.353.32-1.98s-.113-1.293-.34-2c-.213-.707-.487-1.207-.82-1.5Zm4.6 3.46c0 2.333-.66 4.147-1.98 5.44-1.027 1.013-2.253 1.52-3.68 1.52s-2.653-.507-3.68-1.52c-1.32-1.293-1.98-3.107-1.98-5.44 0-2.347.66-4.167 1.98-5.46 1.027-1.013 2.253-1.52 3.68-1.52s2.653.507 3.68 1.52c1.32 1.293 1.98 3.113 1.98 5.46Zm14.88-6.68v8.16h1.62v2.66h-1.62V103h-3.2v-2.52h-6.46v-2.22l5.14-8.6h4.52Zm-6.34 8.16h3.14v-5.44l-3.14 5.44Zm16.812-1.84c.667.2 1.24.54 1.72 1.02.68.667 1.02 1.453 1.02 2.36 0 .96-.36 1.8-1.08 2.52-.946.947-2.293 1.42-4.04 1.42-1.72 0-3.046-.467-3.98-1.4-.733-.733-1.1-1.58-1.1-2.54 0-.427.094-.86.28-1.3.187-.453.42-.82.7-1.1.44-.44 1-.767 1.68-.98-.48-.187-.88-.44-1.2-.76-.6-.6-.9-1.307-.9-2.12 0-.987.367-1.827 1.1-2.52.88-.813 2.067-1.22 3.56-1.22 1.467 0 2.614.427 3.44 1.28.654.653.98 1.467.98 2.44 0 .84-.273 1.533-.82 2.08-.36.36-.813.633-1.36.82Zm-2.32-4.3c-.453 0-.82.153-1.1.46-.266.293-.4.633-.4 1.02 0 .333.14.653.42.96.28.293.634.44 1.06.44.387 0 .714-.133.98-.4.307-.307.46-.647.46-1.02 0-.427-.153-.78-.46-1.06-.293-.267-.613-.4-.96-.4Zm-.04 5.7c-.413 0-.786.153-1.12.46-.32.32-.48.687-.48 1.1 0 .44.154.813.46 1.12.32.32.7.48 1.14.48.44 0 .814-.153 1.12-.46.32-.32.48-.7.48-1.14 0-.44-.16-.807-.48-1.1a1.567 1.567 0 0 0-1.12-.46Zm12.652 5.62h-3.92l3.78-4.5c-.52.28-1.113.42-1.78.42-1.213 0-2.233-.407-3.06-1.22-.893-.88-1.34-1.953-1.34-3.22 0-1.36.447-2.507 1.34-3.44 1.094-1.12 2.554-1.68 4.38-1.68 1.8 0 3.227.527 4.28 1.58.88.907 1.32 2.007 1.32 3.3 0 1.52-.673 3.153-2.02 4.9l-2.98 3.86Zm-.56-10.9a2.1 2.1 0 0 0-1.54.64c-.44.44-.66.947-.66 1.52 0 .56.214 1.04.64 1.44.427.4.947.6 1.56.6.587 0 1.087-.187 1.5-.56.467-.413.7-.92.7-1.52 0-.56-.213-1.053-.64-1.48-.453-.427-.973-.64-1.56-.64Zm12.281-2.44h5.52c1.466 0 2.606.38 3.42 1.14.8.733 1.2 1.753 1.2 3.06 0 1.36-.394 2.4-1.18 3.12-.814.747-1.92 1.12-3.32 1.12h-2.18v1.12h3.72v2.08h-3.72v1.7h-3.46v-1.7h-1.64v-2.08h1.64V98.1h-1.64v-2.4h1.64v-6.04Zm3.46 2.8v3.24h1.16c.666 0 1.153-.14 1.46-.42.293-.267.44-.673.44-1.22 0-.48-.134-.853-.4-1.12-.32-.32-.814-.48-1.48-.48h-1.18ZM27.48 155.22v1.16a5.9 5.9 0 0 0-2.04-1.54 5.591 5.591 0 0 0-2.46-.56c-1.693 0-3.113.593-4.26 1.78-1.147 1.187-1.72 2.633-1.72 4.34 0 .947.18 1.813.54 2.6.373.787.853 1.427 1.44 1.92.6.48 1.247.853 1.94 1.12.693.253 1.387.38 2.08.38.747 0 1.52-.16 2.32-.48.8-.333 1.52-.847 2.16-1.54v1.16c-1.253 1.107-2.733 1.66-4.44 1.66-1.973 0-3.627-.673-4.96-2.02-1.333-1.347-2-2.96-2-4.84 0-1.92.673-3.547 2.02-4.88 1.347-1.333 2.98-2 4.9-2 1.76 0 3.253.58 4.48 1.74Zm3.195 16.38 1.92-4.46-3.88-8.3h.92l3.42 7.26 2.98-7.26h.92l-5.36 12.76h-.92Zm6.914-4.6 1.92-8.66 3.26 7.36 3.26-7.36 1.92 8.66h-.84l-1.32-6.38-3.02 6.88-3.02-6.88-1.32 6.38h-.84Zm11.328 0 1.92-8.66 3.26 7.36 3.26-7.36 1.92 8.66h-.84l-1.32-6.38-3.02 6.88-3.02-6.88-1.32 6.38h-.84Zm18.929-6.74v-1.42h.8V167h-.8v-1.46c-.734 1.12-1.794 1.68-3.18 1.68-1.107 0-2.047-.393-2.82-1.18-.774-.787-1.16-1.827-1.16-3.12 0-1.267.366-2.293 1.1-3.08.733-.787 1.693-1.18 2.88-1.18 1.36 0 2.42.533 3.18 1.6Zm-3.14-.84c-.867 0-1.614.313-2.24.94-.627.613-.94 1.447-.94 2.5 0 .973.286 1.82.86 2.54.573.707 1.353 1.06 2.34 1.06.973 0 1.74-.347 2.3-1.04.573-.707.86-1.56.86-2.56 0-1.107-.327-1.953-.98-2.54-.654-.6-1.387-.9-2.2-.9Zm11.48-.58h.8v3.88l4.12-3.88h1.08l-4.16 3.88 4.48 4.28h-1.16l-3.92-3.74-.44.42V167h-.8v-8.16Zm8.534 6.7v6.06h-.8v-12.76h.8v1.42c.787-1.067 1.854-1.6 3.2-1.6 1.2 0 2.16.4 2.88 1.2.72.787 1.08 1.787 1.08 3 0 1.24-.366 2.28-1.1 3.12-.72.827-1.686 1.24-2.9 1.24-.613 0-1.166-.12-1.66-.36-.493-.253-.833-.48-1.02-.68a4.997 4.997 0 0 1-.48-.64Zm.8-.1c.56.68 1.34 1.02 2.34 1.02 1 0 1.78-.34 2.34-1.02.56-.68.84-1.54.84-2.58 0-1.08-.306-1.92-.92-2.52-.613-.613-1.36-.92-2.24-.92-.866 0-1.62.3-2.26.9-.626.6-.94 1.433-.94 2.5 0 1.053.28 1.927.84 2.62Zm16.013-2.42h-6.98c0 1.013.313 1.84.94 2.48.64.64 1.407.96 2.3.96.64 0 1.207-.167 1.7-.5.493-.347.873-.8 1.14-1.36l.68.4c-.307.587-.753 1.107-1.34 1.56-.587.44-1.333.66-2.24.66-1.24 0-2.22-.4-2.94-1.2-.72-.813-1.08-1.833-1.08-3.06 0-1.347.387-2.4 1.16-3.16.787-.76 1.72-1.14 2.8-1.14 1.107 0 2.027.407 2.76 1.22.733.813 1.1 1.86 1.1 3.14Zm-6.92-.76h6.08c-.107-.827-.44-1.507-1-2.04-.547-.533-1.22-.8-2.02-.8-.813 0-1.5.273-2.06.82-.56.533-.893 1.207-1 2.02Zm9.848-3.42h5.36v7.4h1.2v2.96h-.76V167h-6.88v2.2h-.76v-2.96c.667-.04 1.167-.4 1.5-1.08.227-.467.34-1.2.34-2.2v-4.12Zm4.56 7.4v-6.64h-3.76v3.6c0 1.44-.347 2.453-1.04 3.04h4.8Zm3.689-7.4h.8v6.54l5.8-7V167h-.8v-6.5l-5.8 7v-8.66Zm11.032 8.16v-7.4h-2.84v-.76h6.48v.76h-2.84v7.4h-.8Zm11.447-6.74v-1.42h.8V167h-.8v-1.46c-.733 1.12-1.793 1.68-3.18 1.68-1.106 0-2.046-.393-2.82-1.18-.773-.787-1.16-1.827-1.16-3.12 0-1.267.367-2.293 1.1-3.08.734-.787 1.694-1.18 2.88-1.18 1.36 0 2.42.533 3.18 1.6Zm-3.14-.84c-.866 0-1.613.313-2.24.94-.626.613-.94 1.447-.94 2.5 0 .973.287 1.82.86 2.54.574.707 1.354 1.06 2.34 1.06.974 0 1.74-.347 2.3-1.04.574-.707.86-1.56.86-2.56 0-1.107-.326-1.953-.98-2.54-.653-.6-1.386-.9-2.2-.9ZM180.44 167v-12.54h-2.08l.4-.8h2.56V167h-.88Zm19.585-13.34v.8h-4.48l-1.12 3.6c.32-.08.62-.12.9-.12 1.4 0 2.52.433 3.36 1.3.853.867 1.28 1.973 1.28 3.32 0 1.4-.46 2.527-1.38 3.38-.907.853-2.027 1.28-3.36 1.28-1.813 0-3.147-.733-4-2.2l.78-.32c.773 1.147 1.853 1.72 3.24 1.72 1.107 0 2.013-.36 2.72-1.08.72-.72 1.08-1.64 1.08-2.76 0-1.133-.353-2.053-1.06-2.76-.693-.72-1.593-1.08-2.7-1.08-.76 0-1.453.193-2.08.58l1.72-5.66h5.1Zm2.315 10.1h.88c.027.52.174.993.44 1.42.254.36.6.66 1.04.9.44.227.88.34 1.32.34.814 0 1.514-.307 2.1-.92.6-.613.9-1.34.9-2.18 0-1.093-.42-1.907-1.26-2.44-.413-.267-.98-.4-1.7-.4v-.8c.72 0 1.32-.207 1.8-.62.654-.547.98-1.273.98-2.18 0-.747-.226-1.367-.68-1.86-.453-.493-1.08-.74-1.88-.74-.826 0-1.466.26-1.92.78-.426.467-.653 1.06-.68 1.78h-.84c.014-.947.34-1.747.98-2.4.627-.64 1.447-.96 2.46-.96 1.067 0 1.914.32 2.54.96.627.64.94 1.433.94 2.38 0 .667-.166 1.3-.5 1.9-.333.587-.866 1.027-1.6 1.32.707.227 1.26.633 1.66 1.22.414.587.62 1.267.62 2.04 0 1.107-.38 2.04-1.14 2.8-.76.747-1.686 1.12-2.78 1.12a3.88 3.88 0 0 1-1.82-.46 3.465 3.465 0 0 1-1.38-1.28 3.217 3.217 0 0 1-.48-1.72Zm11.777-8.66c.894-1.08 1.94-1.62 3.14-1.62 1.2 0 2.247.54 3.14 1.62 1.134 1.347 1.7 3.093 1.7 5.24 0 2.147-.566 3.893-1.7 5.24-.92 1.093-1.966 1.64-3.14 1.64-1.173 0-2.22-.547-3.14-1.64-1.133-1.347-1.7-3.093-1.7-5.24 0-2.147.567-3.893 1.7-5.24Zm.66 9.96c.734.907 1.56 1.36 2.48 1.36.92 0 1.747-.453 2.48-1.36.96-1.187 1.44-2.76 1.44-4.72s-.48-3.533-1.44-4.72c-.72-.893-1.546-1.34-2.48-1.34-.933 0-1.76.447-2.48 1.34-.96 1.187-1.44 2.76-1.44 4.72s.48 3.533 1.44 4.72Zm14.965-9.96c.894-1.08 1.94-1.62 3.14-1.62 1.2 0 2.247.54 3.14 1.62 1.134 1.347 1.7 3.093 1.7 5.24 0 2.147-.566 3.893-1.7 5.24-.92 1.093-1.966 1.64-3.14 1.64-1.173 0-2.22-.547-3.14-1.64-1.133-1.347-1.7-3.093-1.7-5.24 0-2.147.567-3.893 1.7-5.24Zm.66 9.96c.734.907 1.56 1.36 2.48 1.36.92 0 1.747-.453 2.48-1.36.96-1.187 1.44-2.76 1.44-4.72s-.48-3.533-1.44-4.72c-.72-.893-1.546-1.34-2.48-1.34-.933 0-1.76.447-2.48 1.34-.96 1.187-1.44 2.76-1.44 4.72s.48 3.533 1.44 4.72Zm10.297-9.96c.894-1.08 1.94-1.62 3.14-1.62 1.2 0 2.247.54 3.14 1.62 1.134 1.347 1.7 3.093 1.7 5.24 0 2.147-.566 3.893-1.7 5.24-.92 1.093-1.966 1.64-3.14 1.64-1.173 0-2.22-.547-3.14-1.64-1.133-1.347-1.7-3.093-1.7-5.24 0-2.147.567-3.893 1.7-5.24Zm.66 9.96c.734.907 1.56 1.36 2.48 1.36.92 0 1.747-.453 2.48-1.36.96-1.187 1.44-2.76 1.44-4.72s-.48-3.533-1.44-4.72c-.72-.893-1.546-1.34-2.48-1.34-.933 0-1.76.447-2.48 1.34-.96 1.187-1.44 2.76-1.44 4.72s.48 3.533 1.44 4.72Zm10.297-9.96c.894-1.08 1.94-1.62 3.14-1.62 1.2 0 2.247.54 3.14 1.62 1.134 1.347 1.7 3.093 1.7 5.24 0 2.147-.566 3.893-1.7 5.24-.92 1.093-1.966 1.64-3.14 1.64-1.173 0-2.22-.547-3.14-1.64-1.133-1.347-1.7-3.093-1.7-5.24 0-2.147.567-3.893 1.7-5.24Zm.66 9.96c.734.907 1.56 1.36 2.48 1.36.92 0 1.747-.453 2.48-1.36.96-1.187 1.44-2.76 1.44-4.72s-.48-3.533-1.44-4.72c-.72-.893-1.546-1.34-2.48-1.34-.933 0-1.76.447-2.48 1.34-.96 1.187-1.44 2.76-1.44 4.72s.48 3.533 1.44 4.72Zm15.465-5.2v-6.2h2.58c1.294 0 2.287.36 2.98 1.08.614.64.92 1.44.92 2.4 0 1.013-.313 1.833-.94 2.46-.68.707-1.66 1.06-2.94 1.06h-1.72v1.8h3.34v.8h-3.34V167h-.88v-3.74h-1.5v-.8h1.5v-1.8h-1.5v-.8h1.5Zm.88-5.4v5.4h1.76c.907 0 1.634-.26 2.18-.78.494-.48.74-1.12.74-1.92 0-.827-.26-1.48-.78-1.96-.533-.493-1.293-.74-2.28-.74h-1.62ZM16.8 207.66h9.84V221h-.88v-12.54h-8.08V221h-.88v-13.34Zm20.378 9.36h-6.98c0 1.013.313 1.84.94 2.48.64.64 1.406.96 2.3.96.64 0 1.206-.167 1.7-.5.493-.347.873-.8 1.14-1.36l.68.4c-.307.587-.754 1.107-1.34 1.56-.587.44-1.334.66-2.24.66-1.24 0-2.22-.4-2.94-1.2-.72-.813-1.08-1.833-1.08-3.06 0-1.347.386-2.4 1.16-3.16.786-.76 1.72-1.14 2.8-1.14 1.106 0 2.026.407 2.76 1.22.733.813 1.1 1.86 1.1 3.14Zm-6.92-.76h6.08c-.107-.827-.44-1.507-1-2.04-.547-.533-1.22-.8-2.02-.8-.814 0-1.5.273-2.06.82-.56.533-.894 1.207-1 2.02Zm10.088 3.28v6.06h-.8v-12.76h.8v1.42c.786-1.067 1.853-1.6 3.2-1.6 1.2 0 2.16.4 2.88 1.2.72.787 1.08 1.787 1.08 3 0 1.24-.367 2.28-1.1 3.12-.72.827-1.687 1.24-2.9 1.24-.614 0-1.167-.12-1.66-.36-.494-.253-.834-.48-1.02-.68a4.997 4.997 0 0 1-.48-.64Zm.8-.1c.56.68 1.34 1.02 2.34 1.02 1 0 1.78-.34 2.34-1.02.56-.68.84-1.54.84-2.58 0-1.08-.307-1.92-.92-2.52-.614-.613-1.36-.92-2.24-.92-.867 0-1.62.3-2.26.9-.627.6-.94 1.433-.94 2.5 0 1.053.28 1.927.84 2.62Zm8.712-6.6h2.66c.76 0 1.34.16 1.74.48.48.387.72.907.72 1.56 0 .747-.3 1.313-.9 1.7.373.053.707.207 1 .46.467.413.7.96.7 1.64 0 .76-.273 1.347-.82 1.76-.48.373-1.147.56-2 .56h-3.1v-8.16Zm.8 3.56h1.86c.493 0 .88-.113 1.16-.34.333-.267.5-.627.5-1.08 0-.44-.167-.793-.5-1.06-.267-.213-.653-.32-1.16-.32h-1.86v2.8Zm0 3.84h2.3c.613 0 1.08-.12 1.4-.36.387-.293.58-.7.58-1.22 0-.48-.18-.86-.54-1.14-.32-.24-.8-.36-1.44-.36h-2.3v3.08Zm8.181-6.34c.827-.827 1.847-1.24 3.06-1.24 1.214 0 2.227.413 3.04 1.24.827.813 1.24 1.827 1.24 3.04s-.413 2.233-1.24 3.06c-.813.813-1.826 1.22-3.04 1.22-1.213 0-2.233-.407-3.06-1.22-.813-.827-1.22-1.847-1.22-3.06s.407-2.227 1.22-3.04Zm.6 5.54c.667.68 1.487 1.02 2.46 1.02.974 0 1.787-.34 2.44-1.02.667-.68 1-1.513 1-2.5 0-.987-.333-1.82-1-2.5-.653-.68-1.466-1.02-2.44-1.02-.973 0-1.793.34-2.46 1.02-.653.68-.98 1.513-.98 2.5 0 .987.327 1.82.98 2.5Zm9.09 1.56v-8.16h.8v3.6h4.6v-3.6h.8V221h-.8v-3.8h-4.6v3.8h-.8Zm15.723-6.74v-1.42h.8V221h-.8v-1.46c-.733 1.12-1.793 1.68-3.18 1.68-1.107 0-2.047-.393-2.82-1.18-.773-.787-1.16-1.827-1.16-3.12 0-1.267.367-2.293 1.1-3.08.733-.787 1.693-1.18 2.88-1.18 1.36 0 2.42.533 3.18 1.6Zm-3.14-.84c-.867 0-1.613.313-2.24.94-.627.613-.94 1.447-.94 2.5 0 .973.287 1.82.86 2.54.573.707 1.353 1.06 2.34 1.06.973 0 1.74-.347 2.3-1.04.573-.707.86-1.56.86-2.56 0-1.107-.327-1.953-.98-2.54-.653-.6-1.387-.9-2.2-.9ZM92.484 221v-3.38c-.88.133-1.593.2-2.14.2-.866 0-1.506-.147-1.92-.44-.493-.36-.74-1.053-.74-2.08v-2.46h.8v2.46c0 .747.18 1.247.54 1.5.254.173.66.26 1.22.26.627 0 1.374-.067 2.24-.2v-4.02h.8V221h-.8Zm10.323-6.74v-1.42h.8V221h-.8v-1.46c-.734 1.12-1.794 1.68-3.18 1.68-1.107 0-2.047-.393-2.82-1.18-.774-.787-1.16-1.827-1.16-3.12 0-1.267.366-2.293 1.1-3.08.733-.787 1.693-1.18 2.88-1.18 1.36 0 2.42.533 3.18 1.6Zm-3.14-.84c-.867 0-1.614.313-2.24.94-.627.613-.94 1.447-.94 2.5 0 .973.286 1.82.86 2.54.573.707 1.353 1.06 2.34 1.06.973 0 1.74-.347 2.3-1.04.573-.707.86-1.56.86-2.56 0-1.107-.327-1.953-.98-2.54-.654-.6-1.387-.9-2.2-.9Zm12.532-.58V221h-.8v-7.4h-3.76v4.72c0 .893-.16 1.553-.48 1.98-.36.493-.88.74-1.56.74-.08 0-.213-.013-.4-.04v-.76c.133.027.233.04.3.04.453 0 .807-.18 1.06-.54.187-.293.28-.767.28-1.42v-5.48h5.36Zm2.874 0h.8v3.4h1.94c.933 0 1.626.253 2.08.76.386.427.58.967.58 1.62 0 .733-.24 1.32-.72 1.76-.44.413-1.094.62-1.96.62h-2.72v-8.16Zm.8 7.4h1.92c.56 0 .986-.127 1.28-.38.373-.307.56-.72.56-1.24 0-.547-.194-.967-.58-1.26-.32-.24-.754-.36-1.3-.36h-1.88v3.24Zm6.368.76v-8.16h.8v3.6h4.6v-3.6h.8V221h-.8v-3.8h-4.6v3.8h-.8Zm9.082-8.16h.8v3.4h1.94c.933 0 1.626.253 2.08.76.386.427.58.967.58 1.62 0 .733-.24 1.32-.72 1.76-.44.413-1.094.62-1.96.62h-2.72v-8.16Zm.8 7.4h1.92c.56 0 .986-.127 1.28-.38.373-.307.56-.72.56-1.24 0-.547-.194-.967-.58-1.26-.32-.24-.754-.36-1.3-.36h-1.88v3.24Zm5.52-7.4h.8V221h-.8v-8.16Zm3.68 0h.8v6.54l5.8-7V221h-.8v-6.5l-5.8 7v-8.66Zm.92-3.3.68-.34c.106.413.326.76.66 1.04.346.28.766.42 1.26.42.493 0 .906-.14 1.24-.42.346-.28.573-.627.68-1.04l.68.34c-.4 1.253-1.267 1.88-2.6 1.88-1.334 0-2.2-.627-2.6-1.88ZM16.44 232.84h2.66c.76 0 1.34.16 1.74.48.48.387.72.907.72 1.56 0 .747-.3 1.313-.9 1.7.373.053.707.207 1 .46.467.413.7.96.7 1.64 0 .76-.273 1.347-.82 1.76-.48.373-1.147.56-2 .56h-3.1v-8.16Zm.8 3.56h1.86c.493 0 .88-.113 1.16-.34.333-.267.5-.627.5-1.08 0-.44-.167-.793-.5-1.06-.267-.213-.653-.32-1.16-.32h-1.86v2.8Zm0 3.84h2.3c.613 0 1.08-.12 1.4-.36.387-.293.58-.7.58-1.22 0-.48-.18-.86-.54-1.14-.32-.24-.8-.36-1.44-.36h-2.3v3.08Zm7.712-5.68-.66-.46c.56-.96 1.42-1.44 2.58-1.44.786 0 1.386.193 1.8.58.44.387.66.913.66 1.58 0 .8-.314 1.367-.94 1.7.36.08.68.26.96.54.386.387.58.907.58 1.56 0 .84-.32 1.507-.96 2-.534.4-1.227.6-2.08.6-.88 0-1.594-.207-2.14-.62-.44-.36-.767-.753-.98-1.18l.72-.46c.2.44.486.787.86 1.04.413.307.926.46 1.54.46.68 0 1.2-.153 1.56-.46.426-.347.64-.813.64-1.4 0-.52-.187-.92-.56-1.2-.32-.24-.82-.36-1.5-.36h-.84v-.76h.62c.52 0 .926-.113 1.22-.34.333-.267.5-.613.5-1.04 0-.427-.14-.78-.42-1.06-.307-.28-.727-.42-1.26-.42-.854 0-1.487.38-1.9 1.14Zm7.347 6.44v-8.16h.8v3.6h4.6v-3.6h.8V241h-.8v-3.8h-4.6v3.8h-.8Zm9.782-7.1c.827-.827 1.847-1.24 3.06-1.24 1.214 0 2.227.413 3.04 1.24.827.813 1.24 1.827 1.24 3.04s-.413 2.233-1.24 3.06c-.813.813-1.826 1.22-3.04 1.22-1.213 0-2.233-.407-3.06-1.22-.813-.827-1.22-1.847-1.22-3.06s.407-2.227 1.22-3.04Zm.6 5.54c.667.68 1.487 1.02 2.46 1.02.974 0 1.787-.34 2.44-1.02.667-.68 1-1.513 1-2.5 0-.987-.333-1.82-1-2.5-.653-.68-1.466-1.02-2.44-1.02-.973 0-1.793.34-2.46 1.02-.653.68-.98 1.513-.98 2.5 0 .987.327 1.82.98 2.5Zm15.631-5.74v1.06c-.773-.893-1.713-1.34-2.82-1.34-.987 0-1.8.34-2.44 1.02-.64.667-.96 1.507-.96 2.52 0 1.093.34 1.953 1.02 2.58.68.613 1.46.92 2.34.92 1.08 0 2.067-.487 2.96-1.46v1.08c-.853.76-1.847 1.14-2.98 1.14-1.227 0-2.233-.4-3.02-1.2-.773-.813-1.16-1.827-1.16-3.04 0-1.24.387-2.267 1.16-3.08.773-.827 1.8-1.24 3.08-1.24 1.053 0 1.993.347 2.82 1.04ZM184.42 231h-8.22l5.12-5.64c.707-.8 1.193-1.4 1.46-1.8.52-.8.78-1.56.78-2.28 0-.853-.293-1.567-.88-2.14-.573-.573-1.313-.86-2.22-.86-.96 0-1.727.327-2.3.98-.52.573-.78 1.3-.78 2.18h-.88c0-1.133.353-2.067 1.06-2.8.747-.773 1.733-1.16 2.96-1.16 1.147 0 2.093.367 2.84 1.1.747.72 1.12 1.62 1.12 2.7 0 .947-.32 1.86-.96 2.74-.307.427-.7.907-1.18 1.44l-4.28 4.74h6.36v.8Zm1.469-.28 8.64-12.26h-8.1v-.8h9.66l-9.54 13.56-.66-.5Zm11.353-11.62c.894-1.08 1.94-1.62 3.14-1.62 1.2 0 2.247.54 3.14 1.62 1.134 1.347 1.7 3.093 1.7 5.24 0 2.147-.566 3.893-1.7 5.24-.92 1.093-1.966 1.64-3.14 1.64-1.173 0-2.22-.547-3.14-1.64-1.133-1.347-1.7-3.093-1.7-5.24 0-2.147.567-3.893 1.7-5.24Zm.66 9.96c.734.907 1.56 1.36 2.48 1.36.92 0 1.747-.453 2.48-1.36.96-1.187 1.44-2.76 1.44-4.72s-.48-3.533-1.44-4.72c-.72-.893-1.546-1.34-2.48-1.34-.933 0-1.76.447-2.48 1.34-.96 1.187-1.44 2.76-1.44 4.72s.48 3.533 1.44 4.72Zm14.965-9.96c.894-1.08 1.94-1.62 3.14-1.62 1.2 0 2.247.54 3.14 1.62 1.134 1.347 1.7 3.093 1.7 5.24 0 2.147-.566 3.893-1.7 5.24-.92 1.093-1.966 1.64-3.14 1.64-1.173 0-2.22-.547-3.14-1.64-1.133-1.347-1.7-3.093-1.7-5.24 0-2.147.567-3.893 1.7-5.24Zm.66 9.96c.734.907 1.56 1.36 2.48 1.36.92 0 1.747-.453 2.48-1.36.96-1.187 1.44-2.76 1.44-4.72s-.48-3.533-1.44-4.72c-.72-.893-1.546-1.34-2.48-1.34-.933 0-1.76.447-2.48 1.34-.96 1.187-1.44 2.76-1.44 4.72s.48 3.533 1.44 4.72Zm10.297-9.96c.894-1.08 1.94-1.62 3.14-1.62 1.2 0 2.247.54 3.14 1.62 1.134 1.347 1.7 3.093 1.7 5.24 0 2.147-.566 3.893-1.7 5.24-.92 1.093-1.966 1.64-3.14 1.64-1.173 0-2.22-.547-3.14-1.64-1.133-1.347-1.7-3.093-1.7-5.24 0-2.147.567-3.893 1.7-5.24Zm.66 9.96c.734.907 1.56 1.36 2.48 1.36.92 0 1.747-.453 2.48-1.36.96-1.187 1.44-2.76 1.44-4.72s-.48-3.533-1.44-4.72c-.72-.893-1.546-1.34-2.48-1.34-.933 0-1.76.447-2.48 1.34-.96 1.187-1.44 2.76-1.44 4.72s.48 3.533 1.44 4.72Zm10.297-9.96c.894-1.08 1.94-1.62 3.14-1.62 1.2 0 2.247.54 3.14 1.62 1.134 1.347 1.7 3.093 1.7 5.24 0 2.147-.566 3.893-1.7 5.24-.92 1.093-1.966 1.64-3.14 1.64-1.173 0-2.22-.547-3.14-1.64-1.133-1.347-1.7-3.093-1.7-5.24 0-2.147.567-3.893 1.7-5.24Zm.66 9.96c.734.907 1.56 1.36 2.48 1.36.92 0 1.747-.453 2.48-1.36.96-1.187 1.44-2.76 1.44-4.72s-.48-3.533-1.44-4.72c-.72-.893-1.546-1.34-2.48-1.34-.933 0-1.76.447-2.48 1.34-.96 1.187-1.44 2.76-1.44 4.72s.48 3.533 1.44 4.72Zm15.465-5.2v-6.2h2.58c1.294 0 2.287.36 2.98 1.08.614.64.92 1.44.92 2.4 0 1.013-.313 1.833-.94 2.46-.68.707-1.66 1.06-2.94 1.06h-1.72v1.8h3.34v.8h-3.34V231h-.88v-3.74h-1.5v-.8h1.5v-1.8h-1.5v-.8h1.5Zm.88-5.4v5.4h1.76c.907 0 1.634-.26 2.18-.78.494-.48.74-1.12.74-1.92 0-.827-.26-1.48-.78-1.96-.533-.493-1.293-.74-2.28-.74h-1.62ZM17.68 271.66v5.66h8.08v-5.66h.88V285h-.88v-6.88h-8.08V285h-.88v-13.34h.88Zm19.498 9.36h-6.98c0 1.013.313 1.84.94 2.48.64.64 1.406.96 2.3.96.64 0 1.206-.167 1.7-.5.493-.347.873-.8 1.14-1.36l.68.4c-.307.587-.754 1.107-1.34 1.56-.587.44-1.334.66-2.24.66-1.24 0-2.22-.4-2.94-1.2-.72-.813-1.08-1.833-1.08-3.06 0-1.347.386-2.4 1.16-3.16.786-.76 1.72-1.14 2.8-1.14 1.106 0 2.026.407 2.76 1.22.733.813 1.1 1.86 1.1 3.14Zm-6.92-.76h6.08c-.107-.827-.44-1.507-1-2.04-.547-.533-1.22-.8-2.02-.8-.814 0-1.5.273-2.06.82-.56.533-.894 1.207-1 2.02Zm9.988-2.36c.826-.827 1.846-1.24 3.06-1.24 1.213 0 2.226.413 3.04 1.24.826.813 1.24 1.827 1.24 3.04s-.414 2.233-1.24 3.06c-.814.813-1.827 1.22-3.04 1.22-1.214 0-2.234-.407-3.06-1.22-.814-.827-1.22-1.847-1.22-3.06s.406-2.227 1.22-3.04Zm.6 5.54c.666.68 1.486 1.02 2.46 1.02.973 0 1.786-.34 2.44-1.02.666-.68 1-1.513 1-2.5 0-.987-.334-1.82-1-2.5-.654-.68-1.467-1.02-2.44-1.02-.974 0-1.794.34-2.46 1.02-.654.68-.98 1.513-.98 2.5 0 .987.326 1.82.98 2.5Zm9.39-4.66h.04c.307-.707.787-1.233 1.44-1.58.667-.36 1.38-.54 2.14-.54 1.24 0 2.233.393 2.98 1.18.76.787 1.14 1.813 1.14 3.08 0 1.307-.407 2.353-1.22 3.14-.813.773-1.84 1.16-3.08 1.16-1.173 0-2.127-.34-2.86-1.02-.933-.88-1.4-2.333-1.4-4.36 0-3.28.853-5.473 2.56-6.58.16-.107.333-.2.52-.28.187-.093.347-.167.48-.22.147-.053.34-.107.58-.16a4.03 4.03 0 0 1 .52-.12c.107-.027.293-.067.56-.12.28-.053.447-.087.5-.1.987-.213 1.587-.567 1.8-1.06h1a3 3 0 0 1-.56.86 2.53 2.53 0 0 1-.8.56 8.216 8.216 0 0 1-.78.3c-.2.053-.473.12-.82.2-1.32.267-2.273.633-2.86 1.1-.613.493-1.073 1.16-1.38 2a8.984 8.984 0 0 0-.5 2.56Zm3.44 5.68c1.147 0 2.007-.353 2.58-1.06.587-.72.88-1.547.88-2.48s-.293-1.747-.88-2.44c-.587-.707-1.387-1.06-2.4-1.06-1.093 0-1.953.353-2.58 1.06-.627.707-.94 1.52-.94 2.44 0 .893.26 1.68.78 2.36.6.787 1.453 1.18 2.56 1.18Zm5.37.54 3.3-4.28-3.02-3.88h.98l2.58 3.36 2.54-3.36h.98l-2.96 3.88 3.28 4.28h-.98l-2.86-3.76-2.86 3.76h-.98Zm9.988-7.1c.827-.827 1.847-1.24 3.06-1.24 1.214 0 2.227.413 3.04 1.24.827.813 1.24 1.827 1.24 3.04s-.413 2.233-1.24 3.06c-.813.813-1.826 1.22-3.04 1.22-1.213 0-2.233-.407-3.06-1.22-.813-.827-1.22-1.847-1.22-3.06s.407-2.227 1.22-3.04Zm.6 5.54c.667.68 1.487 1.02 2.46 1.02.974 0 1.787-.34 2.44-1.02.667-.68 1-1.513 1-2.5 0-.987-.333-1.82-1-2.5-.653-.68-1.466-1.02-2.44-1.02-.973 0-1.793.34-2.46 1.02-.653.68-.98 1.513-.98 2.5 0 .987.327 1.82.98 2.5Zm9.651-6.6h5.36v7.4h1.2v2.96h-.76V285h-6.88v2.2h-.76v-2.96c.667-.04 1.167-.4 1.5-1.08.227-.467.34-1.2.34-2.2v-4.12Zm4.56 7.4v-6.64h-3.76v3.6c0 1.44-.346 2.453-1.04 3.04h4.8Zm3.689-7.4h.8v6.54l5.8-7V285h-.8v-6.5l-5.8 7v-8.66Zm8.512 8.16 1.92-8.66 3.26 7.36 3.26-7.36 1.92 8.66h-.84l-1.32-6.38-3.02 6.88-3.02-6.88-1.32 6.38h-.84Zm12.289-8.16h.8v3.4h1.94c.933 0 1.626.253 2.08.76.386.427.58.967.58 1.62 0 .733-.24 1.32-.72 1.76-.44.413-1.094.62-1.96.62h-2.72v-8.16Zm.8 7.4h1.92c.56 0 .986-.127 1.28-.38.373-.307.56-.72.56-1.24 0-.547-.194-.967-.58-1.26-.32-.24-.754-.36-1.3-.36h-1.88v3.24Zm5.52-7.4h.8V285h-.8v-8.16Zm3.68 0h.8v6.54l5.8-7V285h-.8v-6.5l-5.8 7v-8.66Zm.92-3.3.68-.34c.106.413.326.76.66 1.04.346.28.766.42 1.26.42.493 0 .906-.14 1.24-.42.346-.28.573-.627.68-1.04l.68.34c-.4 1.253-1.267 1.88-2.6 1.88-1.334 0-2.2-.627-2.6-1.88ZM17 296.84h5.36v7.4h1.2v2.96h-.76V305h-6.88v2.2h-.76v-2.96c.667-.04 1.167-.4 1.5-1.08.227-.467.34-1.2.34-2.2v-4.12Zm4.56 7.4v-6.64H17.8v3.6c0 1.44-.347 2.453-1.04 3.04h4.8Zm4.389-6.34c.826-.827 1.846-1.24 3.06-1.24 1.213 0 2.226.413 3.04 1.24.826.813 1.24 1.827 1.24 3.04s-.414 2.233-1.24 3.06c-.814.813-1.827 1.22-3.04 1.22-1.214 0-2.234-.407-3.06-1.22-.814-.827-1.22-1.847-1.22-3.06s.406-2.227 1.22-3.04Zm.6 5.54c.666.68 1.486 1.02 2.46 1.02.973 0 1.786-.34 2.44-1.02.666-.68 1-1.513 1-2.5 0-.987-.334-1.82-1-2.5-.654-.68-1.467-1.02-2.44-1.02-.974 0-1.794.34-2.46 1.02-.654.68-.98 1.513-.98 2.5 0 .987.326 1.82.98 2.5Zm7.81 1.56 3.3-4.28-3.02-3.88h.98l2.58 3.36 2.54-3.36h.98l-2.96 3.88 3.28 4.28h-.98l-2.86-3.76-2.86 3.76h-.98Zm9.988-7.1c.827-.827 1.847-1.24 3.06-1.24s2.227.413 3.04 1.24c.827.813 1.24 1.827 1.24 3.04s-.413 2.233-1.24 3.06c-.813.813-1.827 1.22-3.04 1.22s-2.233-.407-3.06-1.22c-.813-.827-1.22-1.847-1.22-3.06s.407-2.227 1.22-3.04Zm.6 5.54c.667.68 1.487 1.02 2.46 1.02.973 0 1.787-.34 2.44-1.02.667-.68 1-1.513 1-2.5 0-.987-.333-1.82-1-2.5-.653-.68-1.467-1.02-2.44-1.02-.973 0-1.793.34-2.46 1.02-.653.68-.98 1.513-.98 2.5 0 .987.327 1.82.98 2.5Zm9.65-6.6h5.36v7.4h1.2v2.96h-.76V305h-6.88v2.2h-.76v-2.96c.667-.04 1.167-.4 1.5-1.08.227-.467.34-1.2.34-2.2v-4.12Zm4.56 7.4v-6.64h-3.76v3.6c0 1.44-.346 2.453-1.04 3.04h4.8ZM184.42 295h-8.22l5.12-5.64c.707-.8 1.193-1.4 1.46-1.8.52-.8.78-1.56.78-2.28 0-.853-.293-1.567-.88-2.14-.573-.573-1.313-.86-2.22-.86-.96 0-1.727.327-2.3.98-.52.573-.78 1.3-.78 2.18h-.88c0-1.133.353-2.067 1.06-2.8.747-.773 1.733-1.16 2.96-1.16 1.147 0 2.093.367 2.84 1.1.747.72 1.12 1.62 1.12 2.7 0 .947-.32 1.86-.96 2.74-.307.427-.7.907-1.18 1.44l-4.28 4.74h6.36v.8Zm9.941-13.34v.8h-4.48l-1.12 3.6c.32-.08.62-.12.9-.12 1.4 0 2.52.433 3.36 1.3.853.867 1.28 1.973 1.28 3.32 0 1.4-.46 2.527-1.38 3.38-.907.853-2.027 1.28-3.36 1.28-1.813 0-3.147-.733-4-2.2l.78-.32c.773 1.147 1.853 1.72 3.24 1.72 1.107 0 2.013-.36 2.72-1.08.72-.72 1.08-1.64 1.08-2.76 0-1.133-.353-2.053-1.06-2.76-.693-.72-1.593-1.08-2.7-1.08-.76 0-1.453.193-2.08.58l1.72-5.66h5.1Zm8.565 1.44c.893-1.08 1.94-1.62 3.14-1.62 1.2 0 2.247.54 3.14 1.62 1.133 1.347 1.7 3.093 1.7 5.24 0 2.147-.567 3.893-1.7 5.24-.92 1.093-1.967 1.64-3.14 1.64s-2.22-.547-3.14-1.64c-1.133-1.347-1.7-3.093-1.7-5.24 0-2.147.567-3.893 1.7-5.24Zm.66 9.96c.733.907 1.56 1.36 2.48 1.36.92 0 1.747-.453 2.48-1.36.96-1.187 1.44-2.76 1.44-4.72s-.48-3.533-1.44-4.72c-.72-.893-1.547-1.34-2.48-1.34s-1.76.447-2.48 1.34c-.96 1.187-1.44 2.76-1.44 4.72s.48 3.533 1.44 4.72Zm10.297-9.96c.893-1.08 1.94-1.62 3.14-1.62 1.2 0 2.247.54 3.14 1.62 1.133 1.347 1.7 3.093 1.7 5.24 0 2.147-.567 3.893-1.7 5.24-.92 1.093-1.967 1.64-3.14 1.64s-2.22-.547-3.14-1.64c-1.133-1.347-1.7-3.093-1.7-5.24 0-2.147.567-3.893 1.7-5.24Zm.66 9.96c.733.907 1.56 1.36 2.48 1.36.92 0 1.747-.453 2.48-1.36.96-1.187 1.44-2.76 1.44-4.72s-.48-3.533-1.44-4.72c-.72-.893-1.547-1.34-2.48-1.34s-1.76.447-2.48 1.34c-.96 1.187-1.44 2.76-1.44 4.72s.48 3.533 1.44 4.72Zm10.297-9.96c.893-1.08 1.94-1.62 3.14-1.62 1.2 0 2.247.54 3.14 1.62 1.133 1.347 1.7 3.093 1.7 5.24 0 2.147-.567 3.893-1.7 5.24-.92 1.093-1.967 1.64-3.14 1.64s-2.22-.547-3.14-1.64c-1.133-1.347-1.7-3.093-1.7-5.24 0-2.147.567-3.893 1.7-5.24Zm.66 9.96c.733.907 1.56 1.36 2.48 1.36.92 0 1.747-.453 2.48-1.36.96-1.187 1.44-2.76 1.44-4.72s-.48-3.533-1.44-4.72c-.72-.893-1.547-1.34-2.48-1.34s-1.76.447-2.48 1.34c-.96 1.187-1.44 2.76-1.44 4.72s.48 3.533 1.44 4.72Zm15.465-5.2v-6.2h2.58c1.293 0 2.287.36 2.98 1.08.613.64.92 1.44.92 2.4 0 1.013-.313 1.833-.94 2.46-.68.707-1.66 1.06-2.94 1.06h-1.72v1.8h3.34v.8h-3.34V295h-.88v-3.74h-1.5v-.8h1.5v-1.8h-1.5v-.8h1.5Zm.88-5.4v5.4h1.76c.907 0 1.633-.26 2.18-.78.493-.48.74-1.12.74-1.92 0-.827-.26-1.48-.78-1.96-.533-.493-1.293-.74-2.28-.74h-1.62Z" fill="#000"/></g><path stroke="#000" d="M.5.5h319v319H.5z"/><defs><clipPath id="a"><path fill="#fff" d="M0 0h320v320H0z"/></clipPath></defs></svg>