<?xml version="1.0" encoding="UTF-8"?>
<svg xmlns="http://www.w3.org/2000/svg" width="320" height="320" viewBox="0 0 320 320" fill="none"> <g clip-path="url(#clip0_998_42)"> <line x1="159.5" y1="320" x2="159.5" stroke="black"/> <line y1="63.5" x2="320" y2="63.5" stroke="black"/> <line y1="127.5" x2="320" y2="127.5" stroke="black"/> <line y1="191.5" x2="320" y2="191.5" stroke="black"/> <line y1="255.5" x2="320" y2="255.5" stroke="black"/> <path d="M16.8 15.66H26.64V29H25.76V16.46H17.68V29H16.8V15.66ZM30.6775 27.54V33.6H29.8775V20.84H30.6775V22.26C31.4642 21.1933 32.5308 20.66 33.8775 20.66C35.0775 20.66 36.0375 21.06 36.7575 21.86C37.4775 22.6467 37.8375 23.6467 37.8375 24.86C37.8375 26.1 37.4708 27.14 36.7375 27.98C36.0175 28.8067 35.0508 29.22 33.8375 29.22C33.2242 29.22 32.6708 29.1 32.1775 28.86C31.6842 28.6067 31.3442 28.38 31.1575 28.18C30.9708 27.9667 30.8108 27.7533 30.6775 27.54ZM31.4775 27.44C32.0375 28.12 32.8175 28.46 33.8175 28.46C34.8175 28.46 35.5975 28.12 36.1575 27.44C36.7175 26.76 36.9975 25.9 36.9975 24.86C36.9975 23.78 36.6908 22.94 36.0775 22.34C35.4642 21.7267 34.7175 21.42 33.8375 21.42C32.9708 21.42 32.2175 21.72 31.5775 22.32C30.9508 22.92 30.6375 23.7533 30.6375 24.82C30.6375 25.8733 30.9175 26.7467 31.4775 27.44ZM40.89 21.9C41.7167 21.0733 42.7367 20.66 43.95 20.66C45.1633 20.66 46.1767 21.0733 46.99 21.9C47.8167 22.7133 48.23 23.7267 48.23 24.94C48.23 26.1533 47.8167 27.1733 46.99 28C46.1767 28.8133 45.1633 29.22 43.95 29.22C42.7367 29.22 41.7167 28.8133 40.89 28C40.0767 27.1733 39.67 26.1533 39.67 24.94C39.67 23.7267 40.0767 22.7133 40.89 21.9ZM41.49 27.44C42.1567 28.12 42.9767 28.46 43.95 28.46C44.9233 28.46 45.7367 28.12 46.39 27.44C47.0567 26.76 47.39 25.9267 47.39 24.94C47.39 23.9533 47.0567 23.12 46.39 22.44C45.7367 21.76 44.9233 21.42 43.95 21.42C42.9767 21.42 42.1567 21.76 41.49 22.44C40.8367 23.12 40.51 23.9533 40.51 24.94C40.51 25.9267 40.8367 26.76 41.49 27.44ZM50.5806 29V20.84H51.3806V28.24H55.7806V20.84H56.5806V28.24H57.7806V31.2H57.0206V29H50.5806ZM66.7673 25.02H59.7873C59.7873 26.0333 60.1007 26.86 60.7273 27.5C61.3673 28.14 62.134 28.46 63.0273 28.46C63.6673 28.46 64.234 28.2933 64.7273 27.96C65.2207 27.6133 65.6007 27.16 65.8673 26.6L66.5473 27C66.2407 27.5867 65.794 28.1067 65.2073 28.56C64.6207 29 63.874 29.22 62.9673 29.22C61.7273 29.22 60.7473 28.82 60.0273 28.02C59.3073 27.2067 58.9473 26.1867 58.9473 24.96C58.9473 23.6133 59.334 22.56 60.1073 21.8C60.894 21.04 61.8273 20.66 62.9073 20.66C64.014 20.66 64.934 21.0667 65.6673 21.88C66.4007 22.6933 66.7673 23.74 66.7673 25.02ZM59.8473 24.26H65.9273C65.8207 23.4333 65.4873 22.7533 64.9273 22.22C64.3807 21.6867 63.7073 21.42 62.9073 21.42C62.094 21.42 61.4073 21.6933 60.8473 22.24C60.2873 22.7733 59.954 23.4467 59.8473 24.26ZM69.1353 29V20.84H69.9353V24.44H74.5353V20.84H75.3353V29H74.5353V25.2H69.9353V29H69.1353ZM79.7773 29V21.6H76.9373V20.84H83.4173V21.6H80.5773V29H79.7773ZM85.0142 29V20.84H85.8142V24.44H90.4142V20.84H91.2142V29H90.4142V25.2H85.8142V29H85.0142ZM100.736 22.26V20.84H101.536V29H100.736V27.54C100.003 28.66 98.9429 29.22 97.5563 29.22C96.4496 29.22 95.5096 28.8267 94.7363 28.04C93.9629 27.2533 93.5763 26.2133 93.5763 24.92C93.5763 23.6533 93.9429 22.6267 94.6763 21.84C95.4096 21.0533 96.3696 20.66 97.5563 20.66C98.9163 20.66 99.9763 21.1933 100.736 22.26ZM97.5963 21.42C96.7296 21.42 95.9829 21.7333 95.3563 22.36C94.7296 22.9733 94.4163 23.8067 94.4163 24.86C94.4163 25.8333 94.7029 26.68 95.2763 27.4C95.8496 28.1067 96.6296 28.46 97.6163 28.46C98.5896 28.46 99.3563 28.1133 99.9163 27.42C100.49 26.7133 100.776 25.86 100.776 24.86C100.776 23.7533 100.45 22.9067 99.7963 22.32C99.1429 21.72 98.4096 21.42 97.5963 21.42ZM103.529 29L106.129 25.44C105.502 25.4133 104.969 25.2133 104.529 24.84C104.075 24.44 103.849 23.9 103.849 23.22C103.849 22.4333 104.095 21.8333 104.589 21.42C105.029 21.0333 105.675 20.84 106.529 20.84H109.249V29H108.449V25.48H107.049L104.489 29H103.529ZM108.449 24.72V21.6H106.529C105.969 21.6 105.535 21.72 105.229 21.96C104.869 22.2667 104.689 22.68 104.689 23.2C104.689 23.7067 104.862 24.0933 105.209 24.36C105.529 24.6 105.969 24.72 106.529 24.72H108.449ZM22.98 41.7V42.76C22.2067 41.8667 21.2667 41.42 20.16 41.42C19.1733 41.42 18.36 41.76 17.72 42.44C17.08 43.1067 16.76 43.9467 16.76 44.96C16.76 46.0533 17.1 46.9133 17.78 47.54C18.46 48.1533 19.24 48.46 20.12 48.46C21.2 48.46 22.1867 47.9733 23.08 47V48.08C22.2267 48.84 21.2333 49.22 20.1 49.22C18.8733 49.22 17.8667 48.82 17.08 48.02C16.3067 47.2067 15.92 46.1933 15.92 44.98C15.92 43.74 16.3067 42.7133 17.08 41.9C17.8533 41.0733 18.88 40.66 20.16 40.66C21.2133 40.66 22.1533 41.0067 22.98 41.7ZM26.8477 49V41.6H24.0077V40.84H30.4877V41.6H27.6477V49H26.8477ZM38.2948 42.26V40.84H39.0948V49H38.2948V47.54C37.5615 48.66 36.5015 49.22 35.1148 49.22C34.0082 49.22 33.0682 48.8267 32.2948 48.04C31.5215 47.2533 31.1348 46.2133 31.1348 44.92C31.1348 43.6533 31.5015 42.6267 32.2348 41.84C32.9682 41.0533 33.9282 40.66 35.1148 40.66C36.4748 40.66 37.5348 41.1933 38.2948 42.26ZM35.1548 41.42C34.2882 41.42 33.5415 41.7333 32.9148 42.36C32.2882 42.9733 31.9748 43.8067 31.9748 44.86C31.9748 45.8333 32.2615 46.68 32.8348 47.4C33.4082 48.1067 34.1882 48.46 35.1748 48.46C36.1482 48.46 36.9148 48.1133 37.4748 47.42C38.0482 46.7133 38.3348 45.86 38.3348 44.86C38.3348 43.7533 38.0082 42.9067 37.3548 42.32C36.7015 41.72 35.9682 41.42 35.1548 41.42ZM41.9673 40.84H44.6273C45.3873 40.84 45.9673 41 46.3673 41.32C46.8473 41.7067 47.0873 42.2267 47.0873 42.88C47.0873 43.6267 46.7873 44.1933 46.1873 44.58C46.5607 44.6333 46.894 44.7867 47.1873 45.04C47.654 45.4533 47.8873 46 47.8873 46.68C47.8873 47.44 47.614 48.0267 47.0673 48.44C46.5873 48.8133 45.9207 49 45.0673 49H41.9673V40.84ZM42.7673 44.4H44.6273C45.1207 44.4 45.5073 44.2867 45.7873 44.06C46.1207 43.7933 46.2873 43.4333 46.2873 42.98C46.2873 42.54 46.1207 42.1867 45.7873 41.92C45.5207 41.7067 45.134 41.6 44.6273 41.6H42.7673V44.4ZM42.7673 48.24H45.0673C45.6807 48.24 46.1473 48.12 46.4673 47.88C46.854 47.5867 47.0473 47.18 47.0473 46.66C47.0473 46.18 46.8673 45.8 46.5073 45.52C46.1873 45.28 45.7073 45.16 45.0673 45.16H42.7673V48.24ZM50.2486 40.84H51.0486V44.72L55.1686 40.84H56.2486L52.0886 44.72L56.5686 49H55.4086L51.4886 45.26L51.0486 45.68V49H50.2486V40.84ZM64.3886 42.26V40.84H65.1886V49H64.3886V47.54C63.6553 48.66 62.5953 49.22 61.2086 49.22C60.1019 49.22 59.1619 48.8267 58.3886 48.04C57.6153 47.2533 57.2286 46.2133 57.2286 44.92C57.2286 43.6533 57.5953 42.6267 58.3286 41.84C59.0619 41.0533 60.0219 40.66 61.2086 40.66C62.5686 40.66 63.6286 41.1933 64.3886 42.26ZM61.2486 41.42C60.3819 41.42 59.6353 41.7333 59.0086 42.36C58.3819 42.9733 58.0686 43.8067 58.0686 44.86C58.0686 45.8333 58.3553 46.68 58.9286 47.4C59.5019 48.1067 60.2819 48.46 61.2686 48.46C62.2419 48.46 63.0086 48.1133 63.5686 47.42C64.1419 46.7133 64.4286 45.86 64.4286 44.86C64.4286 43.7533 64.1019 42.9067 63.4486 42.32C62.7953 41.72 62.0619 41.42 61.2486 41.42Z" fill="black"/> <path d="M176.16 39L182.24 28.6H176.68V25.66H187.62L179.98 39H176.16ZM183.804 41.98L186.304 35.66H189.304L185.864 41.98H183.804ZM192.865 34.44H196.405C196.431 35 196.611 35.4467 196.945 35.78C197.265 36.1267 197.718 36.3 198.305 36.3C198.851 36.3 199.305 36.1067 199.665 35.72C199.931 35.4133 200.065 35.0467 200.065 34.62C200.065 34.1267 199.891 33.7333 199.545 33.44C199.238 33.1867 198.811 33.06 198.265 33.06C198.038 33.06 197.845 33.0867 197.685 33.14V30.8C198.271 30.88 198.745 30.7667 199.105 30.46C199.398 30.2067 199.545 29.8933 199.545 29.52C199.545 29.12 199.425 28.8 199.185 28.56C198.945 28.32 198.618 28.2 198.205 28.2C197.791 28.2 197.471 28.3133 197.245 28.54C196.938 28.82 196.785 29.2133 196.785 29.72H193.565C193.631 28.48 194.065 27.46 194.865 26.66C195.691 25.7933 196.865 25.36 198.385 25.36C199.798 25.36 200.905 25.7533 201.705 26.54C202.425 27.26 202.785 28.12 202.785 29.12C202.785 29.7333 202.651 30.28 202.385 30.76C202.131 31.2267 201.791 31.5667 201.365 31.78C202.018 32.02 202.545 32.4267 202.945 33C203.318 33.5467 203.505 34.2 203.505 34.96C203.505 36.12 203.111 37.0933 202.325 37.88C201.378 38.8267 200.051 39.3 198.345 39.3C196.785 39.3 195.511 38.84 194.525 37.92C193.551 37.0267 192.998 35.8667 192.865 34.44ZM208.577 32.06C207.404 32.06 206.477 31.7067 205.797 31C205.237 30.4 204.957 29.68 204.957 28.84C204.957 27.92 205.23 27.1667 205.777 26.58C206.404 25.8733 207.337 25.52 208.577 25.52C209.79 25.52 210.737 25.8733 211.417 26.58C211.977 27.1667 212.257 27.9 212.257 28.78C212.257 29.66 211.97 30.4 211.397 31C210.717 31.7067 209.777 32.06 208.577 32.06ZM208.517 39L216.237 25.66H217.977L210.237 39H208.517ZM208.617 27.28C208.164 27.28 207.797 27.4333 207.517 27.74C207.25 28.0333 207.117 28.38 207.117 28.78C207.117 29.2333 207.29 29.6133 207.637 29.92C207.904 30.16 208.23 30.28 208.617 30.28C209.017 30.28 209.37 30.14 209.677 29.86C209.97 29.5667 210.117 29.2067 210.117 28.78C210.117 28.34 209.957 27.9667 209.637 27.66C209.37 27.4067 209.03 27.28 208.617 27.28ZM217.897 34.38C217.444 34.38 217.077 34.5333 216.797 34.84C216.53 35.1333 216.397 35.48 216.397 35.88C216.397 36.3333 216.57 36.7133 216.917 37.02C217.184 37.26 217.51 37.38 217.897 37.38C218.297 37.38 218.65 37.24 218.957 36.96C219.25 36.6667 219.397 36.3067 219.397 35.88C219.397 35.4267 219.237 35.0533 218.917 34.76C218.65 34.5067 218.31 34.38 217.897 34.38ZM217.857 39.16C216.684 39.16 215.757 38.8067 215.077 38.1C214.517 37.5 214.237 36.78 214.237 35.94C214.237 35.02 214.51 34.2667 215.057 33.68C215.684 32.9733 216.617 32.62 217.857 32.62C219.07 32.62 220.017 32.9733 220.697 33.68C221.257 34.2667 221.537 35 221.537 35.88C221.537 36.76 221.25 37.5 220.677 38.1C219.997 38.8067 219.057 39.16 217.857 39.16Z" fill="#4FAA6E"/> <path d="M234.015 32.08C234.709 32.3467 235.242 32.7867 235.615 33.4C236.002 34.0133 236.195 34.7 236.195 35.46C236.195 36.5933 235.822 37.5067 235.075 38.2C234.329 38.88 233.415 39.22 232.335 39.22C231.255 39.22 230.342 38.88 229.595 38.2C228.849 37.5067 228.475 36.5933 228.475 35.46C228.475 34.7 228.662 34.0133 229.035 33.4C229.422 32.7867 229.962 32.3467 230.655 32.08C229.415 31.4267 228.795 30.4 228.795 29C228.795 28 229.135 27.1667 229.815 26.5C230.495 25.82 231.335 25.48 232.335 25.48C233.335 25.48 234.175 25.82 234.855 26.5C235.535 27.1667 235.875 28 235.875 29C235.875 30.4 235.255 31.4267 234.015 32.08ZM230.475 30.94C230.995 31.4467 231.615 31.7 232.335 31.7C233.055 31.7 233.669 31.4467 234.175 30.94C234.695 30.42 234.955 29.7733 234.955 29C234.955 28.2133 234.702 27.5667 234.195 27.06C233.689 26.54 233.069 26.28 232.335 26.28C231.602 26.28 230.982 26.54 230.475 27.06C229.969 27.5667 229.715 28.2133 229.715 29C229.715 29.7733 229.969 30.42 230.475 30.94ZM230.195 37.58C230.742 38.14 231.455 38.42 232.335 38.42C233.215 38.42 233.922 38.14 234.455 37.58C235.002 37.0067 235.275 36.3 235.275 35.46C235.275 34.58 235.002 33.86 234.455 33.3C233.909 32.74 233.202 32.46 232.335 32.46C231.469 32.46 230.762 32.74 230.215 33.3C229.669 33.86 229.395 34.58 229.395 35.46C229.395 36.3 229.662 37.0067 230.195 37.58ZM238.573 41.74L239.773 37.7L240.573 37.94L239.093 41.94L238.573 41.74ZM243.883 35.76H244.763C244.79 36.28 244.937 36.7533 245.203 37.18C245.457 37.54 245.803 37.84 246.243 38.08C246.683 38.3067 247.123 38.42 247.563 38.42C248.377 38.42 249.077 38.1133 249.663 37.5C250.263 36.8867 250.563 36.16 250.563 35.32C250.563 34.2267 250.143 33.4133 249.303 32.88C248.89 32.6133 248.323 32.48 247.603 32.48V31.68C248.323 31.68 248.923 31.4733 249.403 31.06C250.057 30.5133 250.383 29.7867 250.383 28.88C250.383 28.1333 250.157 27.5133 249.703 27.02C249.25 26.5267 248.623 26.28 247.823 26.28C246.997 26.28 246.357 26.54 245.903 27.06C245.477 27.5267 245.25 28.12 245.223 28.84H244.383C244.397 27.8933 244.723 27.0933 245.363 26.44C245.99 25.8 246.81 25.48 247.823 25.48C248.89 25.48 249.737 25.8 250.363 26.44C250.99 27.08 251.303 27.8733 251.303 28.82C251.303 29.4867 251.137 30.12 250.803 30.72C250.47 31.3067 249.937 31.7467 249.203 32.04C249.91 32.2667 250.463 32.6733 250.863 33.26C251.277 33.8467 251.483 34.5267 251.483 35.3C251.483 36.4067 251.103 37.34 250.343 38.1C249.583 38.8467 248.657 39.22 247.563 39.22C246.937 39.22 246.33 39.0667 245.743 38.76C245.157 38.4533 244.697 38.0267 244.363 37.48C244.043 36.96 243.883 36.3867 243.883 35.76ZM254.74 26.28C255.234 25.7867 255.887 25.54 256.7 25.54C257.514 25.54 258.167 25.7867 258.66 26.28C259.154 26.7733 259.4 27.4 259.4 28.16C259.4 28.92 259.154 29.5467 258.66 30.04C258.167 30.5333 257.514 30.78 256.7 30.78C255.887 30.78 255.234 30.5333 254.74 30.04C254.247 29.5467 254 28.92 254 28.16C254 27.4 254.247 26.7733 254.74 26.28ZM255.3 29.48C255.634 29.8667 256.1 30.06 256.7 30.06C257.3 30.06 257.767 29.8667 258.1 29.48C258.434 29.0933 258.6 28.6533 258.6 28.16C258.6 27.6667 258.434 27.2267 258.1 26.84C257.767 26.4533 257.3 26.26 256.7 26.26C256.1 26.26 255.634 26.4533 255.3 26.84C254.967 27.2267 254.8 27.6667 254.8 28.16C254.8 28.6533 254.967 29.0933 255.3 29.48ZM255.16 38.98L263.04 25.36L263.64 25.68L255.76 39.3L255.16 38.98ZM260.14 34.62C260.634 34.1267 261.287 33.88 262.1 33.88C262.914 33.88 263.567 34.1267 264.06 34.62C264.554 35.1133 264.8 35.74 264.8 36.5C264.8 37.26 264.554 37.8867 264.06 38.38C263.567 38.8733 262.914 39.12 262.1 39.12C261.287 39.12 260.634 38.8733 260.14 38.38C259.647 37.8867 259.4 37.26 259.4 36.5C259.4 35.74 259.647 35.1133 260.14 34.62ZM260.7 37.82C261.034 38.2067 261.5 38.4 262.1 38.4C262.7 38.4 263.167 38.2067 263.5 37.82C263.834 37.4333 264 36.9933 264 36.5C264 36.0067 263.834 35.5667 263.5 35.18C263.167 34.7933 262.7 34.6 262.1 34.6C261.5 34.6 261.034 34.7933 260.7 35.18C260.367 35.5667 260.2 36.0067 260.2 36.5C260.2 36.9933 260.367 37.4333 260.7 37.82Z" fill="black"/> <path d="M226.855 34H265.48V35H226.855V34Z" fill="black"/> <path d="M23.2 79.66V80.46H17.68V85.3H23.08V86.1H17.68V92.2H23.2V93H16.8V79.66H23.2ZM29.4773 84.84H30.2773V88.72L33.9573 84.84H34.9973L31.1973 88.76L35.3173 93H34.2373L30.6773 89.28L30.2773 89.68V93H29.4773V89.68L29.0773 89.28L25.5173 93H24.4373L28.5573 88.76L24.7573 84.84H25.7973L29.4773 88.72V84.84ZM43.9939 89.02H37.0139C37.0139 90.0333 37.3272 90.86 37.9539 91.5C38.5939 92.14 39.3606 92.46 40.2539 92.46C40.8939 92.46 41.4606 92.2933 41.9539 91.96C42.4472 91.6133 42.8272 91.16 43.0939 90.6L43.7739 91C43.4672 91.5867 43.0206 92.1067 42.4339 92.56C41.8472 93 41.1006 93.22 40.1939 93.22C38.9539 93.22 37.9739 92.82 37.2539 92.02C36.5339 91.2067 36.1739 90.1867 36.1739 88.96C36.1739 87.6133 36.5606 86.56 37.3339 85.8C38.1206 85.04 39.0539 84.66 40.1339 84.66C41.2406 84.66 42.1606 85.0667 42.8939 85.88C43.6272 86.6933 43.9939 87.74 43.9939 89.02ZM37.0739 88.26H43.1539C43.0472 87.4333 42.7139 86.7533 42.1539 86.22C41.6072 85.6867 40.9339 85.42 40.1339 85.42C39.3206 85.42 38.6339 85.6933 38.0739 86.24C37.5139 86.7733 37.1806 87.4467 37.0739 88.26ZM45.4019 93L47.3219 84.34L50.5819 91.7L53.8419 84.34L55.7619 93H54.9219L53.6019 86.62L50.5819 93.5L47.5619 86.62L46.2419 93H45.4019ZM64.99 89.02H58.01C58.01 90.0333 58.3233 90.86 58.95 91.5C59.59 92.14 60.3567 92.46 61.25 92.46C61.89 92.46 62.4567 92.2933 62.95 91.96C63.4433 91.6133 63.8233 91.16 64.09 90.6L64.77 91C64.4633 91.5867 64.0167 92.1067 63.43 92.56C62.8433 93 62.0967 93.22 61.19 93.22C59.95 93.22 58.97 92.82 58.25 92.02C57.53 91.2067 57.17 90.1867 57.17 88.96C57.17 87.6133 57.5567 86.56 58.33 85.8C59.1167 85.04 60.05 84.66 61.13 84.66C62.2367 84.66 63.1567 85.0667 63.89 85.88C64.6233 86.6933 64.99 87.74 64.99 89.02ZM58.07 88.26H64.15C64.0433 87.4333 63.71 86.7533 63.15 86.22C62.6033 85.6867 61.93 85.42 61.13 85.42C60.3167 85.42 59.63 85.6933 59.07 86.24C58.51 86.7733 58.1767 87.4467 58.07 88.26ZM73.898 85.7V86.76C73.1246 85.8667 72.1846 85.42 71.078 85.42C70.0913 85.42 69.278 85.76 68.638 86.44C67.998 87.1067 67.678 87.9467 67.678 88.96C67.678 90.0533 68.018 90.9133 68.698 91.54C69.378 92.1533 70.158 92.46 71.038 92.46C72.118 92.46 73.1046 91.9733 73.998 91V92.08C73.1446 92.84 72.1513 93.22 71.018 93.22C69.7913 93.22 68.7846 92.82 67.998 92.02C67.2246 91.2067 66.838 90.1933 66.838 88.98C66.838 87.74 67.2246 86.7133 67.998 85.9C68.7713 85.0733 69.798 84.66 71.078 84.66C72.1313 84.66 73.0713 85.0067 73.898 85.7ZM75.3256 93L77.9256 89.44C77.299 89.4133 76.7656 89.2133 76.3256 88.84C75.8723 88.44 75.6456 87.9 75.6456 87.22C75.6456 86.4333 75.8923 85.8333 76.3856 85.42C76.8256 85.0333 77.4723 84.84 78.3256 84.84H81.0456V93H80.2456V89.48H78.8456L76.2856 93H75.3256ZM80.2456 88.72V85.6H78.3256C77.7656 85.6 77.3323 85.72 77.0256 85.96C76.6656 86.2667 76.4856 86.68 76.4856 87.2C76.4856 87.7067 76.659 88.0933 77.0056 88.36C77.3256 88.6 77.7656 88.72 78.3256 88.72H80.2456ZM88.4805 93V89.62C87.6005 89.7533 86.8871 89.82 86.3405 89.82C85.4738 89.82 84.8338 89.6733 84.4205 89.38C83.9271 89.02 83.6805 88.3267 83.6805 87.3V84.84H84.4805V87.3C84.4805 88.0467 84.6605 88.5467 85.0205 88.8C85.2738 88.9733 85.6805 89.06 86.2405 89.06C86.8671 89.06 87.6138 88.9933 88.4805 88.86V84.84H89.2805V93H88.4805ZM92.1627 93V84.84H92.9627V88.44H97.5627V84.84H98.3627V93H97.5627V89.2H92.9627V93H92.1627ZM101.245 84.84H102.045V88.24H103.985C104.918 88.24 105.611 88.4933 106.065 89C106.451 89.4267 106.645 89.9667 106.645 90.62C106.645 91.3533 106.405 91.94 105.925 92.38C105.485 92.7933 104.831 93 103.965 93H101.245V84.84ZM102.045 92.24H103.965C104.525 92.24 104.951 92.1133 105.245 91.86C105.618 91.5533 105.805 91.14 105.805 90.62C105.805 90.0733 105.611 89.6533 105.225 89.36C104.905 89.12 104.471 89 103.925 89H102.045V92.24ZM107.565 84.84H108.365V93H107.565V84.84ZM111.245 84.84H112.045V91.38L117.845 84.38V93H117.045V86.5L111.245 93.5V84.84ZM112.165 81.54L112.845 81.2C112.951 81.6133 113.171 81.96 113.505 82.24C113.851 82.52 114.271 82.66 114.765 82.66C115.258 82.66 115.671 82.52 116.005 82.24C116.351 81.96 116.578 81.6133 116.685 81.2L117.365 81.54C116.965 82.7933 116.098 83.42 114.765 83.42C113.431 83.42 112.565 82.7933 112.165 81.54ZM16.44 113V104.84H22.52V113H21.72V105.6H17.24V113H16.44ZM31.1248 104.84V113H30.3248V105.6H26.5648V110.32C26.5648 111.213 26.4048 111.873 26.0848 112.3C25.7248 112.793 25.2048 113.04 24.5248 113.04C24.4448 113.04 24.3115 113.027 24.1248 113V112.24C24.2582 112.267 24.3582 112.28 24.4248 112.28C24.8782 112.28 25.2315 112.1 25.4848 111.74C25.6715 111.447 25.7648 110.973 25.7648 110.32V104.84H31.1248ZM40.6386 106.26V104.84H41.4386V113H40.6386V111.54C39.9053 112.66 38.8453 113.22 37.4586 113.22C36.3519 113.22 35.4119 112.827 34.6386 112.04C33.8653 111.253 33.4786 110.213 33.4786 108.92C33.4786 107.653 33.8453 106.627 34.5786 105.84C35.3119 105.053 36.2719 104.66 37.4586 104.66C38.8186 104.66 39.8786 105.193 40.6386 106.26ZM37.4986 105.42C36.6319 105.42 35.8853 105.733 35.2586 106.36C34.6319 106.973 34.3186 107.807 34.3186 108.86C34.3186 109.833 34.6053 110.68 35.1786 111.4C35.7519 112.107 36.5319 112.46 37.5186 112.46C38.4919 112.46 39.2586 112.113 39.8186 111.42C40.3919 110.713 40.6786 109.86 40.6786 108.86C40.6786 107.753 40.3519 106.907 39.6986 106.32C39.0453 105.72 38.3119 105.42 37.4986 105.42ZM45.8711 113V105.6H43.0311V104.84H49.5111V105.6H46.6711V113H45.8711ZM57.9783 109.02H50.9983C50.9983 110.033 51.3116 110.86 51.9383 111.5C52.5783 112.14 53.3449 112.46 54.2383 112.46C54.8783 112.46 55.4449 112.293 55.9383 111.96C56.4316 111.613 56.8116 111.16 57.0783 110.6L57.7583 111C57.4516 111.587 57.0049 112.107 56.4183 112.56C55.8316 113 55.0849 113.22 54.1783 113.22C52.9383 113.22 51.9583 112.82 51.2383 112.02C50.5183 111.207 50.1583 110.187 50.1583 108.96C50.1583 107.613 50.5449 106.56 51.3183 105.8C52.1049 105.04 53.0383 104.66 54.1183 104.66C55.2249 104.66 56.1449 105.067 56.8783 105.88C57.6116 106.693 57.9783 107.74 57.9783 109.02ZM51.0583 108.26H57.1383C57.0316 107.433 56.6983 106.753 56.1383 106.22C55.5916 105.687 54.9183 105.42 54.1183 105.42C53.3049 105.42 52.6183 105.693 52.0583 106.24C51.4983 106.773 51.1649 107.447 51.0583 108.26ZM64.1063 104.84H64.9063V108.72L68.5863 104.84H69.6263L65.8263 108.76L69.9463 113H68.8663L65.3063 109.28L64.9063 109.68V113H64.1063V109.68L63.7063 109.28L60.1463 113H59.0663L63.1863 108.76L59.3863 104.84H60.4263L64.1063 108.72V104.84Z" fill="black"/> <path d="M186.22 100.06V103H175.52L178.9 99.46C180.113 98.1933 181.027 97.0667 181.64 96.08C182.12 95.3333 182.36 94.64 182.36 94C182.36 93.44 182.227 93.0133 181.96 92.72C181.72 92.4533 181.393 92.32 180.98 92.32C180.487 92.32 180.1 92.5 179.82 92.86C179.527 93.2333 179.367 93.78 179.34 94.5H175.76C175.773 93.0067 176.267 91.7733 177.24 90.8C178.2 89.84 179.46 89.36 181.02 89.36C182.607 89.36 183.86 89.82 184.78 90.74C185.647 91.6067 186.08 92.7 186.08 94.02C186.08 95.4333 185.42 96.7533 184.1 97.98L181.86 100.06H186.22ZM195.352 95.98C196.019 96.18 196.592 96.52 197.072 97C197.752 97.6667 198.092 98.4533 198.092 99.36C198.092 100.32 197.732 101.16 197.012 101.88C196.066 102.827 194.719 103.3 192.972 103.3C191.252 103.3 189.926 102.833 188.992 101.9C188.259 101.167 187.892 100.32 187.892 99.36C187.892 98.9333 187.986 98.5 188.172 98.06C188.359 97.6067 188.592 97.24 188.872 96.96C189.312 96.52 189.872 96.1933 190.552 95.98C190.072 95.7933 189.672 95.54 189.352 95.22C188.752 94.62 188.452 93.9133 188.452 93.1C188.452 92.1133 188.819 91.2733 189.552 90.58C190.432 89.7667 191.619 89.36 193.112 89.36C194.579 89.36 195.726 89.7867 196.552 90.64C197.206 91.2933 197.532 92.1067 197.532 93.08C197.532 93.92 197.259 94.6133 196.712 95.16C196.352 95.52 195.899 95.7933 195.352 95.98ZM193.032 91.68C192.579 91.68 192.212 91.8333 191.932 92.14C191.666 92.4333 191.532 92.7733 191.532 93.16C191.532 93.4933 191.672 93.8133 191.952 94.12C192.232 94.4133 192.586 94.56 193.012 94.56C193.399 94.56 193.726 94.4267 193.992 94.16C194.299 93.8533 194.452 93.5133 194.452 93.14C194.452 92.7133 194.299 92.36 193.992 92.08C193.699 91.8133 193.379 91.68 193.032 91.68ZM192.992 97.38C192.579 97.38 192.206 97.5333 191.872 97.84C191.552 98.16 191.392 98.5267 191.392 98.94C191.392 99.38 191.546 99.7533 191.852 100.06C192.172 100.38 192.552 100.54 192.992 100.54C193.432 100.54 193.806 100.387 194.112 100.08C194.432 99.76 194.592 99.38 194.592 98.94C194.592 98.5 194.432 98.1333 194.112 97.84C193.792 97.5333 193.419 97.38 192.992 97.38ZM213.532 89.66V97.82H215.152V100.48H213.532V103H210.332V100.48H203.872V98.26L209.012 89.66H213.532ZM207.192 97.82H210.332V92.38L207.192 97.82ZM216.205 98.44H219.745C219.771 99 219.951 99.4467 220.285 99.78C220.605 100.127 221.058 100.3 221.645 100.3C222.191 100.3 222.645 100.107 223.005 99.72C223.271 99.4133 223.405 99.0467 223.405 98.62C223.405 98.1267 223.231 97.7333 222.885 97.44C222.578 97.1867 222.151 97.06 221.605 97.06C221.378 97.06 221.185 97.0867 221.025 97.14V94.8C221.611 94.88 222.085 94.7667 222.445 94.46C222.738 94.2067 222.885 93.8933 222.885 93.52C222.885 93.12 222.765 92.8 222.525 92.56C222.285 92.32 221.958 92.2 221.545 92.2C221.131 92.2 220.811 92.3133 220.585 92.54C220.278 92.82 220.125 93.2133 220.125 93.72H216.905C216.971 92.48 217.405 91.46 218.205 90.66C219.031 89.7933 220.205 89.36 221.725 89.36C223.138 89.36 224.245 89.7533 225.045 90.54C225.765 91.26 226.125 92.12 226.125 93.12C226.125 93.7333 225.991 94.28 225.725 94.76C225.471 95.2267 225.131 95.5667 224.705 95.78C225.358 96.02 225.885 96.4267 226.285 97C226.658 97.5467 226.845 98.2 226.845 98.96C226.845 100.12 226.451 101.093 225.665 101.88C224.718 102.827 223.391 103.3 221.685 103.3C220.125 103.3 218.851 102.84 217.865 101.92C216.891 101.027 216.338 99.8667 216.205 98.44ZM238.857 100.06V103H228.157L231.537 99.46C232.75 98.1933 233.663 97.0667 234.277 96.08C234.757 95.3333 234.997 94.64 234.997 94C234.997 93.44 234.863 93.0133 234.597 92.72C234.357 92.4533 234.03 92.32 233.617 92.32C233.123 92.32 232.737 92.5 232.457 92.86C232.163 93.2333 232.003 93.78 231.977 94.5H228.397C228.41 93.0067 228.903 91.7733 229.877 90.8C230.837 89.84 232.097 89.36 233.657 89.36C235.243 89.36 236.497 89.82 237.417 90.74C238.283 91.6067 238.717 92.7 238.717 94.02C238.717 95.4333 238.057 96.7533 236.737 97.98L234.497 100.06H238.857ZM246.017 89.66H251.537C253.004 89.66 254.144 90.04 254.957 90.8C255.757 91.5333 256.157 92.5533 256.157 93.86C256.157 95.22 255.764 96.26 254.977 96.98C254.164 97.7267 253.057 98.1 251.657 98.1H249.477V99.22H253.197V101.3H249.477V103H246.017V101.3H244.377V99.22H246.017V98.1H244.377V95.7H246.017V89.66ZM249.477 92.46V95.7H250.637C251.304 95.7 251.79 95.56 252.097 95.28C252.39 95.0133 252.537 94.6067 252.537 94.06C252.537 93.58 252.404 93.2067 252.137 92.94C251.817 92.62 251.324 92.46 250.657 92.46H249.477Z" fill="black"/> <path d="M27.48 155.22V156.38C26.9067 155.713 26.2267 155.2 25.44 154.84C24.6667 154.467 23.8467 154.28 22.98 154.28C21.2867 154.28 19.8667 154.873 18.72 156.06C17.5733 157.247 17 158.693 17 160.4C17 161.347 17.18 162.213 17.54 163C17.9133 163.787 18.3933 164.427 18.98 164.92C19.58 165.4 20.2267 165.773 20.92 166.04C21.6133 166.293 22.3067 166.42 23 166.42C23.7467 166.42 24.52 166.26 25.32 165.94C26.12 165.607 26.84 165.093 27.48 164.4V165.56C26.2267 166.667 24.7467 167.22 23.04 167.22C21.0667 167.22 19.4133 166.547 18.08 165.2C16.7467 163.853 16.08 162.24 16.08 160.36C16.08 158.44 16.7533 156.813 18.1 155.48C19.4467 154.147 21.08 153.48 23 153.48C24.76 153.48 26.2533 154.06 27.48 155.22ZM30.6747 171.6L32.5947 167.14L28.7147 158.84H29.6347L33.0547 166.1L36.0347 158.84H36.9547L31.5947 171.6H30.6747ZM37.5894 167L39.5094 158.34L42.7694 165.7L46.0294 158.34L47.9494 167H47.1094L45.7894 160.62L42.7694 167.5L39.7494 160.62L38.4294 167H37.5894ZM48.9175 167L50.8375 158.34L54.0975 165.7L57.3575 158.34L59.2775 167H58.4375L57.1175 160.62L54.0975 167.5L51.0775 160.62L49.7575 167H48.9175ZM67.8456 160.26V158.84H68.6456V167H67.8456V165.54C67.1123 166.66 66.0523 167.22 64.6656 167.22C63.559 167.22 62.619 166.827 61.8456 166.04C61.0723 165.253 60.6856 164.213 60.6856 162.92C60.6856 161.653 61.0523 160.627 61.7856 159.84C62.519 159.053 63.479 158.66 64.6656 158.66C66.0256 158.66 67.0856 159.193 67.8456 160.26ZM64.7056 159.42C63.839 159.42 63.0923 159.733 62.4656 160.36C61.839 160.973 61.5256 161.807 61.5256 162.86C61.5256 163.833 61.8123 164.68 62.3856 165.4C62.959 166.107 63.739 166.46 64.7256 166.46C65.699 166.46 66.4656 166.113 67.0256 165.42C67.599 164.713 67.8856 163.86 67.8856 162.86C67.8856 161.753 67.559 160.907 66.9056 160.32C66.2523 159.72 65.519 159.42 64.7056 159.42ZM76.1861 158.84H76.9861V162.72L81.1061 158.84H82.1861L78.0261 162.72L82.5061 167H81.3461L77.4261 163.26L76.9861 163.68V167H76.1861V158.84ZM84.7205 165.54V171.6H83.9205V158.84H84.7205V160.26C85.5071 159.193 86.5738 158.66 87.9205 158.66C89.1205 158.66 90.0805 159.06 90.8005 159.86C91.5205 160.647 91.8805 161.647 91.8805 162.86C91.8805 164.1 91.5138 165.14 90.7805 165.98C90.0605 166.807 89.0938 167.22 87.8805 167.22C87.2671 167.22 86.7138 167.1 86.2205 166.86C85.7271 166.607 85.3871 166.38 85.2005 166.18C85.0138 165.967 84.8538 165.753 84.7205 165.54ZM85.5205 165.44C86.0805 166.12 86.8605 166.46 87.8605 166.46C88.8605 166.46 89.6405 166.12 90.2005 165.44C90.7605 164.76 91.0405 163.9 91.0405 162.86C91.0405 161.78 90.7338 160.94 90.1205 160.34C89.5071 159.727 88.7605 159.42 87.8805 159.42C87.0138 159.42 86.2605 159.72 85.6205 160.32C84.9938 160.92 84.6805 161.753 84.6805 162.82C84.6805 163.873 84.9605 164.747 85.5205 165.44ZM101.533 163.02H94.553C94.553 164.033 94.8663 164.86 95.493 165.5C96.133 166.14 96.8996 166.46 97.793 166.46C98.433 166.46 98.9996 166.293 99.493 165.96C99.9863 165.613 100.366 165.16 100.633 164.6L101.313 165C101.006 165.587 100.56 166.107 99.973 166.56C99.3863 167 98.6396 167.22 97.733 167.22C96.493 167.22 95.513 166.82 94.793 166.02C94.073 165.207 93.713 164.187 93.713 162.96C93.713 161.613 94.0996 160.56 94.873 159.8C95.6596 159.04 96.593 158.66 97.673 158.66C98.7796 158.66 99.6996 159.067 100.433 159.88C101.166 160.693 101.533 161.74 101.533 163.02ZM94.613 162.26H100.693C100.586 161.433 100.253 160.753 99.693 160.22C99.1463 159.687 98.473 159.42 97.673 159.42C96.8596 159.42 96.173 159.693 95.613 160.24C95.053 160.773 94.7196 161.447 94.613 162.26ZM104.461 158.84H109.821V166.24H111.021V169.2H110.261V167H103.381V169.2H102.621V166.24C103.288 166.2 103.788 165.84 104.121 165.16C104.348 164.693 104.461 163.96 104.461 162.96V158.84ZM109.021 166.24V159.6H105.261V163.2C105.261 164.64 104.914 165.653 104.221 166.24H109.021ZM112.71 158.84H113.51V165.38L119.31 158.38V167H118.51V160.5L112.71 167.5V158.84ZM123.742 167V159.6H120.902V158.84H127.382V159.6H124.542V167H123.742ZM135.189 160.26V158.84H135.989V167H135.189V165.54C134.456 166.66 133.396 167.22 132.009 167.22C130.903 167.22 129.963 166.827 129.189 166.04C128.416 165.253 128.029 164.213 128.029 162.92C128.029 161.653 128.396 160.627 129.129 159.84C129.863 159.053 130.823 158.66 132.009 158.66C133.369 158.66 134.429 159.193 135.189 160.26ZM132.049 159.42C131.183 159.42 130.436 159.733 129.809 160.36C129.183 160.973 128.869 161.807 128.869 162.86C128.869 163.833 129.156 164.68 129.729 165.4C130.303 166.107 131.083 166.46 132.069 166.46C133.043 166.46 133.809 166.113 134.369 165.42C134.943 164.713 135.229 163.86 135.229 162.86C135.229 161.753 134.903 160.907 134.249 160.32C133.596 159.72 132.863 159.42 132.049 159.42Z" fill="black"/> <path d="M183.3 153.22V163.66H185.16V164.46H183.3V167H182.42V164.46H175.24L183.3 153.22ZM176.8 163.66H182.42V155.82L176.8 163.66ZM196.065 167V154.46H193.985L194.385 153.66H196.945V167H196.065ZM207.148 153.22V163.66H209.008V164.46H207.148V167H206.268V164.46H199.088L207.148 153.22ZM200.648 163.66H206.268V155.82L200.648 163.66ZM210.245 166.72L218.885 154.46H210.785V153.66H220.445L210.905 167.22L210.245 166.72ZM230.87 167V154.46H228.79L229.19 153.66H231.75V167H230.87ZM242.779 153.66V154.46H238.299L237.179 158.06C237.499 157.98 237.799 157.94 238.079 157.94C239.479 157.94 240.599 158.373 241.439 159.24C242.292 160.107 242.719 161.213 242.719 162.56C242.719 163.96 242.259 165.087 241.339 165.94C240.432 166.793 239.312 167.22 237.979 167.22C236.166 167.22 234.832 166.487 233.979 165.02L234.759 164.7C235.532 165.847 236.612 166.42 237.999 166.42C239.106 166.42 240.012 166.06 240.719 165.34C241.439 164.62 241.799 163.7 241.799 162.58C241.799 161.447 241.446 160.527 240.739 159.82C240.046 159.1 239.146 158.74 238.039 158.74C237.279 158.74 236.586 158.933 235.959 159.32L237.679 153.66H242.779ZM246.676 155.1C247.569 154.02 248.616 153.48 249.816 153.48C251.016 153.48 252.063 154.02 252.956 155.1C254.089 156.447 254.656 158.193 254.656 160.34C254.656 162.487 254.089 164.233 252.956 165.58C252.036 166.673 250.989 167.22 249.816 167.22C248.643 167.22 247.596 166.673 246.676 165.58C245.543 164.233 244.976 162.487 244.976 160.34C244.976 158.193 245.543 156.447 246.676 155.1ZM247.336 165.06C248.069 165.967 248.896 166.42 249.816 166.42C250.736 166.42 251.563 165.967 252.296 165.06C253.256 163.873 253.736 162.3 253.736 160.34C253.736 158.38 253.256 156.807 252.296 155.62C251.576 154.727 250.749 154.28 249.816 154.28C248.883 154.28 248.056 154.727 247.336 155.62C246.376 156.807 245.896 158.38 245.896 160.34C245.896 162.3 246.376 163.873 247.336 165.06ZM262.801 159.86V153.66H265.381C266.674 153.66 267.668 154.02 268.361 154.74C268.974 155.38 269.281 156.18 269.281 157.14C269.281 158.153 268.968 158.973 268.341 159.6C267.661 160.307 266.681 160.66 265.401 160.66H263.681V162.46H267.021V163.26H263.681V167H262.801V163.26H261.301V162.46H262.801V160.66H261.301V159.86H262.801ZM263.681 154.46V159.86H265.441C266.348 159.86 267.074 159.6 267.621 159.08C268.114 158.6 268.361 157.96 268.361 157.16C268.361 156.333 268.101 155.68 267.581 155.2C267.048 154.707 266.288 154.46 265.301 154.46H263.681Z" fill="black"/> <path d="M16.8 207.66H26.64V221H25.76V208.46H17.68V221H16.8V207.66ZM37.1775 217.02H30.1975C30.1975 218.033 30.5108 218.86 31.1375 219.5C31.7775 220.14 32.5442 220.46 33.4375 220.46C34.0775 220.46 34.6442 220.293 35.1375 219.96C35.6308 219.613 36.0108 219.16 36.2775 218.6L36.9575 219C36.6508 219.587 36.2042 220.107 35.6175 220.56C35.0308 221 34.2842 221.22 33.3775 221.22C32.1375 221.22 31.1575 220.82 30.4375 220.02C29.7175 219.207 29.3575 218.187 29.3575 216.96C29.3575 215.613 29.7442 214.56 30.5175 213.8C31.3042 213.04 32.2375 212.66 33.3175 212.66C34.4242 212.66 35.3442 213.067 36.0775 213.88C36.8108 214.693 37.1775 215.74 37.1775 217.02ZM30.2575 216.26H36.3375C36.2308 215.433 35.8975 214.753 35.3375 214.22C34.7908 213.687 34.1175 213.42 33.3175 213.42C32.5042 213.42 31.8175 213.693 31.2575 214.24C30.6975 214.773 30.3642 215.447 30.2575 216.26ZM40.3455 219.54V225.6H39.5455V212.84H40.3455V214.26C41.1321 213.193 42.1988 212.66 43.5455 212.66C44.7455 212.66 45.7055 213.06 46.4255 213.86C47.1455 214.647 47.5055 215.647 47.5055 216.86C47.5055 218.1 47.1388 219.14 46.4055 219.98C45.6855 220.807 44.7188 221.22 43.5055 221.22C42.8921 221.22 42.3388 221.1 41.8455 220.86C41.3521 220.607 41.0121 220.38 40.8255 220.18C40.6388 219.967 40.4788 219.753 40.3455 219.54ZM41.1455 219.44C41.7055 220.12 42.4855 220.46 43.4855 220.46C44.4855 220.46 45.2655 220.12 45.8255 219.44C46.3855 218.76 46.6655 217.9 46.6655 216.86C46.6655 215.78 46.3588 214.94 45.7455 214.34C45.1321 213.727 44.3855 213.42 43.5055 213.42C42.6388 213.42 41.8855 213.72 41.2455 214.32C40.6188 214.92 40.3055 215.753 40.3055 216.82C40.3055 217.873 40.5855 218.747 41.1455 219.44ZM49.858 212.84H52.518C53.278 212.84 53.858 213 54.258 213.32C54.738 213.707 54.978 214.227 54.978 214.88C54.978 215.627 54.678 216.193 54.078 216.58C54.4513 216.633 54.7846 216.787 55.078 217.04C55.5446 217.453 55.778 218 55.778 218.68C55.778 219.44 55.5046 220.027 54.958 220.44C54.478 220.813 53.8113 221 52.958 221H49.858V212.84ZM50.658 216.4H52.518C53.0113 216.4 53.398 216.287 53.678 216.06C54.0113 215.793 54.178 215.433 54.178 214.98C54.178 214.54 54.0113 214.187 53.678 213.92C53.4113 213.707 53.0246 213.6 52.518 213.6H50.658V216.4ZM50.658 220.24H52.958C53.5713 220.24 54.038 220.12 54.358 219.88C54.7446 219.587 54.938 219.18 54.938 218.66C54.938 218.18 54.758 217.8 54.398 217.52C54.078 217.28 53.598 217.16 52.958 217.16H50.658V220.24ZM58.8392 213.9C59.6659 213.073 60.6859 212.66 61.8992 212.66C63.1126 212.66 64.1259 213.073 64.9392 213.9C65.7659 214.713 66.1792 215.727 66.1792 216.94C66.1792 218.153 65.7659 219.173 64.9392 220C64.1259 220.813 63.1126 221.22 61.8992 221.22C60.6859 221.22 59.6659 220.813 58.8392 220C58.0259 219.173 57.6192 218.153 57.6192 216.94C57.6192 215.727 58.0259 214.713 58.8392 213.9ZM59.4392 219.44C60.1059 220.12 60.9259 220.46 61.8992 220.46C62.8726 220.46 63.6859 220.12 64.3392 219.44C65.0059 218.76 65.3392 217.927 65.3392 216.94C65.3392 215.953 65.0059 215.12 64.3392 214.44C63.6859 213.76 62.8726 213.42 61.8992 213.42C60.9259 213.42 60.1059 213.76 59.4392 214.44C58.7859 215.12 58.4592 215.953 58.4592 216.94C58.4592 217.927 58.7859 218.76 59.4392 219.44ZM68.5298 221V212.84H69.3298V216.44H73.9298V212.84H74.7298V221H73.9298V217.2H69.3298V221H68.5298ZM84.2519 214.26V212.84H85.0519V221H84.2519V219.54C83.5185 220.66 82.4585 221.22 81.0719 221.22C79.9652 221.22 79.0252 220.827 78.2519 220.04C77.4785 219.253 77.0919 218.213 77.0919 216.92C77.0919 215.653 77.4585 214.627 78.1919 213.84C78.9252 213.053 79.8852 212.66 81.0719 212.66C82.4319 212.66 83.4919 213.193 84.2519 214.26ZM81.1119 213.42C80.2452 213.42 79.4985 213.733 78.8719 214.36C78.2452 214.973 77.9319 215.807 77.9319 216.86C77.9319 217.833 78.2185 218.68 78.7919 219.4C79.3652 220.107 80.1452 220.46 81.1319 220.46C82.1052 220.46 82.8719 220.113 83.4319 219.42C84.0052 218.713 84.2919 217.86 84.2919 216.86C84.2919 215.753 83.9652 214.907 83.3119 214.32C82.6585 213.72 81.9252 213.42 81.1119 213.42ZM92.4844 221V217.62C91.6044 217.753 90.891 217.82 90.3444 217.82C89.4777 217.82 88.8377 217.673 88.4244 217.38C87.931 217.02 87.6844 216.327 87.6844 215.3V212.84H88.4844V215.3C88.4844 216.047 88.6644 216.547 89.0244 216.8C89.2777 216.973 89.6844 217.06 90.2444 217.06C90.871 217.06 91.6177 216.993 92.4844 216.86V212.84H93.2844V221H92.4844ZM102.807 214.26V212.84H103.607V221H102.807V219.54C102.073 220.66 101.013 221.22 99.6266 221.22C98.5199 221.22 97.5799 220.827 96.8066 220.04C96.0332 219.253 95.6466 218.213 95.6466 216.92C95.6466 215.653 96.0132 214.627 96.7466 213.84C97.4799 213.053 98.4399 212.66 99.6266 212.66C100.987 212.66 102.047 213.193 102.807 214.26ZM99.6666 213.42C98.7999 213.42 98.0532 213.733 97.4266 214.36C96.7999 214.973 96.4866 215.807 96.4866 216.86C96.4866 217.833 96.7732 218.68 97.3466 219.4C97.9199 220.107 98.6999 220.46 99.6866 220.46C100.66 220.46 101.427 220.113 101.987 219.42C102.56 218.713 102.847 217.86 102.847 216.86C102.847 215.753 102.52 214.907 101.867 214.32C101.213 213.72 100.48 213.42 99.6666 213.42ZM112.199 212.84V221H111.399V213.6H107.639V218.32C107.639 219.213 107.479 219.873 107.159 220.3C106.799 220.793 106.279 221.04 105.599 221.04C105.519 221.04 105.386 221.027 105.199 221V220.24C105.332 220.267 105.432 220.28 105.499 220.28C105.952 220.28 106.306 220.1 106.559 219.74C106.746 219.447 106.839 218.973 106.839 218.32V212.84H112.199ZM115.073 212.84H115.873V216.24H117.813C118.746 216.24 119.439 216.493 119.893 217C120.279 217.427 120.473 217.967 120.473 218.62C120.473 219.353 120.233 219.94 119.753 220.38C119.313 220.793 118.659 221 117.793 221H115.073V212.84ZM115.873 220.24H117.793C118.353 220.24 118.779 220.113 119.073 219.86C119.446 219.553 119.633 219.14 119.633 218.62C119.633 218.073 119.439 217.653 119.053 217.36C118.733 217.12 118.299 217 117.753 217H115.873V220.24ZM122.241 221V212.84H123.041V216.44H127.641V212.84H128.441V221H127.641V217.2H123.041V221H122.241ZM131.323 212.84H132.123V216.24H134.063C134.996 216.24 135.689 216.493 136.143 217C136.529 217.427 136.723 217.967 136.723 218.62C136.723 219.353 136.483 219.94 136.003 220.38C135.563 220.793 134.909 221 134.043 221H131.323V212.84ZM132.123 220.24H134.043C134.603 220.24 135.029 220.113 135.323 219.86C135.696 219.553 135.883 219.14 135.883 218.62C135.883 218.073 135.689 217.653 135.303 217.36C134.983 217.12 134.549 217 134.003 217H132.123V220.24ZM137.643 212.84H138.443V221H137.643V212.84ZM141.323 212.84H142.123V219.38L147.923 212.38V221H147.123V214.5L141.323 221.5V212.84ZM142.243 209.54L142.923 209.2C143.029 209.613 143.249 209.96 143.583 210.24C143.929 210.52 144.349 210.66 144.843 210.66C145.336 210.66 145.749 210.52 146.083 210.24C146.429 209.96 146.656 209.613 146.763 209.2L147.443 209.54C147.043 210.793 146.176 211.42 144.843 211.42C143.509 211.42 142.643 210.793 142.243 209.54ZM16.44 232.84H19.1C19.86 232.84 20.44 233 20.84 233.32C21.32 233.707 21.56 234.227 21.56 234.88C21.56 235.627 21.26 236.193 20.66 236.58C21.0333 236.633 21.3667 236.787 21.66 237.04C22.1267 237.453 22.36 238 22.36 238.68C22.36 239.44 22.0867 240.027 21.54 240.44C21.06 240.813 20.3933 241 19.54 241H16.44V232.84ZM17.24 236.4H19.1C19.5933 236.4 19.98 236.287 20.26 236.06C20.5933 235.793 20.76 235.433 20.76 234.98C20.76 234.54 20.5933 234.187 20.26 233.92C19.9933 233.707 19.6067 233.6 19.1 233.6H17.24V236.4ZM17.24 240.24H19.54C20.1533 240.24 20.62 240.12 20.94 239.88C21.3267 239.587 21.52 239.18 21.52 238.66C21.52 238.18 21.34 237.8 20.98 237.52C20.66 237.28 20.18 237.16 19.54 237.16H17.24V240.24ZM24.9516 234.56L24.2916 234.1C24.8516 233.14 25.7116 232.66 26.8716 232.66C27.6582 232.66 28.2582 232.853 28.6716 233.24C29.1116 233.627 29.3316 234.153 29.3316 234.82C29.3316 235.62 29.0182 236.187 28.3916 236.52C28.7516 236.6 29.0716 236.78 29.3516 237.06C29.7382 237.447 29.9316 237.967 29.9316 238.62C29.9316 239.46 29.6116 240.127 28.9716 240.62C28.4382 241.02 27.7449 241.22 26.8916 241.22C26.0116 241.22 25.2982 241.013 24.7516 240.6C24.3116 240.24 23.9849 239.847 23.7716 239.42L24.4916 238.96C24.6916 239.4 24.9782 239.747 25.3516 240C25.7649 240.307 26.2782 240.46 26.8916 240.46C27.5716 240.46 28.0916 240.307 28.4516 240C28.8782 239.653 29.0916 239.187 29.0916 238.6C29.0916 238.08 28.9049 237.68 28.5316 237.4C28.2116 237.16 27.7116 237.04 27.0316 237.04H26.1916V236.28H26.8116C27.3316 236.28 27.7382 236.167 28.0316 235.94C28.3649 235.673 28.5316 235.327 28.5316 234.9C28.5316 234.473 28.3916 234.12 28.1116 233.84C27.8049 233.56 27.3849 233.42 26.8516 233.42C25.9982 233.42 25.3649 233.8 24.9516 234.56ZM32.2994 241V232.84H33.0994V236.44H37.6994V232.84H38.4994V241H37.6994V237.2H33.0994V241H32.2994ZM42.0814 233.9C42.9081 233.073 43.9281 232.66 45.1414 232.66C46.3547 232.66 47.3681 233.073 48.1814 233.9C49.0081 234.713 49.4214 235.727 49.4214 236.94C49.4214 238.153 49.0081 239.173 48.1814 240C47.3681 240.813 46.3547 241.22 45.1414 241.22C43.9281 241.22 42.9081 240.813 42.0814 240C41.2681 239.173 40.8614 238.153 40.8614 236.94C40.8614 235.727 41.2681 234.713 42.0814 233.9ZM42.6814 239.44C43.3481 240.12 44.1681 240.46 45.1414 240.46C46.1147 240.46 46.9281 240.12 47.5814 239.44C48.2481 238.76 48.5814 237.927 48.5814 236.94C48.5814 235.953 48.2481 235.12 47.5814 234.44C46.9281 233.76 46.1147 233.42 45.1414 233.42C44.1681 233.42 43.3481 233.76 42.6814 234.44C42.0281 235.12 41.7014 235.953 41.7014 236.94C41.7014 237.927 42.0281 238.76 42.6814 239.44ZM58.312 233.7V234.76C57.5387 233.867 56.5987 233.42 55.492 233.42C54.5054 233.42 53.692 233.76 53.052 234.44C52.412 235.107 52.092 235.947 52.092 236.96C52.092 238.053 52.432 238.913 53.112 239.54C53.792 240.153 54.572 240.46 55.452 240.46C56.532 240.46 57.5187 239.973 58.412 239V240.08C57.5587 240.84 56.5654 241.22 55.432 241.22C54.2054 241.22 53.1987 240.82 52.412 240.02C51.6387 239.207 51.252 238.193 51.252 236.98C51.252 235.74 51.6387 234.713 52.412 233.9C53.1854 233.073 54.212 232.66 55.492 232.66C56.5454 232.66 57.4854 233.007 58.312 233.7Z" fill="black"/> <path d="M175.44 230.72L184.08 218.46H175.98V217.66H185.64L176.1 231.22L175.44 230.72ZM185.719 227.76H186.599C186.626 228.28 186.773 228.753 187.039 229.18C187.293 229.54 187.639 229.84 188.079 230.08C188.519 230.307 188.959 230.42 189.399 230.42C190.213 230.42 190.913 230.113 191.499 229.5C192.099 228.887 192.399 228.16 192.399 227.32C192.399 226.227 191.979 225.413 191.139 224.88C190.726 224.613 190.159 224.48 189.439 224.48V223.68C190.159 223.68 190.759 223.473 191.239 223.06C191.893 222.513 192.219 221.787 192.219 220.88C192.219 220.133 191.993 219.513 191.539 219.02C191.086 218.527 190.459 218.28 189.659 218.28C188.833 218.28 188.193 218.54 187.739 219.06C187.313 219.527 187.086 220.12 187.059 220.84H186.219C186.233 219.893 186.559 219.093 187.199 218.44C187.826 217.8 188.646 217.48 189.659 217.48C190.726 217.48 191.573 217.8 192.199 218.44C192.826 219.08 193.139 219.873 193.139 220.82C193.139 221.487 192.973 222.12 192.639 222.72C192.306 223.307 191.773 223.747 191.039 224.04C191.746 224.267 192.299 224.673 192.699 225.26C193.113 225.847 193.319 226.527 193.319 227.3C193.319 228.407 192.939 229.34 192.179 230.1C191.419 230.847 190.493 231.22 189.399 231.22C188.773 231.22 188.166 231.067 187.579 230.76C186.993 230.453 186.533 230.027 186.199 229.48C185.879 228.96 185.719 228.387 185.719 227.76ZM197.842 231V218.46H195.762L196.162 217.66H198.722V231H197.842ZM215.187 224.08C215.881 224.347 216.414 224.787 216.787 225.4C217.174 226.013 217.367 226.7 217.367 227.46C217.367 228.593 216.994 229.507 216.247 230.2C215.501 230.88 214.587 231.22 213.507 231.22C212.427 231.22 211.514 230.88 210.767 230.2C210.021 229.507 209.647 228.593 209.647 227.46C209.647 226.7 209.834 226.013 210.207 225.4C210.594 224.787 211.134 224.347 211.827 224.08C210.587 223.427 209.967 222.4 209.967 221C209.967 220 210.307 219.167 210.987 218.5C211.667 217.82 212.507 217.48 213.507 217.48C214.507 217.48 215.347 217.82 216.027 218.5C216.707 219.167 217.047 220 217.047 221C217.047 222.4 216.427 223.427 215.187 224.08ZM211.647 222.94C212.167 223.447 212.787 223.7 213.507 223.7C214.227 223.7 214.841 223.447 215.347 222.94C215.867 222.42 216.127 221.773 216.127 221C216.127 220.213 215.874 219.567 215.367 219.06C214.861 218.54 214.241 218.28 213.507 218.28C212.774 218.28 212.154 218.54 211.647 219.06C211.141 219.567 210.887 220.213 210.887 221C210.887 221.773 211.141 222.42 211.647 222.94ZM211.367 229.58C211.914 230.14 212.627 230.42 213.507 230.42C214.387 230.42 215.094 230.14 215.627 229.58C216.174 229.007 216.447 228.3 216.447 227.46C216.447 226.58 216.174 225.86 215.627 225.3C215.081 224.74 214.374 224.46 213.507 224.46C212.641 224.46 211.934 224.74 211.387 225.3C210.841 225.86 210.567 226.58 210.567 227.46C210.567 228.3 210.834 229.007 211.367 229.58ZM227.642 217.66V218.46H223.162L222.042 222.06C222.362 221.98 222.662 221.94 222.942 221.94C224.342 221.94 225.462 222.373 226.302 223.24C227.156 224.107 227.582 225.213 227.582 226.56C227.582 227.96 227.122 229.087 226.202 229.94C225.296 230.793 224.176 231.22 222.842 231.22C221.029 231.22 219.696 230.487 218.842 229.02L219.622 228.7C220.396 229.847 221.476 230.42 222.862 230.42C223.969 230.42 224.876 230.06 225.582 229.34C226.302 228.62 226.662 227.7 226.662 226.58C226.662 225.447 226.309 224.527 225.602 223.82C224.909 223.1 224.009 222.74 222.902 222.74C222.142 222.74 221.449 222.933 220.822 223.32L222.542 217.66H227.642ZM231.539 219.1C232.433 218.02 233.479 217.48 234.679 217.48C235.879 217.48 236.926 218.02 237.819 219.1C238.953 220.447 239.519 222.193 239.519 224.34C239.519 226.487 238.953 228.233 237.819 229.58C236.899 230.673 235.853 231.22 234.679 231.22C233.506 231.22 232.459 230.673 231.539 229.58C230.406 228.233 229.839 226.487 229.839 224.34C229.839 222.193 230.406 220.447 231.539 219.1ZM232.199 229.06C232.933 229.967 233.759 230.42 234.679 230.42C235.599 230.42 236.426 229.967 237.159 229.06C238.119 227.873 238.599 226.3 238.599 224.34C238.599 222.38 238.119 220.807 237.159 219.62C236.439 218.727 235.613 218.28 234.679 218.28C233.746 218.28 232.919 218.727 232.199 219.62C231.239 220.807 230.759 222.38 230.759 224.34C230.759 226.3 231.239 227.873 232.199 229.06ZM247.664 223.86V217.66H250.244C251.538 217.66 252.531 218.02 253.224 218.74C253.838 219.38 254.144 220.18 254.144 221.14C254.144 222.153 253.831 222.973 253.204 223.6C252.524 224.307 251.544 224.66 250.264 224.66H248.544V226.46H251.884V227.26H248.544V231H247.664V227.26H246.164V226.46H247.664V224.66H246.164V223.86H247.664ZM248.544 218.46V223.86H250.304C251.211 223.86 251.938 223.6 252.484 223.08C252.978 222.6 253.224 221.96 253.224 221.16C253.224 220.333 252.964 219.68 252.444 219.2C251.911 218.707 251.151 218.46 250.164 218.46H248.544Z" fill="black"/> <path d="M17.68 271.66V277.32H25.76V271.66H26.64V285H25.76V278.12H17.68V285H16.8V271.66H17.68ZM37.1775 281.02H30.1975C30.1975 282.033 30.5108 282.86 31.1375 283.5C31.7775 284.14 32.5442 284.46 33.4375 284.46C34.0775 284.46 34.6442 284.293 35.1375 283.96C35.6308 283.613 36.0108 283.16 36.2775 282.6L36.9575 283C36.6508 283.587 36.2042 284.107 35.6175 284.56C35.0308 285 34.2842 285.22 33.3775 285.22C32.1375 285.22 31.1575 284.82 30.4375 284.02C29.7175 283.207 29.3575 282.187 29.3575 280.96C29.3575 279.613 29.7442 278.56 30.5175 277.8C31.3042 277.04 32.2375 276.66 33.3175 276.66C34.4242 276.66 35.3442 277.067 36.0775 277.88C36.8108 278.693 37.1775 279.74 37.1775 281.02ZM30.2575 280.26H36.3375C36.2308 279.433 35.8975 278.753 35.3375 278.22C34.7908 277.687 34.1175 277.42 33.3175 277.42C32.5042 277.42 31.8175 277.693 31.2575 278.24C30.6975 278.773 30.3642 279.447 30.2575 280.26ZM40.2455 277.9C41.0721 277.073 42.0921 276.66 43.3055 276.66C44.5188 276.66 45.5321 277.073 46.3455 277.9C47.1721 278.713 47.5855 279.727 47.5855 280.94C47.5855 282.153 47.1721 283.173 46.3455 284C45.5321 284.813 44.5188 285.22 43.3055 285.22C42.0921 285.22 41.0721 284.813 40.2455 284C39.4321 283.173 39.0255 282.153 39.0255 280.94C39.0255 279.727 39.4321 278.713 40.2455 277.9ZM40.8455 283.44C41.5121 284.12 42.3321 284.46 43.3055 284.46C44.2788 284.46 45.0921 284.12 45.7455 283.44C46.4121 282.76 46.7455 281.927 46.7455 280.94C46.7455 279.953 46.4121 279.12 45.7455 278.44C45.0921 277.76 44.2788 277.42 43.3055 277.42C42.3321 277.42 41.5121 277.76 40.8455 278.44C40.1921 279.12 39.8655 279.953 39.8655 280.94C39.8655 281.927 40.1921 282.76 40.8455 283.44ZM50.2361 278.78H50.2761C50.5828 278.073 51.0628 277.547 51.7161 277.2C52.3828 276.84 53.0961 276.66 53.8561 276.66C55.0961 276.66 56.0894 277.053 56.8361 277.84C57.5961 278.627 57.9761 279.653 57.9761 280.92C57.9761 282.227 57.5694 283.273 56.7561 284.06C55.9428 284.833 54.9161 285.22 53.6761 285.22C52.5028 285.22 51.5494 284.88 50.8161 284.2C49.8828 283.32 49.4161 281.867 49.4161 279.84C49.4161 276.56 50.2694 274.367 51.9761 273.26C52.1361 273.153 52.3094 273.06 52.4961 272.98C52.6828 272.887 52.8428 272.813 52.9761 272.76C53.1228 272.707 53.3161 272.653 53.5561 272.6C53.7961 272.533 53.9694 272.493 54.0761 272.48C54.1828 272.453 54.3694 272.413 54.6361 272.36C54.9161 272.307 55.0828 272.273 55.1361 272.26C56.1228 272.047 56.7228 271.693 56.9361 271.2H57.9361C57.7894 271.533 57.6028 271.82 57.3761 272.06C57.1628 272.287 56.8961 272.473 56.5761 272.62C56.2694 272.753 56.0094 272.853 55.7961 272.92C55.5961 272.973 55.3228 273.04 54.9761 273.12C53.6561 273.387 52.7028 273.753 52.1161 274.22C51.5028 274.713 51.0428 275.38 50.7361 276.22C50.4428 277.06 50.2761 277.913 50.2361 278.78ZM53.6761 284.46C54.8228 284.46 55.6828 284.107 56.2561 283.4C56.8428 282.68 57.1361 281.853 57.1361 280.92C57.1361 279.987 56.8428 279.173 56.2561 278.48C55.6694 277.773 54.8694 277.42 53.8561 277.42C52.7628 277.42 51.9028 277.773 51.2761 278.48C50.6494 279.187 50.3361 280 50.3361 280.92C50.3361 281.813 50.5961 282.6 51.1161 283.28C51.7161 284.067 52.5694 284.46 53.6761 284.46ZM59.0467 285L62.3467 280.72L59.3267 276.84H60.3067L62.8867 280.2L65.4267 276.84H66.4067L63.4467 280.72L66.7267 285H65.7467L62.8867 281.24L60.0267 285H59.0467ZM69.0345 277.9C69.8612 277.073 70.8812 276.66 72.0945 276.66C73.3079 276.66 74.3212 277.073 75.1345 277.9C75.9612 278.713 76.3745 279.727 76.3745 280.94C76.3745 282.153 75.9612 283.173 75.1345 284C74.3212 284.813 73.3079 285.22 72.0945 285.22C70.8812 285.22 69.8612 284.813 69.0345 284C68.2212 283.173 67.8145 282.153 67.8145 280.94C67.8145 279.727 68.2212 278.713 69.0345 277.9ZM69.6345 283.44C70.3012 284.12 71.1212 284.46 72.0945 284.46C73.0679 284.46 73.8812 284.12 74.5345 283.44C75.2012 282.76 75.5345 281.927 75.5345 280.94C75.5345 279.953 75.2012 279.12 74.5345 278.44C73.8812 277.76 73.0679 277.42 72.0945 277.42C71.1212 277.42 70.3012 277.76 69.6345 278.44C68.9812 279.12 68.6545 279.953 68.6545 280.94C68.6545 281.927 68.9812 282.76 69.6345 283.44ZM79.2852 276.84H84.6452V284.24H85.8452V287.2H85.0852V285H78.2052V287.2H77.4452V284.24C78.1118 284.2 78.6118 283.84 78.9452 283.16C79.1718 282.693 79.2852 281.96 79.2852 280.96V276.84ZM83.8452 284.24V277.6H80.0852V281.2C80.0852 282.64 79.7385 283.653 79.0452 284.24H83.8452ZM87.5338 276.84H88.3338V283.38L94.1338 276.38V285H93.3338V278.5L87.5338 285.5V276.84ZM96.0464 285L97.9664 276.34L101.226 283.7L104.486 276.34L106.406 285H105.566L104.246 278.62L101.226 285.5L98.2064 278.62L96.8864 285H96.0464ZM108.335 276.84H109.135V280.24H111.075C112.008 280.24 112.701 280.493 113.155 281C113.541 281.427 113.735 281.967 113.735 282.62C113.735 283.353 113.495 283.94 113.015 284.38C112.575 284.793 111.921 285 111.055 285H108.335V276.84ZM109.135 284.24H111.055C111.615 284.24 112.041 284.113 112.335 283.86C112.708 283.553 112.895 283.14 112.895 282.62C112.895 282.073 112.701 281.653 112.315 281.36C111.995 281.12 111.561 281 111.015 281H109.135V284.24ZM114.655 276.84H115.455V285H114.655V276.84ZM118.335 276.84H119.135V283.38L124.935 276.38V285H124.135V278.5L118.335 285.5V276.84ZM119.255 273.54L119.935 273.2C120.041 273.613 120.261 273.96 120.595 274.24C120.941 274.52 121.361 274.66 121.855 274.66C122.348 274.66 122.761 274.52 123.095 274.24C123.441 273.96 123.668 273.613 123.775 273.2L124.455 273.54C124.055 274.793 123.188 275.42 121.855 275.42C120.521 275.42 119.655 274.793 119.255 273.54ZM17 296.84H22.36V304.24H23.56V307.2H22.8V305H15.92V307.2H15.16V304.24C15.8267 304.2 16.3267 303.84 16.66 303.16C16.8867 302.693 17 301.96 17 300.96V296.84ZM21.56 304.24V297.6H17.8V301.2C17.8 302.64 17.4533 303.653 16.76 304.24H21.56ZM25.9486 297.9C26.7753 297.073 27.7953 296.66 29.0086 296.66C30.2219 296.66 31.2353 297.073 32.0486 297.9C32.8753 298.713 33.2886 299.727 33.2886 300.94C33.2886 302.153 32.8753 303.173 32.0486 304C31.2353 304.813 30.2219 305.22 29.0086 305.22C27.7953 305.22 26.7753 304.813 25.9486 304C25.1353 303.173 24.7286 302.153 24.7286 300.94C24.7286 299.727 25.1353 298.713 25.9486 297.9ZM26.5486 303.44C27.2153 304.12 28.0353 304.46 29.0086 304.46C29.9819 304.46 30.7953 304.12 31.4486 303.44C32.1153 302.76 32.4486 301.927 32.4486 300.94C32.4486 299.953 32.1153 299.12 31.4486 298.44C30.7953 297.76 29.9819 297.42 29.0086 297.42C28.0353 297.42 27.2153 297.76 26.5486 298.44C25.8953 299.12 25.5686 299.953 25.5686 300.94C25.5686 301.927 25.8953 302.76 26.5486 303.44ZM34.3592 305L37.6592 300.72L34.6392 296.84H35.6192L38.1992 300.2L40.7392 296.84H41.7192L38.7592 300.72L42.0392 305H41.0592L38.1992 301.24L35.3392 305H34.3592ZM44.347 297.9C45.1737 297.073 46.1937 296.66 47.407 296.66C48.6204 296.66 49.6337 297.073 50.447 297.9C51.2737 298.713 51.687 299.727 51.687 300.94C51.687 302.153 51.2737 303.173 50.447 304C49.6337 304.813 48.6204 305.22 47.407 305.22C46.1937 305.22 45.1737 304.813 44.347 304C43.5337 303.173 43.127 302.153 43.127 300.94C43.127 299.727 43.5337 298.713 44.347 297.9ZM44.947 303.44C45.6137 304.12 46.4337 304.46 47.407 304.46C48.3804 304.46 49.1937 304.12 49.847 303.44C50.5137 302.76 50.847 301.927 50.847 300.94C50.847 299.953 50.5137 299.12 49.847 298.44C49.1937 297.76 48.3804 297.42 47.407 297.42C46.4337 297.42 45.6137 297.76 44.947 298.44C44.2937 299.12 43.967 299.953 43.967 300.94C43.967 301.927 44.2937 302.76 44.947 303.44ZM54.5977 296.84H59.9577V304.24H61.1577V307.2H60.3977V305H53.5177V307.2H52.7577V304.24C53.4243 304.2 53.9243 303.84 54.2577 303.16C54.4843 302.693 54.5977 301.96 54.5977 300.96V296.84ZM59.1577 304.24V297.6H55.3977V301.2C55.3977 302.64 55.051 303.653 54.3577 304.24H59.1577Z" fill="black"/> <path d="M183.3 281.22V291.66H185.16V292.46H183.3V295H182.42V292.46H175.24L183.3 281.22ZM176.8 291.66H182.42V283.82L176.8 291.66ZM195.357 281.66V282.46H190.877L189.757 286.06C190.077 285.98 190.377 285.94 190.657 285.94C192.057 285.94 193.177 286.373 194.017 287.24C194.87 288.107 195.297 289.213 195.297 290.56C195.297 291.96 194.837 293.087 193.917 293.94C193.01 294.793 191.89 295.22 190.557 295.22C188.744 295.22 187.41 294.487 186.557 293.02L187.337 292.7C188.11 293.847 189.19 294.42 190.577 294.42C191.684 294.42 192.59 294.06 193.297 293.34C194.017 292.62 194.377 291.7 194.377 290.58C194.377 289.447 194.024 288.527 193.317 287.82C192.624 287.1 191.724 286.74 190.617 286.74C189.857 286.74 189.164 286.933 188.537 287.32L190.257 281.66H195.357ZM206.522 295.22L205.842 294.7L208.802 290.48C208.229 290.72 207.622 290.84 206.982 290.84C205.649 290.84 204.542 290.4 203.662 289.52C202.782 288.64 202.342 287.527 202.342 286.18C202.342 284.833 202.789 283.713 203.682 282.82C204.575 281.927 205.715 281.48 207.102 281.48C208.462 281.48 209.589 281.927 210.482 282.82C211.375 283.713 211.822 284.84 211.822 286.2C211.822 287.173 211.535 288.08 210.962 288.92L206.522 295.22ZM209.802 283.4C209.082 282.653 208.175 282.28 207.082 282.28C205.989 282.28 205.075 282.653 204.342 283.4C203.622 284.147 203.262 285.067 203.262 286.16C203.262 287.293 203.622 288.227 204.342 288.96C205.075 289.68 205.989 290.04 207.082 290.04C208.189 290.04 209.102 289.673 209.822 288.94C210.542 288.207 210.902 287.28 210.902 286.16C210.902 285.053 210.535 284.133 209.802 283.4ZM214.879 283.1C215.772 282.02 216.819 281.48 218.019 281.48C219.219 281.48 220.266 282.02 221.159 283.1C222.292 284.447 222.859 286.193 222.859 288.34C222.859 290.487 222.292 292.233 221.159 293.58C220.239 294.673 219.192 295.22 218.019 295.22C216.846 295.22 215.799 294.673 214.879 293.58C213.746 292.233 213.179 290.487 213.179 288.34C213.179 286.193 213.746 284.447 214.879 283.1ZM215.539 293.06C216.272 293.967 217.099 294.42 218.019 294.42C218.939 294.42 219.766 293.967 220.499 293.06C221.459 291.873 221.939 290.3 221.939 288.34C221.939 286.38 221.459 284.807 220.499 283.62C219.779 282.727 218.952 282.28 218.019 282.28C217.086 282.28 216.259 282.727 215.539 283.62C214.579 284.807 214.099 286.38 214.099 288.34C214.099 290.3 214.579 291.873 215.539 293.06ZM225.836 283.1C226.729 282.02 227.776 281.48 228.976 281.48C230.176 281.48 231.223 282.02 232.116 283.1C233.249 284.447 233.816 286.193 233.816 288.34C233.816 290.487 233.249 292.233 232.116 293.58C231.196 294.673 230.149 295.22 228.976 295.22C227.803 295.22 226.756 294.673 225.836 293.58C224.703 292.233 224.136 290.487 224.136 288.34C224.136 286.193 224.703 284.447 225.836 283.1ZM226.496 293.06C227.229 293.967 228.056 294.42 228.976 294.42C229.896 294.42 230.723 293.967 231.456 293.06C232.416 291.873 232.896 290.3 232.896 288.34C232.896 286.38 232.416 284.807 231.456 283.62C230.736 282.727 229.909 282.28 228.976 282.28C228.043 282.28 227.216 282.727 226.496 283.62C225.536 284.807 225.056 286.38 225.056 288.34C225.056 290.3 225.536 291.873 226.496 293.06ZM241.961 287.86V281.66H244.541C245.834 281.66 246.828 282.02 247.521 282.74C248.134 283.38 248.441 284.18 248.441 285.14C248.441 286.153 248.128 286.973 247.501 287.6C246.821 288.307 245.841 288.66 244.561 288.66H242.841V290.46H246.181V291.26H242.841V295H241.961V291.26H240.461V290.46H241.961V288.66H240.461V287.86H241.961ZM242.841 282.46V287.86H244.601C245.508 287.86 246.234 287.6 246.781 287.08C247.274 286.6 247.521 285.96 247.521 285.16C247.521 284.333 247.261 283.68 246.741 283.2C246.208 282.707 245.448 282.46 244.461 282.46H242.841Z" fill="black"/> </g> <rect x="0.5" y="0.5" width="319" height="319" stroke="black"/> <defs> <clipPath id="clip0_998_42"> <rect width="320" height="320" fill="white"/> </clipPath> </defs> </svg>