<svg xmlns="http://www.w3.org/2000/svg" width="100" height="100" fill="none"><path d="M70.737 29.368s4.626-1.804 4.24 2.576c-.128 1.804-1.285 8.116-2.184 14.944l-3.084 20.226s-.257 2.963-2.57 3.478c-2.312.516-5.78-1.803-6.423-2.318-.514-.387-9.636-6.184-12.849-9.018-.899-.773-1.927-2.32.129-4.123l13.49-12.882c1.542-1.546 3.084-5.154-3.34-.773L40.158 53.716s-2.055 1.288-5.91.129l-8.351-2.576s-3.084-1.933 2.184-3.865c12.848-6.055 28.652-12.239 42.656-18.036Z" fill="#31373E"/><path stroke="#31373E" stroke-width="2" d="M1 1h98v98H1z"/></svg>