<svg xmlns="http://www.w3.org/2000/svg" width="81" height="15" fill="none"><path d="M1.08 3.996h5.904V12h-.528V4.476H1.608V12H1.08V3.996Zm8.83 1.092c.8-.8 1.784-1.2 2.953-1.2 1.168 0 2.152.4 2.952 1.2.8.8 1.2 1.776 1.2 2.928s-.4 2.128-1.2 2.928c-.8.792-1.784 1.188-2.952 1.188s-2.152-.396-2.952-1.188c-.8-.8-1.2-1.776-1.2-2.928s.4-2.128 1.2-2.928Zm.384 5.52c.688.696 1.544 1.044 2.569 1.044 1.024 0 1.88-.348 2.568-1.044.688-.704 1.031-1.568 1.031-2.592 0-1.032-.343-1.896-1.031-2.592-.688-.704-1.544-1.056-2.568-1.056s-1.88.352-2.569 1.056c-.688.696-1.032 1.56-1.032 2.592 0 1.024.345 1.888 1.032 2.592Zm9.094-6.612H23.9v7.524h.912v2.088h-.504V12h-5.976v1.608h-.504V11.52c.272 0 .52-.1.744-.3.224-.2.4-.46.528-.78.192-.488.288-1.188.288-2.1V3.996Zm.528.48V8.34c0 .984-.096 1.728-.288 2.232a2.65 2.65 0 0 1-.612.948h4.356V4.476h-3.456Zm7.708 3.72h-1.032V12h-.528V3.996h1.548c.68 0 1.24.184 1.68.552.44.36.66.872.66 1.536 0 .656-.212 1.172-.636 1.548-.424.376-.988.564-1.692.564Zm-1.032-3.72v3.24h1.056c.528 0 .952-.144 1.272-.432.32-.296.48-.692.48-1.188 0-.504-.164-.9-.492-1.188-.32-.288-.768-.432-1.344-.432h-.972Zm5.596.612c.8-.8 1.784-1.2 2.952-1.2s2.152.4 2.952 1.2c.8.8 1.2 1.776 1.2 2.928s-.4 2.128-1.2 2.928c-.8.792-1.784 1.188-2.952 1.188s-2.152-.396-2.952-1.188c-.8-.8-1.2-1.776-1.2-2.928s.4-2.128 1.2-2.928Zm.384 5.52c.688.696 1.544 1.044 2.568 1.044s1.88-.348 2.568-1.044c.688-.704 1.032-1.568 1.032-2.592 0-1.032-.344-1.896-1.032-2.592-.688-.704-1.544-1.056-2.568-1.056s-1.88.352-2.568 1.056c-.688.696-1.032 1.56-1.032 2.592 0 1.024.344 1.888 1.032 2.592ZM41.017 12V3.996h3.852v.48h-3.324V7.44h1.392c1.84 0 2.76.732 2.76 2.196 0 .664-.216 1.224-.648 1.68-.423.456-1.072.684-1.944.684h-2.087Zm.528-4.08v3.6h1.344c.808 0 1.392-.176 1.752-.528.337-.32.505-.772.505-1.356 0-.696-.276-1.188-.828-1.476-.32-.16-.828-.24-1.524-.24h-1.248Zm6.41-3.924v3.396h4.849V3.996h.528V12h-.528V7.872h-4.848V12h-.528V3.996h.528Zm11.375 0v.48h-3.312V7.38h3.24v.48h-3.24v3.66h3.312V12h-3.84V3.996h3.84Zm5.567 0v.48h-3.312V7.38h3.24v.48h-3.24v3.66h3.312V12h-3.84V3.996h3.84Z" fill="#31373E"/><path stroke="#31373E" stroke-width=".5" d="m72.323 12.339 8.485-8.485M80.75 12V4M73 3.75h8"/></svg>