<svg xmlns="http://www.w3.org/2000/svg" width="75" height="52" fill="none"><path d="M73.788 28.249a3.5 3.5 0 0 0 0-4.95L51.514 1.025a3.5 3.5 0 1 0-4.95 4.95l19.8 19.799-19.8 19.799a3.5 3.5 0 1 0 4.95 4.95l22.274-22.274Zm-3.475 1.025h1v-7h-1v7ZM43.69 27.42a2.902 2.902 0 0 0 0-4.104L25.223 4.85a2.902 2.902 0 1 0-4.104 4.104l16.415 16.414L21.12 41.783a2.901 2.901 0 1 0 4.104 4.104L43.69 27.42Zm-2.881.85h.829v-5.803h-.83v5.803ZM18.595 27.595c.9-.9.9-2.358 0-3.258L3.933 9.675a2.304 2.304 0 1 0-3.258 3.258l13.033 13.033L.675 39a2.304 2.304 0 1 0 3.258 3.258l14.662-14.662Zm-2.287.675h.658v-4.608h-.658v4.608Z" fill="#000"/></svg>