<svg xmlns="http://www.w3.org/2000/svg" width="100" height="100" fill="none"><path fill-rule="evenodd" clip-rule="evenodd" d="M50.483 23c7.29.003 14.134 2.841 19.28 7.993 5.146 5.152 7.978 11.999 7.973 19.282C77.73 65.3 65.503 77.528 50.482 77.528h-.01a27.228 27.228 0 0 1-13.024-3.318L23 78l3.867-14.123a27.208 27.208 0 0 1-3.638-13.625C23.235 35.225 35.462 23 50.483 23Zm-.008 49.925h.01c12.484 0 22.646-10.162 22.65-22.654a22.517 22.517 0 0 0-6.628-16.025 22.498 22.498 0 0 0-16.015-6.644c-12.494 0-22.657 10.161-22.661 22.651a22.598 22.598 0 0 0 3.463 12.055l.538.858-2.288 8.359 8.574-2.249.828.491a22.622 22.622 0 0 0 11.529 3.158Zm7.78-19.181c.625.227 3.972 1.874 4.654 2.215.131.066.254.125.369.18.477.231.798.387.936.616.17.284.17 1.648-.398 3.239-.567 1.59-3.287 3.042-4.596 3.237-1.174.176-2.658.249-4.29-.27a38.991 38.991 0 0 1-3.882-1.434c-6.387-2.758-10.702-8.949-11.515-10.115l-.118-.168-.003-.003c-.35-.466-2.778-3.697-2.778-7.04 0-3.136 1.54-4.78 2.25-5.537l.133-.145c.625-.682 1.363-.852 1.817-.852.453 0 .908.004 1.305.024.049.002.1.002.152.001.397-.002.892-.005 1.38 1.167.188.453.465 1.125.755 1.833.586 1.425 1.231 2.996 1.345 3.224.17.34.283.738.056 1.193l-.097.196c-.17.347-.295.602-.584.94-.113.132-.23.274-.347.417-.235.286-.47.572-.674.776-.341.339-.696.707-.298 1.39.397.68 1.764 2.91 3.788 4.716 2.175 1.942 4.067 2.762 5.026 3.178.187.08.34.147.45.203.68.34 1.078.284 1.476-.17.397-.455 1.702-1.988 2.156-2.67.454-.683.908-.569 1.532-.342Z" fill="#fff"/><path stroke="#fff" stroke-width="2" d="M1 1h98v98H1z"/></svg>