<svg xmlns="http://www.w3.org/2000/svg" width="100" height="100" fill="none"><path d="M74.374 39.064c-.474-3.743-2.636-6.092-6.475-6.438C63.504 32.228 53.99 32 49.577 32c-9.027 0-13.06.22-17.33.662-4.067.42-5.848 2.228-6.548 5.96-.49 2.615-.699 5.065-.699 10.853 0 5.2.246 8.47.626 11.222.522 3.778 3.116 5.901 6.917 6.218 4.422.368 13.28.552 17.66.552 4.231 0 13.756-.22 17.99-.7 3.79-.427 5.593-2.452 6.181-6.18 0 0 .626-4.084.626-11.148 0-4.023-.294-7.763-.626-10.375Zm-29.69 17.697V42.387L58.37 49.5l-13.686 7.26Z" fill="#31373E"/><path stroke="#31373E" stroke-width="2" d="M1 1h98v98H1z"/></svg>