<svg width="439" height="46" viewBox="0 0 439 46" fill="none" xmlns="http://www.w3.org/2000/svg">
<rect width="439" height="46" rx="10" fill="#F09E00"/>
<path d="M67.6766 27.26V35.9H65.5166V16.55H67.6766V18.29C68.7766 16.93 70.1966 16.25 71.9366 16.25C73.7966 16.25 75.2666 16.91 76.3466 18.23C77.4466 19.53 77.9966 21.07 77.9966 22.85C77.9966 24.65 77.4566 26.19 76.3766 27.47C75.2966 28.73 73.8466 29.36 72.0266 29.36C70.2066 29.36 68.7566 28.66 67.6766 27.26ZM71.7266 27.44C72.9466 27.44 73.9266 27 74.6666 26.12C75.4066 25.22 75.7766 24.13 75.7766 22.85C75.7766 21.41 75.3666 20.27 74.5466 19.43C73.7266 18.59 72.7766 18.17 71.6966 18.17C70.6166 18.17 69.6566 18.59 68.8166 19.43C67.9766 20.27 67.5566 21.4 67.5566 22.82C67.5566 24.12 67.9366 25.22 68.6966 26.12C69.4766 27 70.4866 27.44 71.7266 27.44ZM90.8476 18.32V16.55H93.0076V29H90.8476V27.26C89.7676 28.66 88.3476 29.36 86.5876 29.36C84.9076 29.36 83.4776 28.78 82.2976 27.62C81.1176 26.46 80.5276 24.84 80.5276 22.76C80.5276 20.72 81.1076 19.13 82.2676 17.99C83.4476 16.83 84.8876 16.25 86.5876 16.25C88.3876 16.25 89.8076 16.94 90.8476 18.32ZM86.8276 18.17C85.6876 18.17 84.7176 18.58 83.9176 19.4C83.1376 20.2 82.7476 21.32 82.7476 22.76C82.7476 24.14 83.1076 25.27 83.8276 26.15C84.5676 27.01 85.5676 27.44 86.8276 27.44C88.0876 27.44 89.0876 26.99 89.8276 26.09C90.5876 25.19 90.9676 24.09 90.9676 22.79C90.9676 21.31 90.5476 20.17 89.7076 19.37C88.8676 18.57 87.9076 18.17 86.8276 18.17ZM106.699 8H109.099C108.879 8.74 108.499 9.37 107.959 9.89C107.439 10.39 106.959 10.73 106.519 10.91C106.099 11.09 105.599 11.25 105.019 11.39C104.919 11.41 104.679 11.47 104.299 11.57C103.919 11.65 103.629 11.72 103.429 11.78C103.229 11.84 102.969 11.92 102.649 12.02C102.329 12.12 102.039 12.24 101.779 12.38C101.519 12.52 101.279 12.67 101.059 12.83C100.299 13.41 99.6786 14.22 99.1986 15.26C98.7386 16.28 98.4886 17.37 98.4486 18.53H98.5086C99.4086 17.01 100.919 16.25 103.039 16.25C104.899 16.25 106.439 16.88 107.659 18.14C108.899 19.4 109.519 20.96 109.519 22.82C109.519 24.7 108.889 26.26 107.629 27.5C106.369 28.74 104.729 29.36 102.709 29.36C100.969 29.36 99.5386 28.84 98.4186 27.8C97.0186 26.52 96.3186 24.38 96.3186 21.38C96.3186 16.16 97.4986 12.74 99.8586 11.12C100.039 11 100.229 10.89 100.429 10.79C100.629 10.67 100.839 10.57 101.059 10.49C101.299 10.39 101.499 10.31 101.659 10.25C101.819 10.17 102.039 10.1 102.319 10.04C102.619 9.96 102.819 9.91 102.919 9.89C103.039 9.85 103.259 9.8 103.579 9.74C103.919 9.66 104.129 9.61 104.209 9.59C105.009 9.41 105.589 9.2 105.949 8.96C106.309 8.7 106.559 8.38 106.699 8ZM106.009 19.4C105.169 18.58 104.139 18.17 102.919 18.17C101.699 18.17 100.659 18.59 99.7986 19.43C98.9586 20.25 98.5386 21.38 98.5386 22.82C98.5386 24.26 98.9686 25.39 99.8286 26.21C100.689 27.03 101.719 27.44 102.919 27.44C104.119 27.44 105.149 27.03 106.009 26.21C106.869 25.39 107.299 24.26 107.299 22.82C107.299 21.36 106.869 20.22 106.009 19.4ZM123.361 27.5C122.121 28.74 120.551 29.36 118.651 29.36C116.751 29.36 115.171 28.74 113.911 27.5C112.671 26.26 112.051 24.7 112.051 22.82C112.051 20.92 112.671 19.35 113.911 18.11C115.171 16.87 116.751 16.25 118.651 16.25C120.551 16.25 122.121 16.87 123.361 18.11C124.621 19.35 125.251 20.92 125.251 22.82C125.251 24.7 124.621 26.26 123.361 27.5ZM121.741 19.4C120.901 18.58 119.871 18.17 118.651 18.17C117.431 18.17 116.391 18.59 115.531 19.43C114.691 20.25 114.271 21.38 114.271 22.82C114.271 24.26 114.701 25.39 115.561 26.21C116.421 27.03 117.451 27.44 118.651 27.44C119.851 27.44 120.881 27.03 121.741 26.21C122.601 25.39 123.031 24.26 123.031 22.82C123.031 21.36 122.601 20.22 121.741 19.4ZM136.43 18.53H132.53V29H130.37V18.53H126.47V16.55H136.43V18.53ZM147.859 18.32V16.55H150.019V29H147.859V27.26C146.779 28.66 145.359 29.36 143.599 29.36C141.919 29.36 140.489 28.78 139.309 27.62C138.129 26.46 137.539 24.84 137.539 22.76C137.539 20.72 138.119 19.13 139.279 17.99C140.459 16.83 141.899 16.25 143.599 16.25C145.399 16.25 146.819 16.94 147.859 18.32ZM143.839 18.17C142.699 18.17 141.729 18.58 140.929 19.4C140.149 20.2 139.759 21.32 139.759 22.76C139.759 24.14 140.119 25.27 140.839 26.15C141.579 27.01 142.579 27.44 143.839 27.44C145.099 27.44 146.099 26.99 146.839 26.09C147.599 25.19 147.979 24.09 147.979 22.79C147.979 21.31 147.559 20.17 146.719 19.37C145.879 18.57 144.919 18.17 143.839 18.17ZM163.35 24.83L165.15 25.82C164.73 26.62 164.22 27.29 163.62 27.83C162.48 28.85 161.1 29.36 159.48 29.36C157.8 29.36 156.35 28.82 155.13 27.74C153.93 26.64 153.33 25.01 153.33 22.85C153.33 20.95 153.87 19.38 154.95 18.14C156.05 16.88 157.52 16.25 159.36 16.25C161.44 16.25 163.01 17.01 164.07 18.53C164.91 19.73 165.3 21.29 165.24 23.21H155.55C155.57 24.47 155.96 25.49 156.72 26.27C157.48 27.05 158.41 27.44 159.51 27.44C160.49 27.44 161.34 27.14 162.06 26.54C162.62 26.06 163.05 25.49 163.35 24.83ZM155.7 21.41H163.02C162.84 20.43 162.41 19.65 161.73 19.07C161.07 18.47 160.28 18.17 159.36 18.17C158.46 18.17 157.66 18.48 156.96 19.1C156.28 19.7 155.86 20.47 155.7 21.41ZM167.114 29L170.114 15.59L175.274 25.73L180.314 15.59L183.314 29H181.094L179.444 21.29L175.214 29.87L170.924 21.29L169.334 29H167.114ZM199.618 29V24.11C198.438 24.29 197.458 24.38 196.678 24.38C195.318 24.38 194.308 24.08 193.648 23.48C192.948 22.86 192.598 21.84 192.598 20.42V16.55H194.758V20.12C194.758 20.8 194.848 21.29 195.028 21.59C195.308 22.13 195.938 22.4 196.918 22.4C197.798 22.4 198.698 22.31 199.618 22.13V16.55H201.778V29H199.618ZM215.089 24.83L216.889 25.82C216.469 26.62 215.959 27.29 215.359 27.83C214.219 28.85 212.839 29.36 211.219 29.36C209.539 29.36 208.089 28.82 206.869 27.74C205.669 26.64 205.069 25.01 205.069 22.85C205.069 20.95 205.609 19.38 206.689 18.14C207.789 16.88 209.259 16.25 211.099 16.25C213.179 16.25 214.749 17.01 215.809 18.53C216.649 19.73 217.039 21.29 216.979 23.21H207.289C207.309 24.47 207.699 25.49 208.459 26.27C209.219 27.05 210.149 27.44 211.249 27.44C212.229 27.44 213.079 27.14 213.799 26.54C214.359 26.06 214.789 25.49 215.089 24.83ZM207.439 21.41H214.759C214.579 20.43 214.149 19.65 213.469 19.07C212.809 18.47 212.019 18.17 211.099 18.17C210.199 18.17 209.399 18.48 208.699 19.1C208.019 19.7 207.599 20.47 207.439 21.41ZM222.452 27.26V35.9H220.292V16.55H222.452V18.29C223.552 16.93 224.972 16.25 226.712 16.25C228.572 16.25 230.042 16.91 231.122 18.23C232.222 19.53 232.772 21.07 232.772 22.85C232.772 24.65 232.232 26.19 231.152 27.47C230.072 28.73 228.622 29.36 226.802 29.36C224.982 29.36 223.532 28.66 222.452 27.26ZM226.502 27.44C227.722 27.44 228.702 27 229.442 26.12C230.182 25.22 230.552 24.13 230.552 22.85C230.552 21.41 230.142 20.27 229.322 19.43C228.502 18.59 227.552 18.17 226.472 18.17C225.392 18.17 224.432 18.59 223.592 19.43C222.752 20.27 222.332 21.4 222.332 22.82C222.332 24.12 222.712 25.22 223.472 26.12C224.252 27 225.262 27.44 226.502 27.44ZM245.323 24.83L247.123 25.82C246.703 26.62 246.193 27.29 245.593 27.83C244.453 28.85 243.073 29.36 241.453 29.36C239.773 29.36 238.323 28.82 237.103 27.74C235.903 26.64 235.303 25.01 235.303 22.85C235.303 20.95 235.843 19.38 236.923 18.14C238.023 16.88 239.493 16.25 241.333 16.25C243.413 16.25 244.983 17.01 246.043 18.53C246.883 19.73 247.273 21.29 247.213 23.21H237.523C237.543 24.47 237.933 25.49 238.693 26.27C239.453 27.05 240.383 27.44 241.483 27.44C242.463 27.44 243.313 27.14 244.033 26.54C244.593 26.06 245.023 25.49 245.323 24.83ZM237.673 21.41H244.993C244.813 20.43 244.383 19.65 243.703 19.07C243.043 18.47 242.253 18.17 241.333 18.17C240.433 18.17 239.633 18.48 238.933 19.1C238.253 19.7 237.833 20.47 237.673 21.41ZM251.853 19.73L250.353 18.5C250.833 17.8 251.363 17.28 251.943 16.94C252.723 16.48 253.633 16.25 254.673 16.25C255.933 16.25 256.913 16.54 257.613 17.12C258.333 17.74 258.693 18.53 258.693 19.49C258.693 20.65 258.223 21.52 257.283 22.1C257.883 22.24 258.363 22.51 258.723 22.91C259.303 23.53 259.593 24.29 259.593 25.19C259.593 26.53 259.053 27.6 257.973 28.4C257.093 29.04 255.913 29.36 254.433 29.36C253.113 29.36 252.003 29.01 251.103 28.31C250.423 27.81 249.873 27.1 249.453 26.18L251.313 25.4C251.533 25.96 251.903 26.43 252.423 26.81C252.983 27.23 253.663 27.44 254.463 27.44C255.403 27.44 256.103 27.28 256.563 26.96C257.143 26.58 257.433 26 257.433 25.22C257.433 24.58 257.183 24.1 256.683 23.78C256.263 23.5 255.583 23.36 254.643 23.36H253.383V21.38H254.433C255.193 21.38 255.733 21.27 256.053 21.05C256.493 20.77 256.713 20.39 256.713 19.91C256.713 19.35 256.533 18.92 256.173 18.62C255.833 18.32 255.303 18.17 254.583 18.17C253.963 18.17 253.393 18.33 252.873 18.65C252.433 18.93 252.093 19.29 251.853 19.73ZM269.112 18.98V16.88C270.152 16.46 271.282 16.25 272.502 16.25C274.602 16.25 276.252 16.86 277.452 18.08C278.672 19.3 279.282 20.89 279.282 22.85C279.282 24.75 278.662 26.31 277.422 27.53C276.202 28.75 274.612 29.36 272.652 29.36C271.412 29.36 270.232 29.13 269.112 28.67V26.57C270.212 27.15 271.382 27.44 272.622 27.44C273.782 27.44 274.782 27.09 275.622 26.39C276.462 25.67 276.942 24.74 277.062 23.6H270.492V21.68H277.062C276.822 20.58 276.292 19.72 275.472 19.1C274.652 18.48 273.692 18.17 272.592 18.17C271.432 18.17 270.272 18.44 269.112 18.98ZM292.327 17.45V20.03C291.347 18.79 290.047 18.17 288.427 18.17C287.207 18.17 286.167 18.59 285.307 19.43C284.447 20.25 284.017 21.38 284.017 22.82C284.017 24.26 284.447 25.39 285.307 26.21C286.167 27.03 287.197 27.44 288.397 27.44C289.997 27.44 291.337 26.79 292.417 25.49V28.07C291.237 28.93 289.917 29.36 288.457 29.36C286.517 29.36 284.917 28.75 283.657 27.53C282.417 26.29 281.797 24.73 281.797 22.85C281.797 20.95 282.427 19.38 283.687 18.14C284.947 16.88 286.537 16.25 288.457 16.25C289.897 16.25 291.187 16.65 292.327 17.45ZM295.731 16.55H297.891V21.65L302.931 16.55H305.571L300.171 22.1L306.231 29H303.411L298.551 23.54L297.891 24.17V29H295.731V16.55ZM310.548 27.26V35.9H308.388V16.55H310.548V18.29C311.648 16.93 313.068 16.25 314.808 16.25C316.668 16.25 318.138 16.91 319.218 18.23C320.318 19.53 320.868 21.07 320.868 22.85C320.868 24.65 320.328 26.19 319.248 27.47C318.168 28.73 316.718 29.36 314.898 29.36C313.078 29.36 311.628 28.66 310.548 27.26ZM314.598 27.44C315.818 27.44 316.798 27 317.538 26.12C318.278 25.22 318.648 24.13 318.648 22.85C318.648 21.41 318.238 20.27 317.418 19.43C316.598 18.59 315.648 18.17 314.568 18.17C313.488 18.17 312.528 18.59 311.688 19.43C310.848 20.27 310.428 21.4 310.428 22.82C310.428 24.12 310.808 25.22 311.568 26.12C312.348 27 313.358 27.44 314.598 27.44ZM334.709 27.5C333.469 28.74 331.899 29.36 329.999 29.36C328.099 29.36 326.519 28.74 325.259 27.5C324.019 26.26 323.399 24.7 323.399 22.82C323.399 20.92 324.019 19.35 325.259 18.11C326.519 16.87 328.099 16.25 329.999 16.25C331.899 16.25 333.469 16.87 334.709 18.11C335.969 19.35 336.599 20.92 336.599 22.82C336.599 24.7 335.969 26.26 334.709 27.5ZM333.089 19.4C332.249 18.58 331.219 18.17 329.999 18.17C328.779 18.17 327.739 18.59 326.879 19.43C326.039 20.25 325.619 21.38 325.619 22.82C325.619 24.26 326.049 25.39 326.909 26.21C327.769 27.03 328.799 27.44 329.999 27.44C331.199 27.44 332.229 27.03 333.089 26.21C333.949 25.39 334.379 24.26 334.379 22.82C334.379 21.36 333.949 20.22 333.089 19.4ZM339.881 35.9L343.841 27.83L338.111 16.55H340.571L344.981 25.46L349.031 16.55H351.431L342.281 35.9H339.881ZM354.43 23.72V21.5H361.03V23.72H354.43ZM374.329 17.45V20.03C373.349 18.79 372.049 18.17 370.429 18.17C369.209 18.17 368.169 18.59 367.309 19.43C366.449 20.25 366.019 21.38 366.019 22.82C366.019 24.26 366.449 25.39 367.309 26.21C368.169 27.03 369.199 27.44 370.399 27.44C371.999 27.44 373.339 26.79 374.419 25.49V28.07C373.239 28.93 371.919 29.36 370.459 29.36C368.519 29.36 366.919 28.75 365.659 27.53C364.419 26.29 363.799 24.73 363.799 22.85C363.799 20.95 364.429 19.38 365.689 18.14C366.949 16.88 368.539 16.25 370.459 16.25C371.899 16.25 373.189 16.65 374.329 17.45ZM384.393 29V24.11C383.213 24.29 382.233 24.38 381.453 24.38C380.093 24.38 379.083 24.08 378.423 23.48C377.723 22.86 377.373 21.84 377.373 20.42V16.55H379.533V20.12C379.533 20.8 379.623 21.29 379.803 21.59C380.083 22.13 380.713 22.4 381.693 22.4C382.573 22.4 383.473 22.31 384.393 22.13V16.55H386.553V29H384.393ZM399.864 24.83L401.664 25.82C401.244 26.62 400.734 27.29 400.134 27.83C398.994 28.85 397.614 29.36 395.994 29.36C394.314 29.36 392.864 28.82 391.644 27.74C390.444 26.64 389.844 25.01 389.844 22.85C389.844 20.95 390.384 19.38 391.464 18.14C392.564 16.88 394.034 16.25 395.874 16.25C397.954 16.25 399.524 17.01 400.584 18.53C401.424 19.73 401.814 21.29 401.754 23.21H392.064C392.084 24.47 392.474 25.49 393.234 26.27C393.994 27.05 394.924 27.44 396.024 27.44C397.004 27.44 397.854 27.14 398.574 26.54C399.134 26.06 399.564 25.49 399.864 24.83ZM392.214 21.41H399.534C399.354 20.43 398.924 19.65 398.244 19.07C397.584 18.47 396.794 18.17 395.874 18.17C394.974 18.17 394.174 18.48 393.474 19.1C392.794 19.7 392.374 20.47 392.214 21.41ZM392.334 13.55C392.034 13.25 391.884 12.9 391.884 12.5C391.884 12.1 392.034 11.75 392.334 11.45C392.634 11.15 392.984 11 393.384 11C393.784 11 394.134 11.15 394.434 11.45C394.734 11.75 394.884 12.1 394.884 12.5C394.884 12.9 394.734 13.25 394.434 13.55C394.134 13.85 393.784 14 393.384 14C392.984 14 392.634 13.85 392.334 13.55ZM397.554 13.55C397.254 13.25 397.104 12.9 397.104 12.5C397.104 12.1 397.254 11.75 397.554 11.45C397.854 11.15 398.204 11 398.604 11C399.004 11 399.354 11.15 399.654 11.45C399.954 11.75 400.104 12.1 400.104 12.5C400.104 12.9 399.954 13.25 399.654 13.55C399.354 13.85 399.004 14 398.604 14C398.204 14 397.854 13.85 397.554 13.55ZM413.227 18.53H409.327V29H407.167V18.53H403.267V16.55H413.227V18.53Z" fill="white"/>
<path d="M54.9435 33.6328H24V35.9975H54.9435V33.6328Z" fill="white"/>
<path d="M53.0155 30.7422H25.9492V33.1069H53.0155V30.7422Z" fill="white"/>
<path d="M54.4505 14.7973H24.5195L39.485 3L54.4505 14.7973Z" fill="white"/>
<path d="M31.948 16.056V16.1348C31.948 16.5289 31.6517 16.8705 31.2566 16.8705H27.6016C27.2312 16.8705 26.9102 16.5289 26.9102 16.1348V16.056C26.9102 15.6619 27.2065 15.3203 27.6016 15.3203H31.2566C31.6517 15.3203 31.948 15.6356 31.948 16.056Z" fill="white"/>
<path d="M31.948 29.3997V29.4786C31.948 29.8727 31.6517 30.2143 31.2566 30.2143H27.6016C27.2312 30.2143 26.9102 29.8727 26.9102 29.4786V29.3997C26.9102 29.0056 27.2065 28.6641 27.6016 28.6641H31.2566C31.6517 28.6641 31.948 28.9794 31.948 29.3997Z" fill="white"/>
<path d="M30.7648 17.3906H28.0977V28.1106H30.7648V17.3906Z" fill="white"/>
<path d="M52.0535 16.056V16.1348C52.0535 16.5289 51.7572 16.8705 51.362 16.8705H47.7071C47.3367 16.8705 47.0156 16.5289 47.0156 16.1348V16.056C47.0156 15.6619 47.312 15.3203 47.7071 15.3203H51.362C51.7325 15.3203 52.0535 15.6356 52.0535 16.056Z" fill="white"/>
<path d="M50.839 17.3906H48.1719V28.1106H50.839V17.3906Z" fill="white"/>
<path d="M52.0535 29.3997V29.4786C52.0535 29.8727 51.7572 30.2143 51.362 30.2143H47.7071C47.3367 30.2143 47.0156 29.8727 47.0156 29.4786V29.3997C47.0156 29.0056 47.312 28.6641 47.7071 28.6641H51.362C51.7325 28.6641 52.0535 28.9794 52.0535 29.3997Z" fill="white"/>
<path d="M44.5222 18.1397C41.2377 18.1397 39.756 16.5895 39.7313 16.5632C39.6819 16.5106 39.6325 16.4844 39.5584 16.4844C39.4843 16.4844 39.4349 16.5106 39.3855 16.5632C39.3608 16.5895 37.9038 18.1397 34.5946 18.1397C34.4464 18.1397 34.3477 18.2448 34.3477 18.4024V22.3699C34.3477 24.5506 35.4096 26.6263 37.1876 27.9401C37.9038 28.4656 38.6694 28.8334 39.4843 29.0436C39.509 29.0436 39.5337 29.0436 39.5584 29.0436C39.5831 29.0436 39.6078 29.0436 39.6078 29.0436C40.4228 28.8334 41.1883 28.4393 41.9045 27.9401C43.6826 26.6526 44.7692 24.5769 44.7692 22.3699V18.4024C44.7692 18.271 44.6704 18.1397 44.5222 18.1397ZM39.5584 27.4408C39.1139 27.2569 38.6694 27.0205 38.2495 26.7314C36.8419 25.7067 36.0023 24.0777 36.0023 22.3436V19.6373C37.6322 19.4008 38.8175 18.8754 39.5584 18.455C40.2993 18.9016 41.4847 19.4271 43.1146 19.6373V22.3436C43.1146 24.0777 42.2749 25.7067 40.8673 26.7314C40.4721 27.0205 40.0276 27.2569 39.5584 27.4408Z" fill="white"/>
<path d="M38.8608 24.9398C38.7867 24.9398 38.7126 24.8872 38.6632 24.8347L37.6013 23.3896C37.5273 23.2845 37.5273 23.1006 37.6507 23.0217C37.7495 22.9429 37.9224 22.9429 37.9965 23.0743L38.8608 24.2829L41.5526 21.2351C41.6514 21.13 41.7996 21.13 41.8984 21.2351C41.9971 21.3402 41.9971 21.4978 41.8984 21.6029L39.0337 24.861C38.9843 24.9135 38.9349 24.9398 38.8608 24.9398Z" fill="white"/>
</svg>
