<svg width="439" height="47" viewBox="0 0 439 47" fill="none" xmlns="http://www.w3.org/2000/svg">
<rect width="439" height="47" rx="10" fill="#F09E00"/>
<path d="M58.48 28.144V37.36H56.176V16.72H58.48V18.576C59.6533 17.1253 61.168 16.4 63.024 16.4C65.008 16.4 66.576 17.104 67.728 18.512C68.9013 19.8987 69.488 21.5413 69.488 23.44C69.488 25.36 68.912 27.0027 67.76 28.368C66.608 29.712 65.0613 30.384 63.12 30.384C61.1787 30.384 59.632 29.6373 58.48 28.144ZM62.8 28.336C64.1013 28.336 65.1467 27.8667 65.936 26.928C66.7253 25.968 67.12 24.8053 67.12 23.44C67.12 21.904 66.6827 20.688 65.808 19.792C64.9333 18.896 63.92 18.448 62.768 18.448C61.616 18.448 60.592 18.896 59.696 19.792C58.8 20.688 58.352 21.8933 58.352 23.408C58.352 24.7947 58.7573 25.968 59.568 26.928C60.4 27.8667 61.4773 28.336 62.8 28.336ZM83.1958 18.608V16.72H85.4998V30H83.1958V28.144C82.0438 29.6373 80.5291 30.384 78.6518 30.384C76.8598 30.384 75.3344 29.7653 74.0758 28.528C72.8171 27.2907 72.1878 25.5627 72.1878 23.344C72.1878 21.168 72.8064 19.472 74.0438 18.256C75.3024 17.0187 76.8384 16.4 78.6518 16.4C80.5718 16.4 82.0864 17.136 83.1958 18.608ZM78.9078 18.448C77.6918 18.448 76.6571 18.8853 75.8038 19.76C74.9718 20.6133 74.5558 21.808 74.5558 23.344C74.5558 24.816 74.9398 26.0213 75.7078 26.96C76.4971 27.8773 77.5638 28.336 78.9078 28.336C80.2518 28.336 81.3184 27.856 82.1078 26.896C82.9184 25.936 83.3238 24.7627 83.3238 23.376C83.3238 21.7973 82.8758 20.5813 81.9798 19.728C81.0838 18.8747 80.0598 18.448 78.9078 18.448ZM100.104 7.6H102.664C102.429 8.38933 102.024 9.06133 101.448 9.616C100.893 10.1493 100.381 10.512 99.9115 10.704C99.4635 10.896 98.9302 11.0667 98.3115 11.216C98.2048 11.2373 97.9488 11.3013 97.5435 11.408C97.1382 11.4933 96.8288 11.568 96.6155 11.632C96.4022 11.696 96.1248 11.7813 95.7835 11.888C95.4422 11.9947 95.1328 12.1227 94.8555 12.272C94.5782 12.4213 94.3222 12.5813 94.0875 12.752C93.2768 13.3707 92.6155 14.2347 92.1035 15.344C91.6128 16.432 91.3462 17.5947 91.3035 18.832H91.3675C92.3275 17.2107 93.9382 16.4 96.1995 16.4C98.1835 16.4 99.8262 17.072 101.128 18.416C102.45 19.76 103.112 21.424 103.112 23.408C103.112 25.4133 102.44 27.0773 101.096 28.4C99.7515 29.7227 98.0022 30.384 95.8475 30.384C93.9915 30.384 92.4662 29.8293 91.2715 28.72C89.7782 27.3547 89.0315 25.072 89.0315 21.872C89.0315 16.304 90.2902 12.656 92.8075 10.928C92.9995 10.8 93.2022 10.6827 93.4155 10.576C93.6288 10.448 93.8528 10.3413 94.0875 10.256C94.3435 10.1493 94.5568 10.064 94.7275 10C94.8982 9.91467 95.1328 9.84 95.4315 9.776C95.7515 9.69067 95.9648 9.63733 96.0715 9.616C96.1995 9.57333 96.4342 9.52 96.7755 9.456C97.1382 9.37067 97.3622 9.31733 97.4475 9.296C98.3008 9.104 98.9195 8.88 99.3035 8.624C99.6875 8.34667 99.9542 8.00533 100.104 7.6ZM99.3675 19.76C98.4715 18.8853 97.3728 18.448 96.0715 18.448C94.7702 18.448 93.6608 18.896 92.7435 19.792C91.8475 20.6667 91.3995 21.872 91.3995 23.408C91.3995 24.944 91.8582 26.1493 92.7755 27.024C93.6928 27.8987 94.7915 28.336 96.0715 28.336C97.3515 28.336 98.4502 27.8987 99.3675 27.024C100.285 26.1493 100.744 24.944 100.744 23.408C100.744 21.8507 100.285 20.6347 99.3675 19.76ZM117.877 28.4C116.554 29.7227 114.879 30.384 112.853 30.384C110.826 30.384 109.141 29.7227 107.797 28.4C106.474 27.0773 105.813 25.4133 105.813 23.408C105.813 21.3813 106.474 19.7067 107.797 18.384C109.141 17.0613 110.826 16.4 112.853 16.4C114.879 16.4 116.554 17.0613 117.877 18.384C119.221 19.7067 119.893 21.3813 119.893 23.408C119.893 25.4133 119.221 27.0773 117.877 28.4ZM116.149 19.76C115.253 18.8853 114.154 18.448 112.853 18.448C111.551 18.448 110.442 18.896 109.525 19.792C108.629 20.6667 108.181 21.872 108.181 23.408C108.181 24.944 108.639 26.1493 109.557 27.024C110.474 27.8987 111.573 28.336 112.853 28.336C114.133 28.336 115.231 27.8987 116.149 27.024C117.066 26.1493 117.525 24.944 117.525 23.408C117.525 21.8507 117.066 20.6347 116.149 19.76ZM131.818 18.832H127.658V30H125.354V18.832H121.194V16.72H131.818V18.832ZM144.008 18.608V16.72H146.312V30H144.008V28.144C142.856 29.6373 141.342 30.384 139.464 30.384C137.672 30.384 136.147 29.7653 134.888 28.528C133.63 27.2907 133 25.5627 133 23.344C133 21.168 133.619 19.472 134.856 18.256C136.115 17.0187 137.651 16.4 139.464 16.4C141.384 16.4 142.899 17.136 144.008 18.608ZM139.72 18.448C138.504 18.448 137.47 18.8853 136.616 19.76C135.784 20.6133 135.368 21.808 135.368 23.344C135.368 24.816 135.752 26.0213 136.52 26.96C137.31 27.8773 138.376 28.336 139.72 28.336C141.064 28.336 142.131 27.856 142.92 26.896C143.731 25.936 144.136 24.7627 144.136 23.376C144.136 21.7973 143.688 20.5813 142.792 19.728C141.896 18.8747 140.872 18.448 139.72 18.448ZM160.532 25.552L162.452 26.608C162.004 27.4613 161.46 28.176 160.82 28.752C159.604 29.84 158.132 30.384 156.404 30.384C154.612 30.384 153.065 29.808 151.764 28.656C150.484 27.4827 149.844 25.744 149.844 23.44C149.844 21.4133 150.42 19.7387 151.572 18.416C152.745 17.072 154.313 16.4 156.276 16.4C158.495 16.4 160.169 17.2107 161.3 18.832C162.196 20.112 162.612 21.776 162.548 23.824H152.212C152.233 25.168 152.649 26.256 153.46 27.088C154.271 27.92 155.263 28.336 156.436 28.336C157.481 28.336 158.388 28.016 159.156 27.376C159.753 26.864 160.212 26.256 160.532 25.552ZM152.372 21.904H160.18C159.988 20.8587 159.529 20.0267 158.804 19.408C158.1 18.768 157.257 18.448 156.276 18.448C155.316 18.448 154.463 18.7787 153.716 19.44C152.991 20.08 152.543 20.9013 152.372 21.904ZM164.546 30L167.746 15.696L173.25 26.512L178.626 15.696L181.826 30H179.458L177.698 21.776L173.186 30.928L168.61 21.776L166.914 30H164.546ZM199.218 30V24.784C197.959 24.976 196.914 25.072 196.082 25.072C194.631 25.072 193.554 24.752 192.85 24.112C192.103 23.4507 191.73 22.3627 191.73 20.848V16.72H194.034V20.528C194.034 21.2533 194.13 21.776 194.322 22.096C194.62 22.672 195.292 22.96 196.338 22.96C197.276 22.96 198.236 22.864 199.218 22.672V16.72H201.522V30H199.218ZM215.72 25.552L217.64 26.608C217.192 27.4613 216.648 28.176 216.008 28.752C214.792 29.84 213.32 30.384 211.592 30.384C209.8 30.384 208.253 29.808 206.952 28.656C205.672 27.4827 205.032 25.744 205.032 23.44C205.032 21.4133 205.608 19.7387 206.76 18.416C207.933 17.072 209.501 16.4 211.464 16.4C213.682 16.4 215.357 17.2107 216.488 18.832C217.384 20.112 217.8 21.776 217.736 23.824H207.4C207.421 25.168 207.837 26.256 208.648 27.088C209.458 27.92 210.45 28.336 211.624 28.336C212.669 28.336 213.576 28.016 214.344 27.376C214.941 26.864 215.4 26.256 215.72 25.552ZM207.56 21.904H215.368C215.176 20.8587 214.717 20.0267 213.992 19.408C213.288 18.768 212.445 18.448 211.464 18.448C210.504 18.448 209.65 18.7787 208.904 19.44C208.178 20.08 207.73 20.9013 207.56 21.904ZM223.574 28.144V37.36H221.27V16.72H223.574V18.576C224.747 17.1253 226.262 16.4 228.118 16.4C230.102 16.4 231.67 17.104 232.822 18.512C233.995 19.8987 234.582 21.5413 234.582 23.44C234.582 25.36 234.006 27.0027 232.854 28.368C231.702 29.712 230.155 30.384 228.214 30.384C226.272 30.384 224.726 29.6373 223.574 28.144ZM227.894 28.336C229.195 28.336 230.24 27.8667 231.03 26.928C231.819 25.968 232.214 24.8053 232.214 23.44C232.214 21.904 231.776 20.688 230.902 19.792C230.027 18.896 229.014 18.448 227.862 18.448C226.71 18.448 225.686 18.896 224.79 19.792C223.894 20.688 223.446 21.8933 223.446 23.408C223.446 24.7947 223.851 25.968 224.662 26.928C225.494 27.8667 226.571 28.336 227.894 28.336ZM247.97 25.552L249.89 26.608C249.442 27.4613 248.898 28.176 248.258 28.752C247.042 29.84 245.57 30.384 243.842 30.384C242.05 30.384 240.503 29.808 239.202 28.656C237.922 27.4827 237.282 25.744 237.282 23.44C237.282 21.4133 237.858 19.7387 239.01 18.416C240.183 17.072 241.751 16.4 243.714 16.4C245.932 16.4 247.607 17.2107 248.738 18.832C249.634 20.112 250.05 21.776 249.986 23.824H239.65C239.671 25.168 240.087 26.256 240.898 27.088C241.708 27.92 242.7 28.336 243.874 28.336C244.919 28.336 245.826 28.016 246.594 27.376C247.191 26.864 247.65 26.256 247.97 25.552ZM239.81 21.904H247.618C247.426 20.8587 246.967 20.0267 246.242 19.408C245.538 18.768 244.695 18.448 243.714 18.448C242.754 18.448 241.9 18.7787 241.154 19.44C240.428 20.08 239.98 20.9013 239.81 21.904ZM254.935 20.112L253.335 18.8C253.847 18.0533 254.413 17.4987 255.031 17.136C255.863 16.6453 256.834 16.4 257.943 16.4C259.287 16.4 260.333 16.7093 261.079 17.328C261.847 17.9893 262.231 18.832 262.231 19.856C262.231 21.0933 261.73 22.0213 260.727 22.64C261.367 22.7893 261.879 23.0773 262.263 23.504C262.882 24.1653 263.191 24.976 263.191 25.936C263.191 27.3653 262.615 28.5067 261.463 29.36C260.525 30.0427 259.266 30.384 257.687 30.384C256.279 30.384 255.095 30.0107 254.135 29.264C253.41 28.7307 252.823 27.9733 252.375 26.992L254.359 26.16C254.594 26.7573 254.989 27.2587 255.543 27.664C256.141 28.112 256.866 28.336 257.719 28.336C258.722 28.336 259.469 28.1653 259.959 27.824C260.578 27.4187 260.887 26.8 260.887 25.968C260.887 25.2853 260.621 24.7733 260.087 24.432C259.639 24.1333 258.914 23.984 257.911 23.984H256.567V21.872H257.687C258.498 21.872 259.074 21.7547 259.415 21.52C259.885 21.2213 260.119 20.816 260.119 20.304C260.119 19.7067 259.927 19.248 259.543 18.928C259.181 18.608 258.615 18.448 257.847 18.448C257.186 18.448 256.578 18.6187 256.023 18.96C255.554 19.2587 255.191 19.6427 254.935 20.112ZM273.344 19.312V17.072C274.453 16.624 275.659 16.4 276.96 16.4C279.2 16.4 280.96 17.0507 282.24 18.352C283.541 19.6533 284.192 21.3493 284.192 23.44C284.192 25.4667 283.531 27.1307 282.208 28.432C280.907 29.7333 279.211 30.384 277.12 30.384C275.797 30.384 274.539 30.1387 273.344 29.648V27.408C274.517 28.0267 275.765 28.336 277.088 28.336C278.325 28.336 279.392 27.9627 280.288 27.216C281.184 26.448 281.696 25.456 281.824 24.24H274.816V22.192H281.824C281.568 21.0187 281.003 20.1013 280.128 19.44C279.253 18.7787 278.229 18.448 277.056 18.448C275.819 18.448 274.581 18.736 273.344 19.312ZM298.107 17.68V20.432C297.062 19.1093 295.675 18.448 293.947 18.448C292.646 18.448 291.537 18.896 290.619 19.792C289.702 20.6667 289.243 21.872 289.243 23.408C289.243 24.944 289.702 26.1493 290.619 27.024C291.537 27.8987 292.635 28.336 293.915 28.336C295.622 28.336 297.051 27.6427 298.203 26.256V29.008C296.945 29.9253 295.537 30.384 293.979 30.384C291.91 30.384 290.203 29.7333 288.859 28.432C287.537 27.1093 286.875 25.4453 286.875 23.44C286.875 21.4133 287.547 19.7387 288.891 18.416C290.235 17.072 291.931 16.4 293.979 16.4C295.515 16.4 296.891 16.8267 298.107 17.68ZM301.739 16.72H304.043V22.16L309.419 16.72H312.235L306.475 22.64L312.939 30H309.931L304.747 24.176L304.043 24.848V30H301.739V16.72ZM317.543 28.144V37.36H315.239V16.72H317.543V18.576C318.716 17.1253 320.231 16.4 322.087 16.4C324.071 16.4 325.639 17.104 326.791 18.512C327.964 19.8987 328.551 21.5413 328.551 23.44C328.551 25.36 327.975 27.0027 326.823 28.368C325.671 29.712 324.124 30.384 322.183 30.384C320.241 30.384 318.695 29.6373 317.543 28.144ZM321.863 28.336C323.164 28.336 324.209 27.8667 324.999 26.928C325.788 25.968 326.183 24.8053 326.183 23.44C326.183 21.904 325.745 20.688 324.871 19.792C323.996 18.896 322.983 18.448 321.831 18.448C320.679 18.448 319.655 18.896 318.759 19.792C317.863 20.688 317.415 21.8933 317.415 23.408C317.415 24.7947 317.82 25.968 318.631 26.928C319.463 27.8667 320.54 28.336 321.863 28.336ZM343.314 28.4C341.992 29.7227 340.317 30.384 338.29 30.384C336.264 30.384 334.578 29.7227 333.234 28.4C331.912 27.0773 331.25 25.4133 331.25 23.408C331.25 21.3813 331.912 19.7067 333.234 18.384C334.578 17.0613 336.264 16.4 338.29 16.4C340.317 16.4 341.992 17.0613 343.314 18.384C344.658 19.7067 345.33 21.3813 345.33 23.408C345.33 25.4133 344.658 27.0773 343.314 28.4ZM341.586 19.76C340.69 18.8853 339.592 18.448 338.29 18.448C336.989 18.448 335.88 18.896 334.962 19.792C334.066 20.6667 333.618 21.872 333.618 23.408C333.618 24.944 334.077 26.1493 334.994 27.024C335.912 27.8987 337.01 28.336 338.29 28.336C339.57 28.336 340.669 27.8987 341.586 27.024C342.504 26.1493 342.962 24.944 342.962 23.408C342.962 21.8507 342.504 20.6347 341.586 19.76ZM348.832 37.36L353.056 28.752L346.944 16.72H349.568L354.272 26.224L358.592 16.72H361.152L351.391 37.36H348.832ZM364.35 24.368V22H371.39V24.368H364.35ZM385.576 17.68V20.432C384.531 19.1093 383.144 18.448 381.416 18.448C380.115 18.448 379.005 18.896 378.088 19.792C377.171 20.6667 376.712 21.872 376.712 23.408C376.712 24.944 377.171 26.1493 378.088 27.024C379.005 27.8987 380.104 28.336 381.384 28.336C383.091 28.336 384.52 27.6427 385.672 26.256V29.008C384.413 29.9253 383.005 30.384 381.448 30.384C379.379 30.384 377.672 29.7333 376.328 28.432C375.005 27.1093 374.344 25.4453 374.344 23.44C374.344 21.4133 375.016 19.7387 376.36 18.416C377.704 17.072 379.4 16.4 381.448 16.4C382.984 16.4 384.36 16.8267 385.576 17.68ZM396.311 30V24.784C395.053 24.976 394.007 25.072 393.175 25.072C391.725 25.072 390.647 24.752 389.943 24.112C389.197 23.4507 388.823 22.3627 388.823 20.848V16.72H391.127V20.528C391.127 21.2533 391.223 21.776 391.415 22.096C391.714 22.672 392.386 22.96 393.431 22.96C394.37 22.96 395.33 22.864 396.311 22.672V16.72H398.615V30H396.311ZM412.813 25.552L414.733 26.608C414.285 27.4613 413.741 28.176 413.101 28.752C411.885 29.84 410.413 30.384 408.685 30.384C406.893 30.384 405.347 29.808 404.045 28.656C402.765 27.4827 402.125 25.744 402.125 23.44C402.125 21.4133 402.701 19.7387 403.853 18.416C405.027 17.072 406.595 16.4 408.557 16.4C410.776 16.4 412.451 17.2107 413.581 18.832C414.477 20.112 414.893 21.776 414.829 23.824H404.493C404.515 25.168 404.931 26.256 405.741 27.088C406.552 27.92 407.544 28.336 408.717 28.336C409.763 28.336 410.669 28.016 411.437 27.376C412.035 26.864 412.493 26.256 412.813 25.552ZM404.653 21.904H412.461C412.269 20.8587 411.811 20.0267 411.085 19.408C410.381 18.768 409.539 18.448 408.557 18.448C407.597 18.448 406.744 18.7787 405.997 19.44C405.272 20.08 404.824 20.9013 404.653 21.904ZM404.781 13.52C404.461 13.2 404.301 12.8267 404.301 12.4C404.301 11.9733 404.461 11.6 404.781 11.28C405.101 10.96 405.475 10.8 405.901 10.8C406.328 10.8 406.701 10.96 407.021 11.28C407.341 11.6 407.501 11.9733 407.501 12.4C407.501 12.8267 407.341 13.2 407.021 13.52C406.701 13.84 406.328 14 405.901 14C405.475 14 405.101 13.84 404.781 13.52ZM410.349 13.52C410.029 13.2 409.869 12.8267 409.869 12.4C409.869 11.9733 410.029 11.6 410.349 11.28C410.669 10.96 411.043 10.8 411.469 10.8C411.896 10.8 412.269 10.96 412.589 11.28C412.909 11.6 413.069 11.9733 413.069 12.4C413.069 12.8267 412.909 13.2 412.589 13.52C412.269 13.84 411.896 14 411.469 14C411.043 14 410.669 13.84 410.349 13.52ZM427.068 18.832H422.908V30H420.604V18.832H416.444V16.72H427.068V18.832Z" fill="white"/>
<path d="M44.922 33.6328H12V35.9975H44.922V33.6328Z" fill="white"/>
<path d="M42.8711 30.7422H14.0742V33.1069H42.8711V30.7422Z" fill="white"/>
<path d="M44.3955 14.7973H12.5508L28.4731 3L44.3955 14.7973Z" fill="white"/>
<path d="M20.4577 16.056V16.1348C20.4577 16.5289 20.1424 16.8705 19.722 16.8705H15.8333C15.4392 16.8705 15.0977 16.5289 15.0977 16.1348V16.056C15.0977 15.6619 15.413 15.3203 15.8333 15.3203H19.722C20.1424 15.3203 20.4577 15.6356 20.4577 16.056Z" fill="white"/>
<path d="M20.4577 29.3997V29.4786C20.4577 29.8727 20.1424 30.2143 19.722 30.2143H15.8333C15.4392 30.2143 15.0977 29.8727 15.0977 29.4786V29.3997C15.0977 29.0056 15.413 28.6641 15.8333 28.6641H19.722C20.1424 28.6641 20.4577 28.9794 20.4577 29.3997Z" fill="white"/>
<path d="M19.197 17.3906H16.3594V28.1106H19.197V17.3906Z" fill="white"/>
<path d="M41.8483 16.056V16.1348C41.8483 16.5289 41.533 16.8705 41.1126 16.8705H37.224C36.8299 16.8705 36.4883 16.5289 36.4883 16.1348V16.056C36.4883 15.6619 36.8036 15.3203 37.224 15.3203H41.1126C41.5067 15.3203 41.8483 15.6356 41.8483 16.056Z" fill="white"/>
<path d="M40.5564 17.3906H37.7188V28.1106H40.5564V17.3906Z" fill="white"/>
<path d="M41.8483 29.3997V29.4786C41.8483 29.8727 41.533 30.2143 41.1126 30.2143H37.224C36.8299 30.2143 36.4883 29.8727 36.4883 29.4786V29.3997C36.4883 29.0056 36.8036 28.6641 37.224 28.6641H41.1126C41.5067 28.6641 41.8483 28.9794 41.8483 29.3997Z" fill="white"/>
<path d="M33.8329 18.1397C30.3384 18.1397 28.7619 16.5895 28.7357 16.5632C28.6831 16.5106 28.6306 16.4844 28.5517 16.4844C28.4729 16.4844 28.4204 16.5106 28.3678 16.5632C28.3415 16.5895 26.7913 18.1397 23.2706 18.1397C23.1129 18.1397 23.0078 18.2448 23.0078 18.4024V22.3699C23.0078 24.5506 24.1376 26.6263 26.0294 27.9401C26.7913 28.4656 27.6059 28.8334 28.4729 29.0436C28.4992 29.0436 28.5255 29.0436 28.5517 29.0436C28.578 29.0436 28.6043 29.0436 28.6043 29.0436C29.4713 28.8334 30.2859 28.4393 31.0478 27.9401C32.9396 26.6526 34.0957 24.5769 34.0957 22.3699V18.4024C34.0957 18.271 33.9906 18.1397 33.8329 18.1397ZM28.5517 27.4408C28.0788 27.2569 27.6059 27.0205 27.1592 26.7314C25.6615 25.7067 24.7682 24.0777 24.7682 22.3436V19.6373C26.5023 19.4008 27.7635 18.8754 28.5517 18.455C29.34 18.9016 30.6011 19.4271 32.3353 19.6373V22.3436C32.3353 24.0777 31.4419 25.7067 29.9443 26.7314C29.5239 27.0205 29.0509 27.2569 28.5517 27.4408Z" fill="white"/>
<path d="M27.8118 24.9398C27.7329 24.9398 27.6541 24.8872 27.6016 24.8347L26.4718 23.3896C26.3929 23.2845 26.3929 23.1006 26.5243 23.0217C26.6294 22.9429 26.8133 22.9429 26.8922 23.0743L27.8118 24.2829L30.6757 21.2351C30.7808 21.13 30.9384 21.13 31.0435 21.2351C31.1486 21.3402 31.1486 21.4978 31.0435 21.6029L27.9957 24.861C27.9431 24.9135 27.8906 24.9398 27.8118 24.9398Z" fill="white"/>
</svg>
