<svg xmlns="http://www.w3.org/2000/svg" width="100" height="100" fill="none" viewBox="-25 -25 150 150"><path fill="#fff" d="M17.567.001c-2.661.058-3.813.883-5.405 2.703l-9.46 10.81C.726 15.775 0 19.299 0 22.975c0 12.274 9.234 32.203 27.027 50C44.823 90.765 64.752 100 77.027 100c3.675 0 7.199-.725 9.459-2.703l10.81-9.459c1.82-1.592 2.645-2.744 2.703-5.405.042-1.96-1.12-3.822-2.703-5.406L82.432 62.163c-1.669-1.669-3.102-2.703-5.406-2.703-2.396 0-3.929 1.226-5.405 2.703l-5.405 5.405c-2.477 2.385-4.326 2.567-6.757 1.351L31.08 40.541c-1.216-2.431-1.034-4.28 1.351-6.756l5.405-5.406c1.477-1.476 2.703-3.01 2.703-5.405 0-2.304-1.034-3.737-2.703-5.405L22.973 2.704C21.389 1.12 19.528-.042 17.567 0"/></svg>