<svg xmlns="http://www.w3.org/2000/svg" width="101" height="101" fill="none"><path fill="#E29A01" d="M92.788 4.9h-17.67a1.5 1.5 0 0 0-1.5 1.5v5.538c-34.125.657-61.736 28.335-62.281 62.488H7.213a1.5 1.5 0 0 0-1.5 1.5V93.6a1.5 1.5 0 0 0 1.5 1.5h50.974a1.5 1.5 0 0 0 1.5-1.5V75.925a1.5 1.5 0 0 0-1.5-1.5h-7.708c.398-12.514 10.584-22.594 23.14-22.82v5.772a1.5 1.5 0 0 0 1.5 1.5h17.669a1.5 1.5 0 0 0 1.5-1.5V6.4a1.5 1.5 0 0 0-1.5-1.499Zm-43.01 59.443-31.02-11.632a60.7 60.7 0 0 1 11.87-18.546l23.445 23.498a26.7 26.7 0 0 0-4.294 6.68Zm6.909 27.755H8.713V77.425h47.974zm-42.35-17.673a60.2 60.2 0 0 1 3.36-18.908l31.008 11.626a26.5 26.5 0 0 0-1.226 7.281zM56.17 55.518 32.73 32.024A60.7 60.7 0 0 1 53.492 18.81l9.244 32.317a26.7 26.7 0 0 0-6.565 4.391ZM65.535 50l-9.206-32.183a60.3 60.3 0 0 1 17.29-2.879v33.667A26.4 26.4 0 0 0 65.535 50m25.753 5.877h-14.67V7.9h14.67z"/></svg>