<svg xmlns="http://www.w3.org/2000/svg" width="320" height="320" fill="none"><g clip-path="url(#a)"><path stroke="#000" d="M159.5 320V0M0 63.5h320m-320 64h320m-320 64h320m-320 64h320"/><path fill="#000" d="M16.8 15.66h9.84V29h-.88V16.46h-8.08V29h-.88zm13.877 11.88v6.06h-.8V20.84h.8v1.42q1.18-1.6 3.2-1.6 1.8 0 2.88 1.2 1.08 1.18 1.08 3 0 1.86-1.1 3.12-1.08 1.24-2.9 1.24-.92 0-1.66-.36-.74-.38-1.02-.68a5 5 0 0 1-.48-.64m.8-.1q.84 1.02 2.34 1.02t2.34-1.02.84-2.58q0-1.62-.92-2.52-.92-.92-2.24-.92-1.3 0-2.26.9-.94.9-.94 2.5 0 1.58.84 2.62m9.413-5.54q1.24-1.24 3.06-1.24c1.82 0 2.227.413 3.04 1.24q1.24 1.22 1.24 3.04c0 1.82-.413 2.233-1.24 3.06q-1.22 1.22-3.04 1.22c-1.82 0-2.233-.407-3.06-1.22q-1.22-1.24-1.22-3.06c0-1.82.407-2.227 1.22-3.04m.6 5.54q1 1.02 2.46 1.02t2.44-1.02q1-1.02 1-2.5t-1-2.5q-.98-1.02-2.44-1.02t-2.46 1.02q-.98 1.02-.98 2.5t.98 2.5M50.58 29v-8.16h.8v7.4h4.4v-7.4h.8v7.4h1.2v2.96h-.76V29zm16.187-3.98h-6.98q0 1.52.94 2.48.96.96 2.3.96.96 0 1.7-.5.741-.52 1.14-1.36l.68.4q-.46.88-1.34 1.56-.88.66-2.24.66-1.86 0-2.94-1.2-1.08-1.22-1.08-3.06 0-2.02 1.16-3.16 1.18-1.14 2.8-1.14 1.66 0 2.76 1.22t1.1 3.14m-6.92-.76h6.08q-.16-1.24-1-2.04-.82-.8-2.02-.8-1.22 0-2.06.82-.84.8-1 2.02M69.135 29v-8.16h.8v3.6h4.6v-3.6h.8V29h-.8v-3.8h-4.6V29zm10.642 0v-7.4h-2.84v-.76h6.48v.76h-2.84V29zm5.237 0v-8.16h.8v3.6h4.6v-3.6h.8V29h-.8v-3.8h-4.6V29zm15.722-6.74v-1.42h.8V29h-.8v-1.46q-1.1 1.68-3.18 1.68-1.659 0-2.82-1.18t-1.16-3.12q0-1.9 1.1-3.08t2.88-1.18q2.04 0 3.18 1.6m-3.14-.84q-1.3 0-2.24.94-.94.92-.94 2.5 0 1.46.86 2.54.861 1.06 2.34 1.06 1.46 0 2.3-1.04.86-1.06.86-2.56 0-1.66-.98-2.54-.98-.9-2.2-.9M103.53 29l2.6-3.56q-.94-.04-1.6-.6-.68-.6-.68-1.62 0-1.18.74-1.8.66-.58 1.94-.58h2.72V29h-.8v-3.52h-1.4L104.49 29zm4.92-4.28V21.6h-1.92q-.84 0-1.3.36-.54.46-.54 1.24 0 .76.52 1.16.48.36 1.32.36zM22.98 41.7v1.06q-1.16-1.34-2.82-1.34-1.48 0-2.44 1.02-.96 1-.96 2.52 0 1.64 1.02 2.58 1.02.92 2.34.92 1.62 0 2.96-1.46v1.08a4.34 4.34 0 0 1-2.98 1.14q-1.84 0-3.02-1.2-1.16-1.22-1.16-3.04 0-1.86 1.16-3.08 1.16-1.24 3.08-1.24 1.58 0 2.82 1.04m3.868 7.3v-7.4h-2.84v-.76h6.48v.76h-2.84V49zm11.447-6.74v-1.42h.8V49h-.8v-1.46q-1.1 1.68-3.18 1.68-1.66 0-2.82-1.18t-1.16-3.12q0-1.9 1.1-3.08t2.88-1.18q2.04 0 3.18 1.6m-3.14-.84q-1.3 0-2.24.94-.94.92-.94 2.5 0 1.46.86 2.54.86 1.06 2.34 1.06 1.46 0 2.3-1.04.86-1.06.86-2.56 0-1.66-.98-2.54-.98-.9-2.2-.9m6.812-.58h2.66q1.14 0 1.74.48.72.58.72 1.56 0 1.12-.9 1.7.56.08 1 .46.7.62.7 1.64 0 1.14-.82 1.76-.72.56-2 .56h-3.1zm.8 3.56h1.86q.74 0 1.16-.34.5-.4.5-1.08 0-.66-.5-1.06-.4-.32-1.16-.32h-1.86zm0 3.84h2.3q.92 0 1.4-.36.58-.44.58-1.22 0-.72-.54-1.14-.48-.36-1.44-.36h-2.3zm7.482-7.4h.8v3.88l4.12-3.88h1.08l-4.16 3.88 4.48 4.28h-1.16l-3.92-3.74-.44.42V49h-.8zm14.14 1.42v-1.42h.8V49h-.8v-1.46q-1.101 1.68-3.18 1.68-1.66 0-2.82-1.18t-1.16-3.12q0-1.9 1.1-3.08t2.88-1.18q2.04 0 3.18 1.6m-3.14-.84q-1.3 0-2.24.94-.94.92-.94 2.5 0 1.46.86 2.54.86 1.06 2.34 1.06 1.46 0 2.3-1.04.86-1.06.86-2.56 0-1.66-.98-2.54-.98-.9-2.2-.9"/><path fill="#4FAA6E" d="m176.16 39 6.08-10.4h-5.56v-2.94h10.94L179.98 39zm7.644 2.98 2.5-6.32h3l-3.44 6.32zm9.061-7.54h3.54q.039.84.54 1.34.48.52 1.36.52.82 0 1.36-.58.4-.46.4-1.1 0-.74-.52-1.18-.46-.38-1.28-.38-.34 0-.58.08V30.8q.88.12 1.42-.34.44-.38.44-.94 0-.6-.36-.96c-.36-.36-.567-.36-.98-.36q-.621 0-.96.34-.46.42-.46 1.18h-3.22q.1-1.86 1.3-3.06 1.24-1.3 3.52-1.3 2.12 0 3.32 1.18 1.08 1.08 1.08 2.58 0 .92-.4 1.64-.381.7-1.02 1.02.98.36 1.58 1.22.56.82.56 1.96 0 1.74-1.18 2.92-1.42 1.42-3.98 1.42-2.34 0-3.82-1.38-1.46-1.34-1.66-3.48m15.712-2.38q-1.76 0-2.78-1.06-.84-.9-.84-2.16 0-1.38.82-2.26.94-1.06 2.8-1.06 1.82 0 2.84 1.06.84.88.84 2.2t-.86 2.22q-1.02 1.06-2.82 1.06m-.06 6.94 7.72-13.34h1.74L210.237 39zm.1-11.72q-.68 0-1.1.46-.4.44-.4 1.04 0 .68.52 1.14.4.36.98.36.6 0 1.06-.42a1.47 1.47 0 0 0 .44-1.08q0-.66-.48-1.12-.4-.38-1.02-.38m9.28 7.1q-.68 0-1.1.46-.4.44-.4 1.04 0 .68.52 1.14.4.36.98.36.6 0 1.06-.42a1.47 1.47 0 0 0 .44-1.08q0-.68-.48-1.12-.4-.38-1.02-.38m-.04 4.78q-1.76 0-2.78-1.06-.84-.9-.84-2.16 0-1.38.82-2.26.94-1.06 2.8-1.06 1.82 0 2.84 1.06.84.88.84 2.2t-.86 2.22q-1.02 1.06-2.82 1.06"/><path fill="#000" d="M234.015 32.08a3.13 3.13 0 0 1 1.6 1.32q.58.92.58 2.06 0 1.7-1.12 2.74-1.12 1.02-2.74 1.02t-2.74-1.02q-1.12-1.04-1.12-2.74 0-1.14.56-2.06a3.24 3.24 0 0 1 1.62-1.32q-1.86-.98-1.86-3.08 0-1.5 1.02-2.5 1.02-1.02 2.52-1.02c1.5 0 1.84.34 2.52 1.02q1.02 1 1.02 2.5 0 2.1-1.86 3.08m-3.54-1.14q.78.76 1.86.76t1.84-.76q.78-.78.78-1.94 0-1.18-.76-1.94a2.5 2.5 0 0 0-1.86-.78q-1.1 0-1.86.78-.76.76-.76 1.94 0 1.16.76 1.94m-.28 6.64q.82.84 2.14.84t2.12-.84q.82-.86.82-2.12 0-1.32-.82-2.16t-2.12-.84-2.12.84-.82 2.16q0 1.26.8 2.12m8.378 4.16 1.2-4.04.8.24-1.48 4zm5.31-5.98h.88q.04.78.44 1.42.38.54 1.04.9.66.34 1.32.34 1.221 0 2.1-.92.9-.92.9-2.18 0-1.64-1.26-2.44-.62-.4-1.7-.4v-.8q1.08 0 1.8-.62.98-.82.98-2.18 0-1.12-.68-1.86t-1.88-.74q-1.239 0-1.92.78-.64.7-.68 1.78h-.84q.02-1.42.98-2.4.94-.96 2.46-.96 1.6 0 2.54.96t.94 2.38q0 1-.5 1.9-.5.88-1.6 1.32 1.06.34 1.66 1.22.62.88.62 2.04 0 1.66-1.14 2.8-1.14 1.12-2.78 1.12a3.9 3.9 0 0 1-1.82-.46 3.47 3.47 0 0 1-1.38-1.28 3.2 3.2 0 0 1-.48-1.72m10.857-9.48q.74-.74 1.96-.74t1.96.74.74 1.88-.74 1.88-1.96.74-1.96-.74-.74-1.88.74-1.88m.56 3.2q.5.58 1.4.58t1.4-.58.5-1.32-.5-1.32-1.4-.58-1.4.58-.5 1.32.5 1.32m-.14 9.5 7.88-13.62.6.32-7.88 13.62zm4.98-4.36q.74-.74 1.96-.74t1.96.74.74 1.88-.74 1.88-1.96.74-1.96-.74-.74-1.88.74-1.88m.56 3.2q.5.58 1.4.58t1.4-.58.5-1.32-.5-1.32-1.4-.58-1.4.58-.5 1.32.5 1.32"/><path fill="#000" d="M226.855 34h38.625v1h-38.625zM23.2 79.66v.8h-5.52v4.84h5.4v.8h-5.4v6.1h5.52v.8h-6.4V79.66zm6.277 5.18h.8v3.88l3.68-3.88h1.04l-3.8 3.92 4.12 4.24h-1.08l-3.56-3.72-.4.4V93h-.8v-3.32l-.4-.4-3.56 3.72h-1.08l4.12-4.24-3.8-3.92h1.04l3.68 3.88zm14.517 4.18h-6.98q0 1.52.94 2.48.96.96 2.3.96.96 0 1.7-.5.74-.52 1.14-1.36l.68.4q-.46.88-1.34 1.56-.88.66-2.24.66-1.86 0-2.94-1.2-1.08-1.22-1.08-3.06 0-2.02 1.16-3.16 1.18-1.14 2.8-1.14 1.66 0 2.76 1.22t1.1 3.14m-6.92-.76h6.08q-.16-1.24-1-2.04-.82-.8-2.02-.8-1.22 0-2.06.82-.84.8-1 2.02M45.402 93l1.92-8.66 3.26 7.36 3.26-7.36 1.92 8.66h-.84l-1.32-6.38-3.02 6.88-3.02-6.88-1.32 6.38zm19.588-3.98h-6.98q0 1.52.94 2.48.96.96 2.3.96.96 0 1.7-.5.74-.52 1.14-1.36l.68.4q-.46.88-1.34 1.56-.88.66-2.24.66-1.86 0-2.94-1.2-1.08-1.22-1.08-3.06 0-2.02 1.16-3.16 1.18-1.14 2.8-1.14 1.66 0 2.76 1.22t1.1 3.14m-6.92-.76h6.08q-.16-1.24-1-2.04-.82-.8-2.02-.8-1.22 0-2.06.82-.84.8-1 2.02m15.828-2.56v1.06q-1.16-1.34-2.82-1.34-1.48 0-2.44 1.02-.96 1-.96 2.52 0 1.64 1.02 2.58 1.02.92 2.34.92 1.62 0 2.96-1.46v1.08a4.34 4.34 0 0 1-2.98 1.14q-1.84 0-3.02-1.2-1.16-1.22-1.16-3.04 0-1.86 1.16-3.08 1.16-1.24 3.08-1.24 1.58 0 2.82 1.04m1.428 7.3 2.6-3.56q-.94-.04-1.6-.6-.68-.6-.68-1.62 0-1.18.74-1.8.66-.58 1.94-.58h2.72V93h-.8v-3.52h-1.4L76.286 93zm4.92-4.28V85.6h-1.92q-.84 0-1.3.36-.54.46-.54 1.24 0 .76.52 1.16.48.36 1.32.36zM88.48 93v-3.38q-1.32.2-2.14.2-1.3 0-1.92-.44-.74-.54-.74-2.08v-2.46h.8v2.46q0 1.12.54 1.5.38.26 1.22.26.94 0 2.24-.2v-4.02h.8V93zm3.682 0v-8.16h.8v3.6h4.6v-3.6h.8V93h-.8v-3.8h-4.6V93zm9.082-8.16h.8v3.4h1.94q1.4 0 2.08.76.58.64.58 1.62 0 1.1-.72 1.76-.66.62-1.96.62h-2.72zm.8 7.4h1.92q.84 0 1.28-.38.56-.46.56-1.24 0-.82-.58-1.26-.48-.36-1.3-.36h-1.88zm5.52-7.4h.8V93h-.8zm3.68 0h.8v6.54l5.8-7V93h-.8v-6.5l-5.8 7zm.92-3.3.68-.34q.159.62.66 1.04.519.42 1.26.42.74 0 1.24-.42.52-.42.68-1.04l.68.34q-.6 1.88-2.6 1.88t-2.6-1.88M16.44 113v-8.16h6.08V113h-.8v-7.4h-4.48v7.4zm14.685-8.16V113h-.8v-7.4h-3.76v4.72q0 1.34-.48 1.98-.54.74-1.56.74-.12 0-.4-.04v-.76q.2.04.3.04.68 0 1.06-.54.28-.44.28-1.42v-5.48zm9.514 1.42v-1.42h.8V113h-.8v-1.46q-1.101 1.68-3.18 1.68-1.66 0-2.82-1.18t-1.16-3.12q0-1.9 1.1-3.08t2.88-1.18q2.04 0 3.18 1.6m-3.14-.84q-1.3 0-2.24.94-.94.92-.94 2.5 0 1.46.86 2.54.86 1.06 2.34 1.06 1.46 0 2.3-1.04.86-1.06.86-2.56 0-1.66-.98-2.54-.98-.9-2.2-.9M45.87 113v-7.4h-2.84v-.76h6.48v.76h-2.84v7.4zm12.107-3.98h-6.98q0 1.52.94 2.48.96.96 2.3.96.96 0 1.7-.5.741-.52 1.14-1.36l.68.4q-.46.88-1.34 1.56-.88.66-2.24.66-1.86 0-2.94-1.2-1.08-1.22-1.08-3.06 0-2.02 1.16-3.16 1.18-1.14 2.8-1.14 1.66 0 2.76 1.22t1.1 3.14m-6.92-.76h6.08q-.16-1.24-1-2.04-.82-.8-2.02-.8-1.22 0-2.06.82-.84.8-1 2.02m13.048-3.42h.8v3.88l3.68-3.88h1.04l-3.8 3.92 4.12 4.24h-1.08l-3.56-3.72-.4.4V113h-.8v-3.32l-.4-.4-3.56 3.72h-1.08l4.12-4.24-3.8-3.92h1.04l3.68 3.88zm122.115-4.78V103h-10.7l3.38-3.54q1.82-1.9 2.74-3.38.72-1.12.72-2.08 0-.84-.4-1.28-.36-.4-.98-.4-.74 0-1.16.54-.44.56-.48 1.64h-3.58q.02-2.24 1.48-3.7 1.44-1.44 3.78-1.44 2.38 0 3.76 1.38 1.3 1.3 1.3 3.28 0 2.12-1.98 3.96l-2.24 2.08zm7.832-7.18q-.46-.42-1.06-.42c-.6 0-.753.14-1.06.42q-.519.44-.84 1.48a6.7 6.7 0 0 0-.32 2q0 .9.3 1.96.32 1.04.86 1.52.46.42 1.06.42c.6 0 .754-.14 1.06-.42q.52-.46.84-1.48.32-1.04.32-1.98c0-.94-.113-1.293-.34-2q-.32-1.06-.82-1.5m4.6 3.46q0 3.5-1.98 5.44-1.54 1.52-3.68 1.52t-3.68-1.52q-1.98-1.94-1.98-5.44 0-3.52 1.98-5.46 1.54-1.52 3.68-1.52t3.68 1.52q1.98 1.94 1.98 5.46m10.34-6.68h3.94l-3.8 4.54a4.5 4.5 0 0 1 1.86-.42q1.74 0 3.02 1.28 1.26 1.26 1.26 3.18 0 2.1-1.38 3.48-1.58 1.58-4.26 1.58-2.799 0-4.38-1.62-1.22-1.26-1.22-3.12 0-2.36 1.98-4.98zm-1 10.22q.66.68 1.58.68t1.54-.62.62-1.52q0-.8-.62-1.4a2.13 2.13 0 0 0-1.54-.62q-.86 0-1.5.58-.66.6-.66 1.38 0 .9.58 1.52m18.873.18V103h-10.7l3.38-3.54q1.82-1.9 2.74-3.38.72-1.12.72-2.08 0-.84-.4-1.28-.36-.4-.98-.4-.74 0-1.16.54-.441.56-.48 1.64h-3.58q.02-2.24 1.48-3.7 1.44-1.44 3.78-1.44 2.38 0 3.76 1.38 1.3 1.3 1.3 3.28 0 2.12-1.98 3.96l-2.24 2.08zm7.432 2.94h-3.92l3.78-4.5q-.78.42-1.78.42-1.821 0-3.06-1.22-1.34-1.32-1.34-3.22 0-2.04 1.34-3.44 1.64-1.68 4.38-1.68 2.7 0 4.28 1.58 1.32 1.36 1.32 3.3 0 2.28-2.02 4.9zm-.56-10.9q-.9 0-1.54.64-.66.66-.66 1.52 0 .84.64 1.44.639.6 1.56.6.879 0 1.5-.56.7-.62.7-1.52 0-.84-.64-1.48-.681-.64-1.56-.64m12.28-2.44h5.52q2.2 0 3.42 1.14 1.2 1.1 1.2 3.06 0 2.04-1.18 3.12-1.22 1.12-3.32 1.12h-2.18v1.12h3.72v2.08h-3.72v1.7h-3.46v-1.7h-1.64v-2.08h1.64V98.1h-1.64v-2.4h1.64zm3.46 2.8v3.24h1.16q1 0 1.46-.42.44-.4.44-1.22 0-.72-.4-1.12-.48-.48-1.48-.48zM27.48 155.22v1.16a5.9 5.9 0 0 0-2.04-1.54 5.6 5.6 0 0 0-2.46-.56q-2.54 0-4.26 1.78T17 160.4q0 1.42.54 2.6.56 1.18 1.44 1.92.9.72 1.94 1.12 1.04.38 2.08.38 1.12 0 2.32-.48 1.2-.5 2.16-1.54v1.16q-1.88 1.66-4.44 1.66-2.96 0-4.96-2.02t-2-4.84q0-2.88 2.02-4.88t4.9-2q2.64 0 4.48 1.74m3.195 16.38 1.92-4.46-3.88-8.3h.92l3.42 7.26 2.98-7.26h.92l-5.36 12.76zm6.914-4.6 1.92-8.66 3.26 7.36 3.26-7.36 1.92 8.66h-.84l-1.32-6.38-3.02 6.88-3.02-6.88-1.32 6.38zm11.328 0 1.92-8.66 3.26 7.36 3.26-7.36 1.92 8.66h-.84l-1.32-6.38-3.02 6.88-3.02-6.88-1.32 6.38zm18.929-6.74v-1.42h.8V167h-.8v-1.46q-1.101 1.68-3.18 1.68-1.66 0-2.82-1.18t-1.16-3.12q0-1.9 1.1-3.08t2.88-1.18q2.04 0 3.18 1.6m-3.14-.84q-1.3 0-2.24.94-.94.92-.94 2.5 0 1.46.86 2.54.86 1.06 2.34 1.06 1.46 0 2.3-1.04.86-1.06.86-2.56 0-1.66-.98-2.54-.98-.9-2.2-.9m11.48-.58h.8v3.88l4.12-3.88h1.08l-4.16 3.88 4.48 4.28h-1.16l-3.92-3.74-.44.42V167h-.8zm8.534 6.7v6.06h-.8v-12.76h.8v1.42q1.18-1.6 3.2-1.6 1.8 0 2.88 1.2 1.08 1.18 1.08 3 0 1.86-1.1 3.12-1.08 1.24-2.9 1.24-.92 0-1.66-.36-.74-.38-1.02-.68a5 5 0 0 1-.48-.64m.8-.1q.84 1.02 2.34 1.02t2.34-1.02.84-2.58q0-1.62-.92-2.52-.92-.92-2.24-.92-1.3 0-2.26.9-.94.9-.94 2.5 0 1.58.84 2.62m16.013-2.42h-6.98q0 1.52.94 2.48.96.96 2.3.96.96 0 1.7-.5.74-.52 1.14-1.36l.68.4q-.46.88-1.34 1.56-.88.66-2.24.66-1.86 0-2.94-1.2-1.08-1.22-1.08-3.06 0-2.02 1.16-3.16 1.18-1.14 2.8-1.14 1.66 0 2.76 1.22t1.1 3.14m-6.92-.76h6.08q-.16-1.24-1-2.04-.82-.8-2.02-.8-1.22 0-2.06.82-.84.8-1 2.02m9.848-3.42h5.36v7.4h1.2v2.96h-.76V167h-6.88v2.2h-.76v-2.96q1-.06 1.5-1.08.34-.7.34-2.2zm4.56 7.4v-6.64h-3.76v3.6q0 2.16-1.04 3.04zm3.689-7.4h.8v6.54l5.8-7V167h-.8v-6.5l-5.8 7zm11.032 8.16v-7.4h-2.84v-.76h6.48v.76h-2.84v7.4zm11.447-6.74v-1.42h.8V167h-.8v-1.46q-1.1 1.68-3.18 1.68-1.659 0-2.82-1.18t-1.16-3.12q0-1.9 1.1-3.08t2.88-1.18q2.04 0 3.18 1.6m-3.14-.84q-1.3 0-2.24.94-.94.92-.94 2.5 0 1.46.86 2.54.861 1.06 2.34 1.06 1.46 0 2.3-1.04.86-1.06.86-2.56 0-1.66-.98-2.54-.98-.9-2.2-.9m44.471 4.34h.88q.04.78.44 1.42.38.54 1.04.9.66.34 1.32.34 1.22 0 2.1-.92.9-.92.9-2.18 0-1.64-1.26-2.44-.62-.4-1.7-.4v-.8q1.08 0 1.8-.62.98-.82.98-2.18 0-1.12-.68-1.86t-1.88-.74q-1.24 0-1.92.78-.64.7-.68 1.78h-.84q.02-1.42.98-2.4.94-.96 2.46-.96 1.6 0 2.54.96t.94 2.38q0 1-.5 1.9-.5.88-1.6 1.32 1.06.34 1.66 1.22.62.88.62 2.04 0 1.66-1.14 2.8-1.14 1.12-2.78 1.12a3.9 3.9 0 0 1-1.82-.46 3.45 3.45 0 0 1-1.38-1.28 3.2 3.2 0 0 1-.48-1.72m16.445-8.66q1.34-1.62 3.14-1.62t3.14 1.62q1.7 2.02 1.7 5.24t-1.7 5.24q-1.38 1.64-3.14 1.64c-1.76 0-2.22-.547-3.14-1.64q-1.7-2.02-1.7-5.24t1.7-5.24m.66 9.96q1.1 1.36 2.48 1.36t2.48-1.36q1.44-1.78 1.44-4.72c0-2.94-.48-3.533-1.44-4.72q-1.08-1.34-2.48-1.34c-1.4 0-1.76.447-2.48 1.34q-1.44 1.78-1.44 4.72c0 2.94.48 3.533 1.44 4.72m10.297-9.96q1.34-1.62 3.14-1.62t3.14 1.62q1.7 2.02 1.7 5.24t-1.7 5.24q-1.38 1.64-3.14 1.64c-1.76 0-2.22-.547-3.14-1.64q-1.7-2.02-1.7-5.24t1.7-5.24m.66 9.96q1.1 1.36 2.48 1.36t2.48-1.36q1.44-1.78 1.44-4.72c0-2.94-.48-3.533-1.44-4.72q-1.08-1.34-2.48-1.34c-1.4 0-1.76.447-2.48 1.34q-1.44 1.78-1.44 4.72c0 2.94.48 3.533 1.44 4.72m12.897 2.16-.68-.52 2.96-4.22q-.86.36-1.82.36-2 0-3.32-1.32t-1.32-3.34 1.34-3.36 3.42-1.34q2.04 0 3.38 1.34t1.34 3.38q0 1.46-.86 2.72zm3.28-11.82q-1.08-1.12-2.72-1.12t-2.74 1.12q-1.08 1.12-1.08 2.76 0 1.7 1.08 2.8 1.1 1.08 2.74 1.08 1.66 0 2.74-1.1t1.08-2.78q0-1.66-1.1-2.76m9.745-.3q1.34-1.62 3.14-1.62t3.14 1.62q1.7 2.02 1.7 5.24t-1.7 5.24q-1.38 1.64-3.14 1.64c-1.76 0-2.22-.547-3.14-1.64q-1.7-2.02-1.7-5.24t1.7-5.24m.66 9.96q1.1 1.36 2.48 1.36t2.48-1.36q1.44-1.78 1.44-4.72c0-2.94-.48-3.533-1.44-4.72q-1.08-1.34-2.48-1.34c-1.4 0-1.76.447-2.48 1.34q-1.44 1.78-1.44 4.72c0 2.94.48 3.533 1.44 4.72m10.297-9.96q1.34-1.62 3.14-1.62t3.14 1.62q1.7 2.02 1.7 5.24t-1.7 5.24q-1.38 1.64-3.14 1.64c-1.76 0-2.22-.547-3.14-1.64q-1.7-2.02-1.7-5.24t1.7-5.24m.66 9.96q1.1 1.36 2.48 1.36t2.48-1.36q1.44-1.78 1.44-4.72c0-2.94-.48-3.533-1.44-4.72q-1.08-1.34-2.48-1.34c-1.4 0-1.76.447-2.48 1.34q-1.44 1.78-1.44 4.72c0 2.94.48 3.533 1.44 4.72m10.297-9.96q1.34-1.62 3.14-1.62t3.14 1.62q1.7 2.02 1.7 5.24t-1.7 5.24q-1.38 1.64-3.14 1.64c-1.76 0-2.22-.547-3.14-1.64q-1.7-2.02-1.7-5.24t1.7-5.24m.66 9.96q1.1 1.36 2.48 1.36t2.48-1.36q1.44-1.78 1.44-4.72c0-2.94-.48-3.533-1.44-4.72q-1.08-1.34-2.48-1.34c-1.4 0-1.76.447-2.48 1.34q-1.44 1.78-1.44 4.72c0 2.94.48 3.533 1.44 4.72m15.465-5.2v-6.2h2.58q1.94 0 2.98 1.08.92.96.92 2.4 0 1.52-.94 2.46-1.02 1.06-2.94 1.06h-1.72v1.8h3.34v.8h-3.34V167h-.88v-3.74h-1.5v-.8h1.5v-1.8h-1.5v-.8zm.88-5.4v5.4h1.76q1.36 0 2.18-.78.74-.72.74-1.92 0-1.24-.78-1.96-.8-.74-2.28-.74zM16.8 207.66h9.84V221h-.88v-12.54h-8.08V221h-.88zm20.378 9.36h-6.98q0 1.52.94 2.48.96.96 2.3.96.96 0 1.7-.5.74-.52 1.14-1.36l.68.4q-.46.88-1.34 1.56-.88.66-2.24.66-1.86 0-2.94-1.2-1.08-1.22-1.08-3.06 0-2.02 1.16-3.16 1.18-1.14 2.8-1.14 1.659 0 2.76 1.22t1.1 3.14m-6.92-.76h6.08q-.16-1.24-1-2.04-.82-.8-2.02-.8-1.22 0-2.06.82-.84.8-1 2.02m10.088 3.28v6.06h-.8v-12.76h.8v1.42q1.18-1.6 3.2-1.6 1.8 0 2.88 1.2 1.08 1.18 1.08 3 0 1.86-1.1 3.12-1.08 1.24-2.9 1.24-.92 0-1.66-.36-.741-.38-1.02-.68a5 5 0 0 1-.48-.64m.8-.1q.84 1.02 2.34 1.02t2.34-1.02.84-2.58q0-1.62-.92-2.52-.92-.92-2.24-.92-1.3 0-2.26.9-.94.9-.94 2.5 0 1.58.84 2.62m8.712-6.6h2.66q1.14 0 1.74.48.72.58.72 1.56 0 1.12-.9 1.7.56.08 1 .46.7.62.7 1.64 0 1.14-.82 1.76-.72.56-2 .56h-3.1zm.8 3.56h1.86q.74 0 1.16-.34.5-.4.5-1.08 0-.66-.5-1.06-.4-.32-1.16-.32h-1.86zm0 3.84h2.3q.92 0 1.4-.36.58-.44.58-1.22 0-.72-.54-1.14-.48-.36-1.44-.36h-2.3zm8.181-6.34q1.24-1.24 3.06-1.24t3.04 1.24q1.24 1.22 1.24 3.04c0 1.82-.413 2.233-1.24 3.06q-1.22 1.22-3.04 1.22t-3.06-1.22q-1.22-1.24-1.22-3.06c0-1.82.407-2.227 1.22-3.04m.6 5.54q1 1.02 2.46 1.02t2.44-1.02q1-1.02 1-2.5t-1-2.5q-.98-1.02-2.44-1.02t-2.46 1.02q-.98 1.02-.98 2.5t.98 2.5m9.09 1.56v-8.16h.8v3.6h4.6v-3.6h.8V221h-.8v-3.8h-4.6v3.8zm15.723-6.74v-1.42h.8V221h-.8v-1.46q-1.1 1.68-3.18 1.68-1.66 0-2.82-1.18t-1.16-3.12q0-1.9 1.1-3.08t2.88-1.18q2.04 0 3.18 1.6m-3.14-.84q-1.3 0-2.24.94-.94.92-.94 2.5 0 1.46.86 2.54.86 1.06 2.34 1.06 1.46 0 2.3-1.04.86-1.06.86-2.56 0-1.66-.98-2.54-.98-.9-2.2-.9M92.484 221v-3.38q-1.32.2-2.14.2-1.299 0-1.92-.44-.74-.54-.74-2.08v-2.46h.8v2.46q0 1.12.54 1.5.38.26 1.22.26.94 0 2.24-.2v-4.02h.8V221zm10.323-6.74v-1.42h.8V221h-.8v-1.46q-1.101 1.68-3.18 1.68-1.66 0-2.82-1.18t-1.16-3.12q0-1.9 1.1-3.08t2.88-1.18q2.04 0 3.18 1.6m-3.14-.84q-1.3 0-2.24.94-.94.92-.94 2.5 0 1.46.86 2.54.86 1.06 2.34 1.06 1.46 0 2.3-1.04.86-1.06.86-2.56 0-1.66-.98-2.54-.98-.9-2.2-.9m12.532-.58V221h-.8v-7.4h-3.76v4.72q0 1.34-.48 1.98-.54.74-1.56.74-.12 0-.4-.04v-.76q.2.04.3.04.68 0 1.06-.54.28-.44.28-1.42v-5.48zm2.874 0h.8v3.4h1.94q1.4 0 2.08.76.58.64.58 1.62 0 1.1-.72 1.76-.66.62-1.96.62h-2.72zm.8 7.4h1.92q.84 0 1.28-.38.56-.46.56-1.24 0-.82-.58-1.26-.48-.36-1.3-.36h-1.88zm6.368.76v-8.16h.8v3.6h4.6v-3.6h.8V221h-.8v-3.8h-4.6v3.8zm9.082-8.16h.8v3.4h1.94q1.4 0 2.08.76.58.64.58 1.62 0 1.1-.72 1.76-.66.62-1.96.62h-2.72zm.8 7.4h1.92q.84 0 1.28-.38.56-.46.56-1.24 0-.82-.58-1.26-.48-.36-1.3-.36h-1.88zm5.52-7.4h.8V221h-.8zm3.68 0h.8v6.54l5.8-7V221h-.8v-6.5l-5.8 7zm.92-3.3.68-.34q.159.62.66 1.04.519.42 1.26.42.74 0 1.24-.42.52-.42.68-1.04l.68.34q-.6 1.88-2.6 1.88t-2.6-1.88M16.44 232.84h2.66q1.14 0 1.74.48.72.58.72 1.56 0 1.12-.9 1.7.56.08 1 .46.7.62.7 1.64 0 1.14-.82 1.76-.72.56-2 .56h-3.1zm.8 3.56h1.86q.74 0 1.16-.34.5-.4.5-1.08 0-.66-.5-1.06-.4-.32-1.16-.32h-1.86zm0 3.84h2.3q.92 0 1.4-.36.58-.44.58-1.22 0-.72-.54-1.14-.48-.36-1.44-.36h-2.3zm7.712-5.68-.66-.46q.84-1.44 2.58-1.44 1.179 0 1.8.58.66.58.66 1.58 0 1.2-.94 1.7.54.12.96.54.58.58.58 1.56 0 1.26-.96 2-.8.6-2.08.6-1.32 0-2.14-.62-.66-.54-.98-1.18l.72-.46q.3.66.86 1.04.62.46 1.54.46 1.02 0 1.56-.46.64-.52.64-1.4 0-.78-.56-1.2-.48-.36-1.5-.36h-.84v-.76h.62q.78 0 1.22-.34.5-.4.5-1.04t-.42-1.06q-.46-.42-1.26-.42-1.28 0-1.9 1.14m7.347 6.44v-8.16h.8v3.6h4.6v-3.6h.8V241h-.8v-3.8h-4.6v3.8zm9.782-7.1q1.24-1.24 3.06-1.24t3.04 1.24q1.24 1.22 1.24 3.04c0 1.82-.413 2.233-1.24 3.06q-1.22 1.22-3.04 1.22t-3.06-1.22q-1.22-1.24-1.22-3.06c0-1.82.407-2.227 1.22-3.04m.6 5.54q1 1.02 2.46 1.02t2.44-1.02q1-1.02 1-2.5t-1-2.5q-.98-1.02-2.44-1.02t-2.46 1.02q-.98 1.02-.98 2.5t.98 2.5m15.631-5.74v1.06q-1.16-1.34-2.82-1.34-1.48 0-2.44 1.02-.96 1-.96 2.52 0 1.64 1.02 2.58 1.02.92 2.34.92 1.62 0 2.96-1.46v1.08a4.34 4.34 0 0 1-2.98 1.14q-1.84 0-3.02-1.2-1.16-1.22-1.16-3.04 0-1.86 1.16-3.08 1.16-1.24 3.08-1.24 1.58 0 2.82 1.04M184.4 217.66v.8h-4.48l-1.12 3.6q.48-.12.9-.12 2.1 0 3.36 1.3 1.28 1.3 1.28 3.32 0 2.1-1.38 3.38-1.36 1.28-3.36 1.28-2.72 0-4-2.2l.78-.32q1.16 1.72 3.24 1.72 1.66 0 2.72-1.08 1.08-1.08 1.08-2.76 0-1.7-1.06-2.76-1.04-1.08-2.7-1.08-1.14 0-2.08.58l1.72-5.66zm2.315 10.1h.88q.04.78.44 1.42.38.54 1.04.9.66.34 1.32.34 1.221 0 2.1-.92.9-.92.9-2.18 0-1.64-1.26-2.44-.62-.4-1.7-.4v-.8q1.08 0 1.8-.62.98-.82.98-2.18 0-1.12-.68-1.86t-1.88-.74q-1.239 0-1.92.78-.64.7-.68 1.78h-.84q.02-1.42.98-2.4.94-.96 2.46-.96 1.6 0 2.54.96t.94 2.38q0 1-.5 1.9-.5.88-1.6 1.32 1.06.34 1.66 1.22.62.88.62 2.04 0 1.66-1.14 2.8-1.14 1.12-2.78 1.12a3.9 3.9 0 0 1-1.82-.46 3.47 3.47 0 0 1-1.38-1.28 3.2 3.2 0 0 1-.48-1.72m12.123 3.24v-12.54h-2.08l.4-.8h2.56V231zm12.525-11.9q1.34-1.62 3.14-1.62t3.14 1.62q1.7 2.02 1.7 5.24t-1.7 5.24q-1.38 1.64-3.14 1.64t-3.14-1.64q-1.7-2.02-1.7-5.24t1.7-5.24m.66 9.96q1.1 1.36 2.48 1.36t2.48-1.36q1.44-1.78 1.44-4.72c0-2.94-.48-3.533-1.44-4.72q-1.08-1.34-2.48-1.34t-2.48 1.34q-1.44 1.78-1.44 4.72c0 2.94.48 3.533 1.44 4.72m10.297-9.96q1.34-1.62 3.14-1.62t3.14 1.62q1.7 2.02 1.7 5.24t-1.7 5.24q-1.38 1.64-3.14 1.64t-3.14-1.64q-1.7-2.02-1.7-5.24t1.7-5.24m.66 9.96q1.1 1.36 2.48 1.36t2.48-1.36q1.44-1.78 1.44-4.72c0-2.94-.48-3.533-1.44-4.72q-1.08-1.34-2.48-1.34t-2.48 1.34q-1.44 1.78-1.44 4.72c0 2.94.48 3.533 1.44 4.72m10.298-9.96q1.34-1.62 3.14-1.62t3.14 1.62q1.7 2.02 1.7 5.24t-1.7 5.24q-1.38 1.64-3.14 1.64t-3.14-1.64q-1.7-2.02-1.7-5.24t1.7-5.24m.66 9.96q1.1 1.36 2.48 1.36t2.48-1.36q1.44-1.78 1.44-4.72c0-2.94-.48-3.533-1.44-4.72q-1.08-1.34-2.48-1.34t-2.48 1.34q-1.44 1.78-1.44 4.72c0 2.94.48 3.533 1.44 4.72m15.465-5.2v-6.2h2.58q1.94 0 2.98 1.08.92.96.92 2.4 0 1.52-.94 2.46-1.02 1.06-2.94 1.06h-1.72v1.8h3.34v.8h-3.34V231h-.88v-3.74h-1.5v-.8h1.5v-1.8h-1.5v-.8zm.88-5.4v5.4h1.76q1.36 0 2.18-.78.74-.72.74-1.92 0-1.24-.78-1.96-.801-.74-2.28-.74zM17.68 271.66v5.66h8.08v-5.66h.88V285h-.88v-6.88h-8.08V285h-.88v-13.34zm19.498 9.36h-6.98q0 1.52.94 2.48.96.96 2.3.96.96 0 1.7-.5.74-.52 1.14-1.36l.68.4q-.46.88-1.34 1.56-.88.66-2.24.66-1.86 0-2.94-1.2-1.08-1.22-1.08-3.06 0-2.02 1.16-3.16 1.18-1.14 2.8-1.14 1.659 0 2.76 1.22t1.1 3.14m-6.92-.76h6.08q-.16-1.24-1-2.04-.82-.8-2.02-.8-1.22 0-2.06.82-.84.8-1 2.02m9.988-2.36q1.239-1.24 3.06-1.24t3.04 1.24q1.24 1.22 1.24 3.04c0 1.82-.414 2.233-1.24 3.06q-1.22 1.22-3.04 1.22t-3.06-1.22q-1.22-1.24-1.22-3.06c0-1.82.406-2.227 1.22-3.04m.6 5.54q.999 1.02 2.46 1.02t2.44-1.02q1-1.02 1-2.5t-1-2.5q-.98-1.02-2.44-1.02-1.461 0-2.46 1.02-.98 1.02-.98 2.5t.98 2.5m9.39-4.66h.04q.46-1.06 1.44-1.58 1-.54 2.14-.54 1.86 0 2.98 1.18 1.14 1.18 1.14 3.08 0 1.96-1.22 3.14-1.22 1.16-3.08 1.16-1.76 0-2.86-1.02-1.4-1.32-1.4-4.36 0-4.92 2.56-6.58.24-.16.52-.28.28-.14.48-.22.22-.08.58-.16a4 4 0 0 1 .52-.12q.16-.04.56-.12.42-.08.5-.1 1.48-.32 1.8-1.06h1a3 3 0 0 1-.56.86 2.5 2.5 0 0 1-.8.56 8 8 0 0 1-.78.3q-.3.08-.82.2-1.98.4-2.86 1.1-.92.74-1.38 2a9 9 0 0 0-.5 2.56m3.44 5.68q1.72 0 2.58-1.06.88-1.08.88-2.48c0-1.4-.293-1.747-.88-2.44q-.88-1.06-2.4-1.06-1.64 0-2.58 1.06t-.94 2.44q0 1.34.78 2.36.9 1.18 2.56 1.18m5.37.54 3.3-4.28-3.02-3.88h.98l2.58 3.36 2.54-3.36h.98l-2.96 3.88 3.28 4.28h-.98l-2.86-3.76-2.86 3.76zm9.988-7.1q1.24-1.24 3.06-1.24t3.04 1.24q1.24 1.22 1.24 3.04c0 1.82-.413 2.233-1.24 3.06q-1.22 1.22-3.04 1.22t-3.06-1.22q-1.22-1.24-1.22-3.06c0-1.82.407-2.227 1.22-3.04m.6 5.54q1 1.02 2.46 1.02t2.44-1.02q1-1.02 1-2.5t-1-2.5q-.98-1.02-2.44-1.02t-2.46 1.02q-.98 1.02-.98 2.5t.98 2.5m9.651-6.6h5.36v7.4h1.2v2.96h-.76V285h-6.88v2.2h-.76v-2.96q1-.06 1.5-1.08.34-.7.34-2.2zm4.56 7.4v-6.64h-3.76v3.6q0 2.16-1.04 3.04zm3.689-7.4h.8v6.54l5.8-7V285h-.8v-6.5l-5.8 7zm8.512 8.16 1.92-8.66 3.26 7.36 3.26-7.36 1.92 8.66h-.84l-1.32-6.38-3.02 6.88-3.02-6.88-1.32 6.38zm12.289-8.16h.8v3.4h1.94q1.4 0 2.08.76.58.64.58 1.62 0 1.1-.72 1.76-.66.62-1.96.62h-2.72zm.8 7.4h1.92q.84 0 1.28-.38.56-.46.56-1.24 0-.82-.58-1.26-.48-.36-1.3-.36h-1.88zm5.52-7.4h.8V285h-.8zm3.68 0h.8v6.54l5.8-7V285h-.8v-6.5l-5.8 7zm.92-3.3.68-.34q.159.62.66 1.04.519.42 1.26.42.74 0 1.24-.42.52-.42.68-1.04l.68.34q-.6 1.88-2.6 1.88t-2.6-1.88M17 296.84h5.36v7.4h1.2v2.96h-.76V305h-6.88v2.2h-.76v-2.96q1-.06 1.5-1.08.34-.7.34-2.2zm4.56 7.4v-6.64H17.8v3.6q0 2.16-1.04 3.04zm4.389-6.34q1.239-1.24 3.06-1.24t3.04 1.24q1.24 1.22 1.24 3.04c0 1.82-.414 2.233-1.24 3.06q-1.22 1.22-3.04 1.22t-3.06-1.22q-1.22-1.24-1.22-3.06c0-1.82.406-2.227 1.22-3.04m.6 5.54q.999 1.02 2.46 1.02t2.44-1.02q1-1.02 1-2.5t-1-2.5q-.98-1.02-2.44-1.02-1.461 0-2.46 1.02-.98 1.02-.98 2.5t.98 2.5m7.81 1.56 3.3-4.28-3.02-3.88h.98l2.58 3.36 2.54-3.36h.98l-2.96 3.88 3.28 4.28h-.98l-2.86-3.76-2.86 3.76zm9.988-7.1q1.24-1.24 3.06-1.24c1.82 0 2.227.413 3.04 1.24q1.24 1.22 1.24 3.04c0 1.82-.413 2.233-1.24 3.06q-1.22 1.22-3.04 1.22c-1.82 0-2.233-.407-3.06-1.22q-1.22-1.24-1.22-3.06c0-1.82.407-2.227 1.22-3.04m.6 5.54q1 1.02 2.46 1.02t2.44-1.02q1-1.02 1-2.5t-1-2.5q-.98-1.02-2.44-1.02t-2.46 1.02q-.98 1.02-.98 2.5t.98 2.5m9.65-6.6h5.36v7.4h1.2v2.96h-.76V305h-6.88v2.2h-.76v-2.96q1-.06 1.5-1.08.34-.7.34-2.2zm4.56 7.4v-6.64h-3.76v3.6q0 2.16-1.04 3.04zm117.363-12.48h.88q.04.78.44 1.42.38.54 1.04.9.66.34 1.32.34 1.22 0 2.1-.92.9-.92.9-2.18 0-1.64-1.26-2.44-.62-.4-1.7-.4v-.8q1.08 0 1.8-.62.98-.82.98-2.18 0-1.12-.68-1.86t-1.88-.74q-1.24 0-1.92.78-.64.7-.68 1.78h-.84q.02-1.42.98-2.4.94-.96 2.46-.96 1.6 0 2.54.96t.94 2.38q0 1-.5 1.9-.5.88-1.6 1.32 1.06.34 1.66 1.22.62.88.62 2.04 0 1.66-1.14 2.8-1.14 1.12-2.78 1.12a3.9 3.9 0 0 1-1.82-.46 3.45 3.45 0 0 1-1.38-1.28 3.2 3.2 0 0 1-.48-1.72m18.095-10.1v.8h-4.48l-1.12 3.6q.48-.12.9-.12 2.1 0 3.36 1.3 1.28 1.3 1.28 3.32 0 2.1-1.38 3.38-1.36 1.28-3.36 1.28-2.72 0-4-2.2l.78-.32q1.16 1.72 3.24 1.72 1.66 0 2.72-1.08 1.08-1.08 1.08-2.76 0-1.7-1.06-2.76-1.04-1.08-2.7-1.08-1.14 0-2.08.58l1.72-5.66zm8.565 1.44q1.34-1.62 3.14-1.62t3.14 1.62q1.7 2.02 1.7 5.24t-1.7 5.24q-1.38 1.64-3.14 1.64c-1.76 0-2.22-.547-3.14-1.64q-1.7-2.02-1.7-5.24t1.7-5.24m.66 9.96q1.1 1.36 2.48 1.36t2.48-1.36q1.44-1.78 1.44-4.72c0-2.94-.48-3.533-1.44-4.72q-1.08-1.34-2.48-1.34c-1.4 0-1.76.447-2.48 1.34q-1.44 1.78-1.44 4.72c0 2.94.48 3.533 1.44 4.72m14.485-11.58.68.52-2.96 4.2q.86-.36 1.82-.36 2 0 3.32 1.32t1.32 3.34-1.34 3.38q-1.341 1.34-3.42 1.34-2.04 0-3.38-1.32-1.34-1.34-1.34-3.42 0-1.46.86-2.72zm-3.3 11.84q1.1 1.1 2.74 1.1t2.72-1.12q1.1-1.12 1.1-2.78 0-1.7-1.08-2.78-1.08-1.1-2.74-1.1t-2.74 1.1-1.08 2.78 1.08 2.8m13.177 1.9-.68-.52 2.96-4.22q-.86.36-1.82.36-2 0-3.32-1.32t-1.32-3.34 1.34-3.36 3.42-1.34q2.04 0 3.38 1.34t1.34 3.38q0 1.46-.86 2.72zm3.28-11.82q-1.08-1.12-2.72-1.12t-2.74 1.12q-1.08 1.12-1.08 2.76 0 1.7 1.08 2.8 1.1 1.08 2.74 1.08 1.66 0 2.74-1.1t1.08-2.78q0-1.66-1.1-2.76m10.245 4.46v-6.2h2.58q1.94 0 2.98 1.08.92.96.92 2.4 0 1.52-.94 2.46-1.02 1.06-2.94 1.06h-1.72v1.8h3.34v.8h-3.34V295h-.88v-3.74h-1.5v-.8h1.5v-1.8h-1.5v-.8zm.88-5.4v5.4h1.76q1.36 0 2.18-.78.74-.72.74-1.92 0-1.24-.78-1.96-.801-.74-2.28-.74z"/></g><path stroke="#000" d="M.5.5h319v319H.5z"/><defs><clipPath id="a"><path fill="#fff" d="M0 0h320v320H0z"/></clipPath></defs></svg>