<svg xmlns="http://www.w3.org/2000/svg" width="81" height="15" fill="none"><path fill="#31373E" d="M1.08 3.996h5.904V12h-.528V4.476H1.608V12H1.08zm8.83 1.092q1.2-1.2 2.953-1.2t2.952 1.2q1.2 1.2 1.2 2.928c0 1.728-.4 2.128-1.2 2.928q-1.2 1.188-2.952 1.188c-1.752 0-2.152-.396-2.952-1.188q-1.2-1.2-1.2-2.928c0-1.728.4-2.128 1.2-2.928Zm.384 5.52q1.032 1.044 2.569 1.044t2.568-1.044q1.031-1.056 1.031-2.592 0-1.548-1.031-2.592-1.032-1.056-2.568-1.056c-1.536 0-1.88.352-2.569 1.056Q9.262 6.468 9.262 8.016q0 1.536 1.032 2.592m9.094-6.612H23.9v7.524h.912v2.088h-.504V12h-5.976v1.608h-.504V11.52q.408 0 .744-.3t.528-.78q.288-.732.288-2.1zm.528.48V8.34q0 1.476-.288 2.232a2.65 2.65 0 0 1-.612.948h4.356V4.476zm7.708 3.72h-1.032V12h-.528V3.996h1.548q1.02 0 1.68.552.66.54.66 1.536 0 .984-.636 1.548t-1.692.564m-1.032-3.72v3.24h1.056q.792 0 1.272-.432.48-.444.48-1.188 0-.756-.492-1.188-.48-.432-1.344-.432zm5.596.612q1.2-1.2 2.952-1.2c1.752 0 2.152.4 2.952 1.2q1.2 1.2 1.2 2.928c0 1.728-.4 2.128-1.2 2.928q-1.2 1.188-2.952 1.188c-1.752 0-2.152-.396-2.952-1.188q-1.2-1.2-1.2-2.928c0-1.728.4-2.128 1.2-2.928m.384 5.52q1.032 1.044 2.568 1.044c1.536 0 1.88-.348 2.568-1.044q1.032-1.056 1.032-2.592 0-1.548-1.032-2.592-1.032-1.056-2.568-1.056c-1.536 0-1.88.352-2.568 1.056Q31.54 6.468 31.54 8.016q0 1.536 1.032 2.592M41.017 12V3.996h3.852v.48h-3.324V7.44h1.392q2.76 0 2.76 2.196 0 .996-.648 1.68-.635.684-1.944.684zm.528-4.08v3.6h1.344q1.212 0 1.752-.528.505-.48.505-1.356 0-1.044-.828-1.476-.48-.24-1.524-.24h-1.248Zm6.41-3.924v3.396h4.849V3.996h.528V12h-.528V7.872h-4.848V12h-.528V3.996h.528Zm11.375 0v.48h-3.312V7.38h3.24v.48h-3.24v3.66h3.312V12h-3.84V3.996zm5.567 0v.48h-3.312V7.38h3.24v.48h-3.24v3.66h3.312V12h-3.84V3.996z"/><path stroke="#31373E" stroke-width=".5" d="m72.323 12.339 8.485-8.485M80.75 12V4M73 3.75h8"/></svg>