<svg xmlns="http://www.w3.org/2000/svg" width="111" height="135" fill="none"><g clip-path="url(#a)"><path fill="#31373E" d="m110.319 111.159-.52-2.67a74 74 0 0 1-.71-19.93 112 112 0 0 0-2.83-38.49l-3.32-12.41a12.45 12.45 0 0 0-6.42-8.23c-6.06-3-14-.68-16.44.18-.62-.497-1.291-.93-2-1.29-6.06-3-14-.68-16.45.18a12 12 0 0 0-2-1.29c-4.72-2.35-10.56-1.45-14.09-.53l-4.65-17.29C38.78 1.499 32-1.101 26.38.409a11.84 11.84 0 0 0-4.72 2.5c-1.68 1.46-8 7.75-9.58 9.6-2.28 2.7-3.38 6.59-2.08 11.27l8.82 32.91a11.2 11.2 0 0 0-7.82 3.71c-.53.61-6.61 6.54-8 8a10.5 10.5 0 0 0-1.71 2.3c-2.59 4.83-1.53 11.84 5.5 15.91 21.32 12.31 33.08 26.23 38.15 45.15l.76 2.83 56.3-15.08z"/><path fill="#fff" d="M48.05 130.5c-5.37-19.64-17.6-34.08-39.59-46.78-5.43-3.14-6-8.14-4.23-11.44a7 7 0 0 1 1.13-1.56C6 70 7.92 68.17 9.58 66.53c2.54-2.53 3.6-3.53 3.92-3.92A7.88 7.88 0 0 1 19 60l4.07-.26-9.89-36.82c-1.1-4.09.18-6.75 1.45-8.26s7.55-7.77 9.23-9.24a8.54 8.54 0 0 1 5.6-2.08c4 0 7 2.58 8.21 6.91l5.49 20.49 3.21-.83a25 25 0 0 1 6.16-.86c1.927-.053 3.84.34 5.59 1.15q.765.39 1.44.92L61 32.25l1.72-.6A26.7 26.7 0 0 1 71 30.16c1.933-.053 3.853.34 5.61 1.15q.763.392 1.44.92l1.43 1.13 1.73-.6a26.6 26.6 0 0 1 8.25-1.49c1.91-.044 3.805.35 5.54 1.15a9 9 0 0 1 4.68 6.11l3.32 12.4a108.6 108.6 0 0 1 2.74 37.23 77 77 0 0 0 .75 21l.18.9-6.46 6.46z"/><path fill="#fff" d="m80.398 32.599-.81.58c-4.47-5.36-15.06-2.66-18.82-1.47-4.92-5.05-14.45-2.36-17.3-1.39-1.94-7.23-3.93-14.67-5.41-20.18-3.28-12.24-20.22-7.7-16.94 4.54 4 14.88 15 55.83 15 55.83-1.41-5.27-5-6.68-10.37-9.33-13-6.47-19.88 8.33-9.11 14.55 24 13.87 34.71 29 39.51 46.93l50.78-13.66a76.3 76.3 0 0 1-.74-20.83 109.7 109.7 0 0 0-2.75-37.36l-3.33-12.43c-3.33-12.38-19.71-5.78-19.71-5.78"/><path fill="#31373E" d="M96.52 29.429c-6.06-3-14-.68-16.44.18a11.7 11.7 0 0 0-2-1.29c-6.06-3-14-.68-16.45.18a12 12 0 0 0-2-1.29c-4.72-2.35-10.56-1.45-14.09-.53l-4.65-17.29C38.78 1.499 32-1.101 26.38.409s-10.19 7.15-8.08 15l12.14 45.34a20.4 20.4 0 0 0-3.44-2.19c-8.33-4.13-14.85-.93-17.39 3.8s-1.51 11.84 5.53 15.9c21.31 12.31 33.07 26.24 38.14 45.16l.76 2.83 56.279-15.09-.52-2.67a74 74 0 0 1-.71-19.93 111.9 111.9 0 0 0-2.83-38.49l-3.32-12.41a12.44 12.44 0 0 0-6.42-8.23Zm4.099 22.17a107.4 107.4 0 0 1 2.66 36.25 77.8 77.8 0 0 0 .35 19.05l-45.5 12.19c-5.89-19.09-18.35-33.35-40.07-45.89-4-2.31-4.49-5.8-3.27-8.08s4.42-3.9 9.63-1.32c4.65 2.31 10 7.33 11.18 11.69l4.52-1.22L24 13.919c-1.18-4.39 1.13-7.11 3.94-7.86s6.17.45 7.35 4.84l11.88 44.53 5.65-1.51-5.82-21.6c2.88-.74 7.09-1.32 10 .13a6.6 6.6 0 0 1 3.38 4.55l3.71 13.8 5.65-1.52L66 35.439a17 17 0 0 0-.69-2c2.87-.76 7.18-1.38 10.13.09a6.59 6.59 0 0 1 3.36 4.51l3.71 13.84 5.65-1.52-3.68-13.81a15 15 0 0 0-.69-2c2.86-.76 7.15-1.38 10.12.1a6.57 6.57 0 0 1 3.38 4.51z"/></g><defs><clipPath id="a"><path fill="#fff" d="M0 0h110.32v134.59H0z"/></clipPath></defs></svg>