<svg xmlns="http://www.w3.org/2000/svg" width="439" height="46" fill="none" viewBox="0 0 439 46"><rect width="439" height="46" fill="#F09E00" rx="10"/><path fill="#fff" d="M67.677 27.26v8.64h-2.16V16.55h2.16v1.74q1.65-2.04 4.26-2.04 2.79 0 4.41 1.98 1.65 1.95 1.65 4.62 0 2.7-1.62 4.62-1.62 1.89-4.35 1.89t-4.35-2.1m4.05.18q1.83 0 2.94-1.32 1.11-1.35 1.11-3.27 0-2.16-1.23-3.42t-2.85-1.26-2.88 1.26-1.26 3.39q0 1.95 1.14 3.3 1.17 1.32 3.03 1.32m19.12-9.12v-1.77h2.16V29h-2.16v-1.74q-1.62 2.1-4.26 2.1-2.52 0-4.29-1.74t-1.77-4.86q0-3.06 1.74-4.77 1.77-1.74 4.32-1.74 2.7 0 4.26 2.07m-4.02-.15q-1.71 0-2.91 1.23-1.17 1.2-1.17 3.36 0 2.07 1.08 3.39 1.11 1.29 3 1.29t3-1.35q1.14-1.35 1.14-3.3 0-2.22-1.26-3.42t-2.88-1.2M106.7 8h2.4q-.33 1.11-1.14 1.89-.78.75-1.44 1.02-.63.27-1.5.48-.15.03-.72.18-.57.12-.87.21t-.78.24-.87.36-.72.45q-1.14.87-1.86 2.43a8.6 8.6 0 0 0-.75 3.27h.06q1.35-2.28 4.53-2.28 2.79 0 4.62 1.89 1.86 1.89 1.86 4.68 0 2.82-1.89 4.68t-4.92 1.86q-2.61 0-4.29-1.56-2.1-1.92-2.1-6.42 0-7.83 3.54-10.26.27-.18.57-.33.3-.18.63-.3.36-.15.6-.24.24-.12.66-.21.45-.12.6-.15.18-.06.66-.15l.63-.15q1.2-.27 1.74-.63.54-.39.75-.96m-.69 11.4q-1.26-1.23-3.09-1.23t-3.12 1.26q-1.26 1.23-1.26 3.39t1.29 3.39 3.09 1.23 3.09-1.23 1.29-3.39q0-2.19-1.29-3.42m17.352 8.1q-1.86 1.86-4.71 1.86t-4.74-1.86q-1.86-1.86-1.86-4.68 0-2.85 1.86-4.71 1.89-1.86 4.74-1.86t4.71 1.86q1.89 1.86 1.89 4.71 0 2.82-1.89 4.68m-1.62-8.1q-1.26-1.23-3.09-1.23t-3.12 1.26q-1.26 1.23-1.26 3.39t1.29 3.39 3.09 1.23 3.09-1.23 1.29-3.39q0-2.19-1.29-3.42m14.689-.87h-3.9V29h-2.16V18.53h-3.9v-1.98h9.96zm11.429-.21v-1.77h2.16V29h-2.16v-1.74q-1.62 2.1-4.26 2.1-2.52 0-4.29-1.74t-1.77-4.86q0-3.06 1.74-4.77 1.77-1.74 4.32-1.74 2.7 0 4.26 2.07m-4.02-.15q-1.71 0-2.91 1.23-1.17 1.2-1.17 3.36 0 2.07 1.08 3.39 1.11 1.29 3 1.29t3-1.35q1.14-1.35 1.14-3.3 0-2.22-1.26-3.42t-2.88-1.2m19.511 6.66 1.8.99q-.63 1.2-1.53 2.01-1.71 1.53-4.14 1.53-2.52 0-4.35-1.62-1.8-1.65-1.8-4.89 0-2.85 1.62-4.71 1.65-1.89 4.41-1.89 3.12 0 4.71 2.28 1.26 1.8 1.17 4.68h-9.69q.03 1.89 1.17 3.06t2.79 1.17q1.47 0 2.55-.9a4.9 4.9 0 0 0 1.29-1.71m-7.65-3.42h7.32q-.27-1.47-1.29-2.34-.99-.9-2.37-.9-1.35 0-2.4.93-1.02.9-1.26 2.31M167.114 29l3-13.41 5.16 10.14 5.04-10.14 3 13.41h-2.22l-1.65-7.71-4.23 8.58-4.29-8.58-1.59 7.71zm32.504 0v-4.89q-1.77.27-2.94.27-2.04 0-3.03-.9-1.05-.93-1.05-3.06v-3.87h2.16v3.57q0 1.02.27 1.47.42.81 1.89.81 1.32 0 2.7-.27v-5.58h2.16V29zm15.471-4.17 1.8.99q-.63 1.2-1.53 2.01-1.71 1.53-4.14 1.53-2.52 0-4.35-1.62-1.8-1.65-1.8-4.89 0-2.85 1.62-4.71 1.65-1.89 4.41-1.89 3.12 0 4.71 2.28 1.26 1.8 1.17 4.68h-9.69q.03 1.89 1.17 3.06t2.79 1.17q1.47 0 2.55-.9a4.9 4.9 0 0 0 1.29-1.71m-7.65-3.42h7.32q-.27-1.47-1.29-2.34-.99-.9-2.37-.9-1.35 0-2.4.93-1.02.9-1.26 2.31m15.013 5.85v8.64h-2.16V16.55h2.16v1.74q1.65-2.04 4.26-2.04 2.79 0 4.41 1.98 1.65 1.95 1.65 4.62 0 2.7-1.62 4.62-1.62 1.89-4.35 1.89t-4.35-2.1m4.05.18q1.83 0 2.94-1.32 1.11-1.35 1.11-3.27 0-2.16-1.23-3.42t-2.85-1.26-2.88 1.26-1.26 3.39q0 1.95 1.14 3.3 1.17 1.32 3.03 1.32m18.821-2.61 1.8.99q-.63 1.2-1.53 2.01-1.71 1.53-4.14 1.53-2.52 0-4.35-1.62-1.8-1.65-1.8-4.89 0-2.85 1.62-4.71 1.65-1.89 4.41-1.89 3.12 0 4.71 2.28 1.26 1.8 1.17 4.68h-9.69q.03 1.89 1.17 3.06t2.79 1.17q1.47 0 2.55-.9a4.9 4.9 0 0 0 1.29-1.71m-7.65-3.42h7.32q-.27-1.47-1.29-2.34-.99-.9-2.37-.9-1.35 0-2.4.93-1.02.9-1.26 2.31m14.18-1.68-1.5-1.23q.72-1.05 1.59-1.56 1.17-.69 2.73-.69 1.89 0 2.94.87 1.08.93 1.08 2.37 0 1.74-1.41 2.61.9.21 1.44.81.87.93.87 2.28 0 2.01-1.62 3.21-1.32.96-3.54.96-1.98 0-3.33-1.05-1.02-.75-1.65-2.13l1.86-.78q.33.84 1.11 1.41.84.63 2.04.63 1.41 0 2.1-.48.87-.57.87-1.74 0-.96-.75-1.44-.63-.42-2.04-.42h-1.26v-1.98h1.05q1.14 0 1.62-.33.66-.42.66-1.14 0-.84-.54-1.29-.51-.45-1.59-.45a3.2 3.2 0 0 0-1.71.48q-.66.42-1.02 1.08m17.259-.75v-2.1q1.56-.63 3.39-.63 3.15 0 4.95 1.83 1.83 1.83 1.83 4.77 0 2.85-1.86 4.68-1.83 1.83-4.77 1.83-1.86 0-3.54-.69v-2.1q1.65.87 3.51.87 1.74 0 3-1.05 1.26-1.08 1.44-2.79h-6.57v-1.92h6.57q-.36-1.65-1.59-2.58t-2.88-.93q-1.74 0-3.48.81m23.215-1.53v2.58q-1.47-1.86-3.9-1.86-1.83 0-3.12 1.26-1.29 1.23-1.29 3.39t1.29 3.39 3.09 1.23q2.4 0 4.02-1.95v2.58q-1.77 1.29-3.96 1.29-2.91 0-4.8-1.83-1.86-1.86-1.86-4.68 0-2.85 1.89-4.71 1.89-1.89 4.77-1.89 2.16 0 3.87 1.2m3.404-.9h2.16v5.1l5.04-5.1h2.64l-5.4 5.55 6.06 6.9h-2.82l-4.86-5.46-.66.63V29h-2.16zm14.817 10.71v8.64h-2.16V16.55h2.16v1.74q1.65-2.04 4.26-2.04 2.79 0 4.41 1.98 1.65 1.95 1.65 4.62 0 2.7-1.62 4.62-1.62 1.89-4.35 1.89t-4.35-2.1m4.05.18q1.83 0 2.94-1.32 1.11-1.35 1.11-3.27 0-2.16-1.23-3.42t-2.85-1.26-2.88 1.26-1.26 3.39q0 1.95 1.14 3.3 1.17 1.32 3.03 1.32m20.111.06q-1.86 1.86-4.71 1.86t-4.74-1.86q-1.86-1.86-1.86-4.68 0-2.85 1.86-4.71 1.89-1.86 4.74-1.86t4.71 1.86q1.89 1.86 1.89 4.71 0 2.82-1.89 4.68m-1.62-8.1q-1.26-1.23-3.09-1.23t-3.12 1.26q-1.26 1.23-1.26 3.39t1.29 3.39 3.09 1.23 3.09-1.23 1.29-3.39q0-2.19-1.29-3.42m6.792 16.5 3.96-8.07-5.73-11.28h2.46l4.41 8.91 4.05-8.91h2.4l-9.15 19.35zm14.549-12.18V21.5h6.6v2.22zm19.899-6.27v2.58q-1.47-1.86-3.9-1.86-1.83 0-3.12 1.26-1.29 1.23-1.29 3.39t1.29 3.39 3.09 1.23q2.4 0 4.02-1.95v2.58q-1.77 1.29-3.96 1.29-2.91 0-4.8-1.83-1.86-1.86-1.86-4.68 0-2.85 1.89-4.71 1.89-1.89 4.77-1.89 2.16 0 3.87 1.2M384.393 29v-4.89q-1.77.27-2.94.27-2.04 0-3.03-.9-1.05-.93-1.05-3.06v-3.87h2.16v3.57q0 1.02.27 1.47.42.81 1.89.81 1.32 0 2.7-.27v-5.58h2.16V29zm15.471-4.17 1.8.99q-.63 1.2-1.53 2.01-1.71 1.53-4.14 1.53-2.52 0-4.35-1.62-1.8-1.65-1.8-4.89 0-2.85 1.62-4.71 1.65-1.89 4.41-1.89 3.12 0 4.71 2.28 1.26 1.8 1.17 4.68h-9.69q.03 1.89 1.17 3.06t2.79 1.17q1.47 0 2.55-.9a4.9 4.9 0 0 0 1.29-1.71m-7.65-3.42h7.32q-.27-1.47-1.29-2.34-.99-.9-2.37-.9-1.35 0-2.4.93-1.02.9-1.26 2.31m.12-7.86q-.45-.45-.45-1.05t.45-1.05 1.05-.45 1.05.45.45 1.05-.45 1.05-1.05.45-1.05-.45m5.22 0q-.45-.45-.45-1.05t.45-1.05 1.05-.45 1.05.45.45 1.05-.45 1.05-1.05.45-1.05-.45m15.673 4.98h-3.9V29h-2.16V18.53h-3.9v-1.98h9.96zM54.944 33.633H24v2.364h30.944zm-1.928-2.891H25.949v2.365h27.067zm1.434-15.945H24.52L39.485 3zm-22.502 1.259v.079c0 .394-.296.735-.691.735h-3.655c-.37 0-.692-.341-.692-.735v-.079c0-.394.296-.736.692-.736h3.655c.395 0 .691.316.691.736m0 13.344v.079c0 .394-.296.735-.691.735h-3.655c-.37 0-.692-.341-.692-.735v-.08c0-.393.296-.735.692-.735h3.655c.395 0 .691.315.691.736m-1.183-12.01h-2.667v10.72h2.667zm21.289-1.334v.079c0 .394-.297.735-.692.735h-3.655c-.37 0-.691-.341-.691-.735v-.079c0-.394.296-.736.691-.736h3.655c.37 0 .691.316.691.736m-1.214 1.334h-2.667v10.72h2.667zm1.215 12.01v.079c0 .394-.297.735-.692.735h-3.655c-.37 0-.691-.341-.691-.735v-.08c0-.393.296-.735.691-.735h3.655c.37 0 .691.315.691.736m-7.531-11.26c-3.284 0-4.766-1.55-4.79-1.577a.22.22 0 0 0-.174-.079.22.22 0 0 0-.172.08c-.025.026-1.482 1.576-4.791 1.576-.149 0-.247.105-.247.262v3.968c0 2.18 1.062 4.256 2.84 5.57a6.7 6.7 0 0 0 2.296 1.104h.124c.815-.21 1.58-.605 2.297-1.104a6.9 6.9 0 0 0 2.864-5.57v-3.968c0-.131-.099-.262-.247-.262m-4.964 9.3a7 7 0 0 1-1.309-.709 5.44 5.44 0 0 1-2.247-4.387v-2.707c1.63-.236 2.816-.762 3.556-1.182.741.447 1.927.972 3.557 1.182v2.707c0 1.734-.84 3.363-2.248 4.387-.395.29-.84.526-1.309.71"/><path fill="#fff" d="M38.86 24.94c-.073 0-.147-.053-.197-.105l-1.062-1.445c-.074-.105-.074-.29.05-.368.098-.08.271-.08.345.052l.865 1.209 2.692-3.048a.23.23 0 0 1 .345 0 .265.265 0 0 1 0 .368l-2.864 3.258a.22.22 0 0 1-.173.079"/></svg>