<svg xmlns="http://www.w3.org/2000/svg" width="439" height="47" fill="none" viewBox="0 0 439 47"><rect width="439" height="47" fill="#F09E00" rx="10"/><path fill="#fff" d="M58.48 28.144v9.216h-2.304V16.72h2.304v1.856q1.76-2.175 4.544-2.176 2.976 0 4.704 2.112 1.76 2.08 1.76 4.928 0 2.88-1.728 4.928-1.728 2.016-4.64 2.016t-4.64-2.24m4.32.192q1.952 0 3.136-1.408 1.185-1.44 1.184-3.488 0-2.304-1.312-3.648t-3.04-1.344-3.072 1.344-1.344 3.616q0 2.08 1.216 3.52 1.248 1.408 3.232 1.408m20.396-9.728V16.72H85.5V30h-2.304v-1.856q-1.728 2.24-4.544 2.24-2.689 0-4.576-1.856-1.888-1.855-1.888-5.184 0-3.264 1.856-5.088Q75.93 16.4 78.652 16.4q2.88 0 4.544 2.208m-4.288-.16q-1.824 0-3.104 1.312-1.248 1.28-1.248 3.584 0 2.208 1.152 3.616 1.185 1.376 3.2 1.376t3.2-1.44q1.215-1.44 1.216-3.52 0-2.369-1.344-3.648-1.344-1.28-3.072-1.28M100.104 7.6h2.56a4.55 4.55 0 0 1-1.216 2.016q-.832.8-1.536 1.088a10 10 0 0 1-1.6.512 18 18 0 0 0-.769.192 12 12 0 0 0-.928.224q-.32.097-.831.256-.513.16-.928.384-.417.225-.768.48-1.216.928-1.984 2.592a9.2 9.2 0 0 0-.8 3.488h.064Q92.808 16.4 96.2 16.4q2.975 0 4.928 2.016 1.984 2.016 1.984 4.992 0 3.008-2.016 4.992t-5.249 1.984q-2.782 0-4.575-1.664-2.24-2.048-2.24-6.848 0-8.352 3.776-10.944.287-.192.607-.352.321-.192.672-.32.385-.16.64-.256.257-.128.704-.224.48-.128.64-.16.193-.064.704-.16.544-.128.672-.16 1.28-.288 1.856-.672.577-.416.801-1.024m-.736 12.16q-1.344-1.312-3.296-1.312-1.953 0-3.329 1.344-1.343 1.312-1.343 3.616t1.375 3.616 3.296 1.312 3.297-1.312 1.376-3.616q0-2.335-1.376-3.648m18.509 8.64q-1.985 1.984-5.024 1.984-3.04 0-5.056-1.984-1.984-1.985-1.984-4.992 0-3.04 1.984-5.024 2.016-1.984 5.056-1.984t5.024 1.984q2.016 1.984 2.016 5.024 0 3.008-2.016 4.992m-1.728-8.64q-1.344-1.312-3.296-1.312-1.953 0-3.328 1.344-1.344 1.312-1.344 3.616t1.376 3.616 3.296 1.312 3.296-1.312 1.376-3.616q0-2.335-1.376-3.648m15.669-.928h-4.16V30h-2.304V18.832h-4.16V16.72h10.624zm12.19-.224V16.72h2.304V30h-2.304v-1.856q-1.727 2.24-4.544 2.24-2.688 0-4.576-1.856Q133 26.673 133 23.344q0-3.264 1.856-5.088 1.888-1.856 4.608-1.856 2.88 0 4.544 2.208m-4.288-.16q-1.824 0-3.104 1.312-1.248 1.28-1.248 3.584 0 2.208 1.152 3.616 1.184 1.376 3.2 1.376t3.2-1.44q1.216-1.44 1.216-3.52 0-2.369-1.344-3.648-1.344-1.28-3.072-1.28m20.812 7.104 1.92 1.056q-.672 1.28-1.632 2.144-1.824 1.632-4.416 1.632-2.688 0-4.64-1.728-1.92-1.76-1.92-5.216 0-3.04 1.728-5.024 1.76-2.016 4.704-2.016 3.328 0 5.024 2.432 1.344 1.92 1.248 4.992h-10.336q.031 2.016 1.248 3.264 1.216 1.248 2.976 1.248 1.568 0 2.72-.96a5.2 5.2 0 0 0 1.376-1.824m-8.16-3.648h7.808q-.288-1.567-1.376-2.496-1.056-.96-2.528-.96-1.44 0-2.56.992-1.087.96-1.344 2.464M164.546 30l3.2-14.304 5.504 10.816 5.376-10.816 3.2 14.304h-2.368l-1.76-8.224-4.512 9.152-4.576-9.152L166.914 30zm34.672 0v-5.216q-1.888.288-3.136.288-2.176 0-3.232-.96-1.12-.992-1.12-3.264V16.72h2.304v3.808q0 1.088.288 1.568.447.864 2.016.864 1.407 0 2.88-.288V16.72h2.304V30zm16.502-4.448 1.92 1.056q-.672 1.28-1.632 2.144-1.824 1.632-4.416 1.632-2.688 0-4.64-1.728-1.92-1.76-1.92-5.216 0-3.04 1.728-5.024 1.76-2.016 4.704-2.016 3.327 0 5.024 2.432 1.344 1.92 1.248 4.992H207.4q.031 2.016 1.248 3.264 1.215 1.248 2.976 1.248 1.568 0 2.72-.96a5.2 5.2 0 0 0 1.376-1.824m-8.16-3.648h7.808q-.288-1.567-1.376-2.496-1.056-.96-2.528-.96-1.44 0-2.56.992-1.089.96-1.344 2.464m16.014 6.24v9.216h-2.304V16.72h2.304v1.856q1.76-2.175 4.544-2.176 2.976 0 4.704 2.112 1.76 2.08 1.76 4.928 0 2.88-1.728 4.928-1.728 2.016-4.64 2.016t-4.64-2.24m4.32.192q1.951 0 3.136-1.408 1.184-1.44 1.184-3.488 0-2.304-1.312-3.648t-3.04-1.344-3.072 1.344-1.344 3.616q0 2.08 1.216 3.52 1.248 1.408 3.232 1.408m20.076-2.784 1.92 1.056q-.672 1.28-1.632 2.144-1.824 1.632-4.416 1.632-2.688 0-4.64-1.728-1.92-1.76-1.92-5.216 0-3.04 1.728-5.024 1.76-2.016 4.704-2.016 3.327 0 5.024 2.432 1.344 1.92 1.248 4.992H239.65q.031 2.016 1.248 3.264 1.215 1.248 2.976 1.248 1.568 0 2.72-.96a5.2 5.2 0 0 0 1.376-1.824m-8.16-3.648h7.808q-.288-1.567-1.376-2.496-1.056-.96-2.528-.96-1.44 0-2.56.992-1.089.96-1.344 2.464m15.125-1.792-1.6-1.312q.768-1.12 1.696-1.664 1.248-.735 2.912-.736 2.016 0 3.136.928 1.152.992 1.152 2.528 0 1.855-1.504 2.784.96.224 1.536.864.928.992.928 2.432 0 2.144-1.728 3.424-1.407 1.024-3.776 1.024-2.112 0-3.552-1.12-1.088-.8-1.76-2.272l1.984-.832q.353.896 1.184 1.504.897.672 2.176.672 1.505 0 2.24-.512.928-.608.928-1.856 0-1.024-.8-1.536-.672-.448-2.176-.448h-1.344v-2.112h1.12q1.216 0 1.728-.352.705-.448.704-1.216 0-.896-.576-1.376-.543-.48-1.696-.48-.991 0-1.824.512a3.1 3.1 0 0 0-1.088 1.152m18.409-.8v-2.24q1.664-.672 3.616-.672 3.36 0 5.28 1.952 1.952 1.951 1.952 5.088 0 3.04-1.984 4.992-1.951 1.952-5.088 1.952a9.8 9.8 0 0 1-3.776-.736v-2.24a7.9 7.9 0 0 0 3.744.928q1.856 0 3.2-1.12 1.344-1.152 1.536-2.976h-7.008v-2.048h7.008q-.384-1.76-1.696-2.752t-3.072-.992q-1.856 0-3.712.864m24.763-1.632v2.752q-1.568-1.984-4.16-1.984-1.951 0-3.328 1.344-1.376 1.312-1.376 3.616t1.376 3.616 3.296 1.312q2.56 0 4.288-2.08v2.752a7 7 0 0 1-4.224 1.376q-3.104 0-5.12-1.952-1.983-1.984-1.984-4.992 0-3.04 2.016-5.024 2.016-2.016 5.088-2.016 2.304 0 4.128 1.28m3.632-.96h2.304v5.44l5.376-5.44h2.816l-5.76 5.92 6.464 7.36h-3.008l-5.184-5.824-.704.672V30h-2.304zm15.804 11.424v9.216h-2.304V16.72h2.304v1.856q1.76-2.175 4.544-2.176 2.976 0 4.704 2.112 1.76 2.08 1.76 4.928 0 2.88-1.728 4.928-1.728 2.016-4.64 2.016t-4.64-2.24m4.32.192q1.951 0 3.136-1.408 1.184-1.44 1.184-3.488 0-2.304-1.312-3.648t-3.04-1.344-3.072 1.344-1.344 3.616q0 2.08 1.216 3.52 1.248 1.408 3.232 1.408m21.451.064q-1.983 1.984-5.024 1.984t-5.056-1.984q-1.983-1.985-1.984-4.992 0-3.04 1.984-5.024 2.017-1.984 5.056-1.984t5.024 1.984q2.016 1.984 2.016 5.024 0 3.008-2.016 4.992m-1.728-8.64q-1.344-1.312-3.296-1.312t-3.328 1.344q-1.344 1.312-1.344 3.616t1.376 3.616 3.296 1.312 3.296-1.312 1.376-3.616q0-2.335-1.376-3.648m7.246 17.6 4.224-8.608-6.112-12.032h2.624l4.704 9.504 4.32-9.504h2.56l-9.761 20.64zm15.518-12.992V22h7.04v2.368zm21.226-6.688v2.752q-1.568-1.984-4.16-1.984-1.952 0-3.328 1.344-1.376 1.312-1.376 3.616t1.376 3.616 3.296 1.312q2.56 0 4.288-2.08v2.752a7 7 0 0 1-4.224 1.376q-3.104 0-5.12-1.952-1.984-1.984-1.984-4.992 0-3.04 2.016-5.024 2.016-2.016 5.088-2.016 2.304 0 4.128 1.28M396.311 30v-5.216q-1.887.288-3.136.288-2.175 0-3.232-.96-1.12-.992-1.12-3.264V16.72h2.304v3.808q0 1.088.288 1.568.449.864 2.016.864 1.409 0 2.88-.288V16.72h2.304V30zm16.502-4.448 1.92 1.056q-.672 1.28-1.632 2.144-1.824 1.632-4.416 1.632-2.687 0-4.64-1.728-1.92-1.76-1.92-5.216 0-3.04 1.728-5.024 1.761-2.016 4.704-2.016 3.329 0 5.024 2.432 1.344 1.92 1.248 4.992h-10.336q.033 2.016 1.248 3.264t2.976 1.248q1.569 0 2.72-.96a5.2 5.2 0 0 0 1.376-1.824m-8.16-3.648h7.808q-.288-1.567-1.376-2.496-1.055-.96-2.528-.96-1.44 0-2.56.992-1.088.96-1.344 2.464m.128-8.384q-.48-.48-.48-1.12t.48-1.12 1.12-.48 1.12.48.48 1.12-.48 1.12-1.12.48-1.12-.48m5.568 0q-.48-.48-.48-1.12t.48-1.12 1.12-.48 1.12.48.48 1.12-.48 1.12-1.12.48-1.12-.48m16.719 5.312h-4.16V30h-2.304V18.832h-4.16V16.72h10.624zM44.922 33.633H12v2.364h32.922zm-2.051-2.891H14.074v2.365h28.797zm1.525-15.945H12.55L28.473 3zm-23.938 1.259v.079a.734.734 0 0 1-.736.735h-3.889a.75.75 0 0 1-.735-.735v-.079c0-.394.315-.736.735-.736h3.889a.72.72 0 0 1 .736.736m0 13.344v.079a.734.734 0 0 1-.736.735h-3.889a.75.75 0 0 1-.735-.735v-.08c0-.393.315-.735.735-.735h3.889c.42 0 .736.315.736.736m-1.261-12.01h-2.838v10.72h2.838zm22.651-1.334v.079a.734.734 0 0 1-.735.735h-3.889a.75.75 0 0 1-.736-.735v-.079c0-.394.316-.736.736-.736h3.889c.394 0 .735.316.735.736m-1.292 1.334H37.72v10.72h2.837zm1.292 12.01v.079a.734.734 0 0 1-.735.735h-3.889a.75.75 0 0 1-.736-.735v-.08c0-.393.316-.735.736-.735h3.889c.394 0 .735.315.735.736m-8.015-11.26c-3.495 0-5.071-1.55-5.097-1.577a.24.24 0 0 0-.184-.079.24.24 0 0 0-.184.08c-.026.026-1.577 1.576-5.097 1.576-.158 0-.263.105-.263.262v3.968c0 2.18 1.13 4.256 3.021 5.57a7.3 7.3 0 0 0 2.444 1.104h.131c.867-.21 1.682-.605 2.444-1.104 1.892-1.287 3.048-3.363 3.048-5.57v-3.968a.263.263 0 0 0-.263-.262m-5.281 9.3a7.7 7.7 0 0 1-1.393-.709c-1.497-1.024-2.39-2.653-2.39-4.387v-2.707c1.733-.236 2.995-.762 3.783-1.182.788.447 2.05.972 3.783 1.182v2.707c0 1.734-.893 3.363-2.39 4.387a6.3 6.3 0 0 1-1.393.71"/><path fill="#fff" d="M27.812 24.94c-.08 0-.158-.053-.21-.105l-1.13-1.445c-.08-.105-.08-.29.052-.368.105-.08.29-.08.368.052l.92 1.209 2.864-3.048a.254.254 0 0 1 .368 0 .254.254 0 0 1 0 .368l-3.048 3.258a.24.24 0 0 1-.184.079"/></svg>